<svg width="931" height="116" viewBox="0 0 931 116" fill="none" xmlns="http://www.w3.org/2000/svg">
<path d="M928.2 49V64H894V49H928.2Z" stroke="#F5F5F5" stroke-width="5" stroke-miterlimit="10"/>
<path d="M13.88 90.7901C6.8 83.5901 3.07999 72.3101 3.07999 57.4301C3.07999 29.8301 18.44 13.0302 42.68 13.0302C48.92 13.0302 54.44 14.1102 59.36 16.2702L66.8 3.91016L77.48 10.0302L69.44 23.1102C76.64 30.4302 80.48 41.5902 80.48 55.6302C80.48 82.6302 64.28 100.51 40.28 100.51C34.16 100.51 28.76 99.5502 24.08 97.6302L15.2 112.27L4.51999 106.15L13.88 90.7901V90.7901ZM23.24 55.5101C23.24 61.7501 23.96 67.3902 25.76 71.3502C34.04 57.5502 42.44 43.8702 50.84 30.0702C48.32 28.7502 45.44 28.0302 42.08 28.0302C30.2 28.0302 23.24 35.4701 23.24 55.5101ZM57.8 42.3102L32.6 83.5901C34.88 84.9101 37.64 85.6302 40.88 85.6302C52.88 85.6302 60.44 77.3501 60.44 56.2301C60.44 50.3501 59.48 45.7902 57.8 42.3102Z" stroke="#F5F5F5" stroke-width="5" stroke-miterlimit="10"/>
<path d="M91.88 99.0697V88.8697L100.88 85.2697V28.8697L91.88 25.2697V15.0697L119.48 14.4697H128.6C148.28 14.4697 159.8 22.6297 159.8 38.9497C159.8 50.2297 154.4 57.5497 146.24 61.6297C147.56 63.1897 149.36 65.4697 151.28 69.4297L159.32 85.8697L167.48 88.8697V99.0697H145.28L135.2 76.8697C131.12 67.7497 130.04 65.8297 123.68 65.8297H119.48V85.2697L128.12 88.8697V99.0697H91.88V99.0697ZM126.32 53.2297C135.8 53.2297 141.32 48.6697 141.32 40.6297C141.32 33.7897 136.76 28.8697 129.32 28.8697H119.48V53.2297H126.32V53.2297Z" stroke="#F5F5F5" stroke-width="5" stroke-miterlimit="10"/>
<path d="M225.91 48.6697V61.8697H201.67V84.6697H223.15L225.91 74.8297H236.71V99.0697H174.07V88.8697L183.07 85.2697V28.8697L174.07 25.2697V15.0697L201.67 14.4697H235.27V37.6297H224.47L221.47 28.8697H201.67V48.6697H225.91V48.6697Z" stroke="#F5F5F5" stroke-width="5" stroke-miterlimit="10"/>
<path d="M275.71 99.0697V88.8697L284.71 85.2697V28.8697L275.71 25.2697V15.0697L303.31 14.4697H314.71C333.07 14.4697 343.87 24.0697 343.87 39.6697C343.87 59.8297 331.51 69.6697 309.67 69.6697H303.31V85.2697L312.31 88.8697V99.0697H275.71V99.0697ZM309.67 55.6297C319.63 55.6297 325.27 50.9497 325.27 42.0697C325.27 34.2697 321.07 28.8697 312.91 28.8697H303.31V55.6297H309.67Z" stroke="#F5F5F5" stroke-width="5" stroke-miterlimit="10"/>
<path d="M351.07 99.0697V88.8697L360.07 85.2697V28.8697L351.07 25.2697V15.0697L387.67 14.4697V25.2697L378.67 28.8697V85.2697L387.67 88.8697V99.0697H351.07V99.0697Z" stroke="#F5F5F5" stroke-width="5" stroke-miterlimit="10"/>
<path d="M449.71 48.6697V61.8697H425.47V84.6697H446.95L449.71 74.8297H460.51V99.0697H397.87V88.8697L406.87 85.2697V28.8697L397.87 25.2697V15.0697L425.47 14.4697H459.07V37.6297H448.27L445.27 28.8697H425.47V48.6697H449.71V48.6697Z" stroke="#F5F5F5" stroke-width="5" stroke-miterlimit="10"/>
<path d="M471.31 99.0697V88.8697L480.31 85.2697V28.8697L471.31 25.2697V15.0697L498.91 14.4697H508.03C527.71 14.4697 539.23 22.6297 539.23 38.9497C539.23 50.2297 533.83 57.5497 525.67 61.6297C526.99 63.1897 528.79 65.4697 530.71 69.4297L538.75 85.8697L546.91 88.8697V99.0697H524.71L514.63 76.8697C510.55 67.7497 509.47 65.8297 503.11 65.8297H498.91V85.2697L507.55 88.8697V99.0697H471.31V99.0697ZM505.75 53.2297C515.23 53.2297 520.75 48.6697 520.75 40.6297C520.75 33.7897 516.19 28.8697 508.75 28.8697H498.91V53.2297H505.75V53.2297Z" stroke="#F5F5F5" stroke-width="5" stroke-miterlimit="10"/>
<path d="M594.55 28.0303C581.95 28.0303 574.75 37.3903 574.75 57.4303C574.75 77.4703 582.55 85.0303 595.15 85.0303C607.75 85.0303 617.95 76.6303 617.95 76.6303L624.55 87.4303C624.55 87.4303 611.95 100.51 593.11 100.51C568.75 100.51 554.71 85.8703 554.71 58.0303C554.71 30.1903 570.55 13.0303 595.15 13.0303C609.67 13.0303 623.11 18.6703 623.11 18.6703L622.51 41.4703H610.75L607.99 29.9503C607.99 29.9503 602.35 28.0303 594.55 28.0303V28.0303Z" stroke="#F5F5F5" stroke-width="5" stroke-miterlimit="10"/>
<path d="M632.95 99.0697V88.8697L641.95 85.2697V28.8697L632.95 25.2697V15.0697L669.55 14.4697V25.2697L660.55 28.8697V85.2697L669.55 88.8697V99.0697H632.95V99.0697Z" stroke="#F5F5F5" stroke-width="5" stroke-miterlimit="10"/>
<path d="M678.55 99.0697V88.8697L687.55 85.2697V28.8697L678.55 25.2697V15.0697L707.35 14.4697L739.75 69.9097V28.8697L730.99 25.2697V15.0697L765.19 14.4697V25.2697L756.19 28.8697V99.0697H736.15L703.99 44.7097V85.2697L713.35 88.8697V99.0697H678.55V99.0697Z" stroke="#F5F5F5" stroke-width="5" stroke-miterlimit="10"/>
<path d="M815.46 28.0303C802.62 28.0303 795.42 37.3903 795.42 57.4303C795.42 77.4703 802.98 85.2703 815.82 85.2703C822.06 85.2703 829.02 83.1103 829.02 83.1103V67.9903L820.02 65.2303V55.3903L854.58 54.7903V65.2303L846.42 67.9903V92.4703C846.42 92.4703 834.06 100.51 813.78 100.51C789.42 100.51 775.38 85.8703 775.38 58.0303C775.38 30.1903 791.22 13.0303 815.82 13.0303C830.34 13.0303 843.78 18.6703 843.78 18.6703L843.18 40.2703H832.02L829.02 29.9503C829.02 29.9503 823.38 28.0303 815.46 28.0303Z" stroke="#F5F5F5" stroke-width="5" stroke-miterlimit="10"/>
</svg>
