<svg width="455" height="93" viewBox="0 0 455 93" fill="none" xmlns="http://www.w3.org/2000/svg">
<path d="M80.02 45.4398C80.02 72.4398 63.82 90.4398 39.82 90.4398C15.82 90.4398 2.62 75.4398 2.62 47.2398C2.62 19.0398 17.86 2.83984 42.22 2.83984C66.58 2.83984 80.02 18.6798 80.02 45.4398V45.4398ZM23.02 46.6399C23.02 66.4399 28.42 75.4398 40.42 75.4398C52.42 75.4398 59.62 67.6398 59.62 46.0398C59.62 26.2398 53.62 17.8399 41.62 17.8399C29.62 17.8399 23.02 25.2799 23.02 46.6399V46.6399Z" stroke="#F5F5F5" stroke-width="5" stroke-miterlimit="10"/>
<path d="M90.82 88.8695V78.6695L99.82 75.0695V18.6695L90.82 15.0695V4.86954L121.78 4.26953L139.78 44.2295L158.62 4.86954L187.42 4.26953V15.0695L178.78 18.6695V75.0695L187.78 78.6695V88.8695H152.02V78.6695L161.38 75.0695V29.9496L158.14 37.8695L144.58 66.0695L131.62 66.6695L117.82 38.2295L115.78 31.9895V75.0695L125.02 78.6695V88.8695H90.82V88.8695Z" stroke="#F5F5F5" stroke-width="5" stroke-miterlimit="10"/>
<path d="M304.18 45.4398C304.18 72.4398 287.98 90.4398 263.98 90.4398C239.98 90.4398 226.78 75.4398 226.78 47.2398C226.78 19.0398 242.02 2.83984 266.38 2.83984C290.74 2.83984 304.18 18.6798 304.18 45.4398ZM247.18 46.6399C247.18 66.4399 252.58 75.4398 264.58 75.4398C276.58 75.4398 283.78 67.6398 283.78 46.0398C283.78 26.2398 277.78 17.8399 265.78 17.8399C253.78 17.8399 247.18 25.2799 247.18 46.6399V46.6399Z" stroke="#F5F5F5" stroke-width="5" stroke-miterlimit="10"/>
<path d="M344.02 75.4398C351.7 75.4398 358.54 72.0798 358.54 65.7198C358.54 51.6798 317.98 57.9199 317.98 28.2799C317.98 11.7199 331.06 2.83984 348.46 2.83984C362.02 2.83984 374.86 7.63986 374.86 7.63986L374.26 29.4798H363.22L360.22 19.2799C360.22 19.2799 354.82 17.4798 349.66 17.4798C341.14 17.4798 336.94 21.1998 336.94 25.9998C336.94 39.9198 377.38 34.3998 377.38 62.5998C377.38 80.5998 363.46 90.4398 344.98 90.4398C331.42 90.4398 318.22 85.8799 318.22 85.8799V62.8399H330.46L332.26 72.9198C332.26 72.9198 337.06 75.4398 344.02 75.4398V75.4398Z" stroke="#F5F5F5" stroke-width="5" stroke-miterlimit="10"/>
<path d="M452.38 48.6797V63.6797H418.18V48.6797H452.38Z" stroke="#F5F5F5" stroke-width="5" stroke-miterlimit="10"/>
</svg>
