<svg width="1345" height="94" viewBox="0 0 1345 94" fill="none" xmlns="http://www.w3.org/2000/svg">
<path d="M69.1 25.3108C69.1 35.7508 64.18 42.1108 54.7 45.1108C65.98 48.3508 71.86 55.0708 71.86 64.3108C71.86 81.9508 60.1 89.1508 40.66 89.1508H2.5V78.9508L11.5 75.3508V18.9508L2.5 15.3508V5.15082L30.1 4.55078H42.7C58.3 4.55078 69.1 11.1508 69.1 25.3108V25.3108ZM37.06 39.1108C45.82 39.1108 50.5 35.3908 50.5 27.9508C50.5 21.7108 46.06 18.9508 40.3 18.9508H30.1V39.1108H37.06ZM30.1 74.7508H40.06C48.46 74.7508 52.9 70.9108 52.9 64.3108C52.9 55.5508 47.86 51.7108 37.06 51.7108H30.1V74.7508V74.7508Z" stroke="#F5F5F5" stroke-width="5" stroke-miterlimit="10"/>
<path d="M161.26 45.7104C161.26 72.7104 145.06 90.7104 121.06 90.7104C97.06 90.7104 83.86 75.7104 83.86 47.5104C83.86 19.3104 99.1 3.11035 123.46 3.11035C147.82 3.11035 161.26 18.9504 161.26 45.7104ZM104.26 46.9103C104.26 66.7103 109.66 75.7104 121.66 75.7104C133.66 75.7104 140.86 67.9104 140.86 46.3104C140.86 26.5104 134.86 18.1104 122.86 18.1104C110.86 18.1104 104.26 25.5503 104.26 46.9103V46.9103Z" stroke="#F5F5F5" stroke-width="5" stroke-miterlimit="10"/>
<path d="M181.66 75.3508V18.9508L172.66 15.3508V5.15082L200.26 4.55078H211.66C235.66 4.55078 249.82 18.7108 249.82 45.7108C249.82 72.7108 234.22 89.1508 209.86 89.1508H172.66V78.9508L181.66 75.3508V75.3508ZM210.22 74.7508C221.86 74.7508 229.66 67.9108 229.66 46.3108C229.66 26.1508 222.82 18.9508 211.06 18.9508H200.26V74.7508H210.22V74.7508Z" stroke="#F5F5F5" stroke-width="5" stroke-miterlimit="10"/>
<path d="M277.42 89.1508V78.9508L286.42 75.3508V59.8708L264.46 18.5908L256.66 15.3508V5.15082L290.62 4.55078V15.3508L284.5 17.8708L296.5 43.6708L309.22 17.9908L302.62 15.3508V5.15082L335.02 4.55078V15.3508L326.74 18.5908L305.02 59.7508V75.3508L314.02 78.9508V89.1508H277.42V89.1508Z" stroke="#F5F5F5" stroke-width="5" stroke-miterlimit="10"/>
<path d="M368.25 89.1508V78.9508L377.25 75.3508V18.9508L368.25 15.3508V5.15082L399.21 4.55078L417.21 44.5108L436.05 5.15082L464.85 4.55078V15.3508L456.21 18.9508V75.3508L465.21 78.9508V89.1508H429.45V78.9508L438.81 75.3508V30.2308L435.57 38.1508L422.01 66.3508L409.05 66.9508L395.25 38.5108L393.21 32.2708V75.3508L402.45 78.9508V89.1508H368.25V89.1508Z" stroke="#F5F5F5" stroke-width="5" stroke-miterlimit="10"/>
<path d="M553.41 45.7104C553.41 72.7104 537.21 90.7104 513.21 90.7104C489.21 90.7104 476.01 75.7104 476.01 47.5104C476.01 19.3104 491.25 3.11035 515.61 3.11035C539.97 3.11035 553.41 18.9504 553.41 45.7104V45.7104ZM496.41 46.9103C496.41 66.7103 501.81 75.7104 513.81 75.7104C525.81 75.7104 533.01 67.9104 533.01 46.3104C533.01 26.5104 527.01 18.1104 515.01 18.1104C503.01 18.1104 496.41 25.5503 496.41 46.9103V46.9103Z" stroke="#F5F5F5" stroke-width="5" stroke-miterlimit="10"/>
<path d="M573.81 75.3508V18.9508L564.81 15.3508V5.15082L592.41 4.55078H603.81C627.81 4.55078 641.97 18.7108 641.97 45.7108C641.97 72.7108 626.37 89.1508 602.01 89.1508H564.81V78.9508L573.81 75.3508V75.3508ZM602.37 74.7508C614.01 74.7508 621.81 67.9108 621.81 46.3108C621.81 26.1508 614.97 18.9508 603.21 18.9508H592.41V74.7508H602.37V74.7508Z" stroke="#F5F5F5" stroke-width="5" stroke-miterlimit="10"/>
<path d="M652.77 89.1508V78.9508L661.77 75.3508V18.9508L652.77 15.3508V5.15082L689.37 4.55078V15.3508L680.37 18.9508V75.3508L689.37 78.9508V89.1508H652.77V89.1508Z" stroke="#F5F5F5" stroke-width="5" stroke-miterlimit="10"/>
<path d="M699.57 89.1508V78.9508L708.57 75.3508V18.9508L699.57 15.3508V5.15082L727.17 4.55078H760.77V27.3508H749.61L746.61 18.9508H727.17V39.9508H752.01V53.1508H727.17V75.3508L738.21 78.9508V89.1508H699.57Z" stroke="#F5F5F5" stroke-width="5" stroke-miterlimit="10"/>
<path d="M768.57 89.1508V78.9508L777.57 75.3508V18.9508L768.57 15.3508V5.15082L805.17 4.55078V15.3508L796.17 18.9508V75.3508L805.17 78.9508V89.1508H768.57V89.1508Z" stroke="#F5F5F5" stroke-width="5" stroke-miterlimit="10"/>
<path d="M856.41 18.1104C843.81 18.1104 836.61 27.4704 836.61 47.5104C836.61 67.5504 844.41 75.1104 857.01 75.1104C869.61 75.1104 879.81 66.7104 879.81 66.7104L886.41 77.5104C886.41 77.5104 873.81 90.5904 854.97 90.5904C830.61 90.5904 816.57 75.9504 816.57 48.1104C816.57 20.2704 832.41 3.11035 857.01 3.11035C871.53 3.11035 884.97 8.75037 884.97 8.75037L884.37 31.5504H872.61L869.85 20.0304C869.85 20.0304 864.21 18.1104 856.41 18.1104Z" stroke="#F5F5F5" stroke-width="5" stroke-miterlimit="10"/>
<path d="M976.16 78.9508V89.1508H938V78.9508L947 75.7108L944.12 66.9508H917.48L914.48 75.5908L923.84 78.9508V89.1508H887.6V78.9508L896.36 75.5908L922.76 4.91077L941.96 4.55078L967.76 75.5908L976.16 78.9508ZM940.16 54.1108L931.16 25.6708L921.68 54.1108H940.16Z" stroke="#F5F5F5" stroke-width="5" stroke-miterlimit="10"/>
<path d="M996.2 75.3508V18.9508H984.8L981.8 30.3508H970.76V4.55078H1040.36V30.3508H1029.2L1026.2 18.9508H1014.8V75.3508L1026.2 78.9508V89.1508H984.8V78.9508L996.2 75.3508Z" stroke="#F5F5F5" stroke-width="5" stroke-miterlimit="10"/>
<path d="M1046.36 89.1508V78.9508L1055.36 75.3508V18.9508L1046.36 15.3508V5.15082L1082.96 4.55078V15.3508L1073.96 18.9508V75.3508L1082.96 78.9508V89.1508H1046.36V89.1508Z" stroke="#F5F5F5" stroke-width="5" stroke-miterlimit="10"/>
<path d="M1171.76 45.7104C1171.76 72.7104 1155.56 90.7104 1131.56 90.7104C1107.56 90.7104 1094.36 75.7104 1094.36 47.5104C1094.36 19.3104 1109.6 3.11035 1133.96 3.11035C1158.32 3.11035 1171.76 18.9504 1171.76 45.7104V45.7104ZM1114.76 46.9103C1114.76 66.7103 1120.16 75.7104 1132.16 75.7104C1144.16 75.7104 1151.36 67.9104 1151.36 46.3104C1151.36 26.5104 1145.36 18.1104 1133.36 18.1104C1121.36 18.1104 1114.76 25.5503 1114.76 46.9103V46.9103Z" stroke="#F5F5F5" stroke-width="5" stroke-miterlimit="10"/>
<path d="M1182.56 89.1508V78.9508L1191.56 75.3508V18.9508L1182.56 15.3508V5.15082L1211.36 4.55078L1243.76 59.9908V18.9508L1235 15.3508V5.15082L1269.2 4.55078V15.3508L1260.2 18.9508V89.1508H1240.16L1208 34.7908V75.3508L1217.36 78.9508V89.1508H1182.56V89.1508Z" stroke="#F5F5F5" stroke-width="5" stroke-miterlimit="10"/>
<path d="M1341.8 48.9502V63.9502H1307.6V48.9502H1341.8Z" stroke="#F5F5F5" stroke-width="5" stroke-miterlimit="10"/>
</svg>
