<svg width="309" height="116" viewBox="0 0 309 116" fill="none" xmlns="http://www.w3.org/2000/svg">
<path d="M3 89.0404V78.8403L12 75.2404V18.8403L3 15.2404V5.04041L30.6 4.44043H64.2V27.2404H53.04L50.04 18.8403H30.6V39.8403H55.44V53.0404H30.6V75.2404L41.64 78.8403V89.0404H3V89.0404Z" stroke="#F5F5F5" stroke-width="5" stroke-miterlimit="10"/>
<path d="M149.15 78.8403V89.0404H110.99V78.8403L119.99 75.6003L117.11 66.8403H90.47L87.47 75.4803L96.83 78.8403V89.0404H60.59V78.8403L69.35 75.4803L95.75 4.80042L114.95 4.44043L140.75 75.4803L149.15 78.8403V78.8403ZM113.15 54.0004L104.15 25.5604L94.67 54.0004H113.15Z" stroke="#F5F5F5" stroke-width="5" stroke-miterlimit="10"/>
<path d="M154.56 47.4C154.56 20.04 170.16 3 195 3C219.84 3 233.16 18.84 233.16 45.6C233.16 66.36 223.68 81.72 208.2 87.72C215.4 92.28 224.04 99.24 231.36 99.24C235.2 99.24 242.4 95.04 242.4 95.04C244.56 98.16 246.6 101.4 248.76 104.64C248.76 104.64 236.16 113.04 228.36 113.04C223.2 113.04 218.28 110.28 213 106.68L188.76 90.36C166.68 88.92 154.56 74.16 154.56 47.4V47.4ZM174.36 46.8C174.36 66 180.36 75.6 193.2 75.6C206.76 75.6 213.36 66.2401 213.36 46.2001C213.36 26.1601 207.6 18 194.4 18C181.2 18 174.36 26.64 174.36 46.8V46.8Z" stroke="#F5F5F5" stroke-width="5" stroke-miterlimit="10"/>
<path d="M305.99 48.8398V63.8398H271.79V48.8398H305.99Z" stroke="#F5F5F5" stroke-width="5" stroke-miterlimit="10"/>
</svg>
