<svg width="779" height="94" viewBox="0 0 779 94" fill="none" xmlns="http://www.w3.org/2000/svg">
<path d="M91.11 79.2906V89.4906H52.95V79.2906L61.95 76.0506L59.07 67.2906H32.43L29.43 75.9306L38.79 79.2906V89.4906H2.55V79.2906L11.31 75.9306L37.71 5.25061L56.91 4.89062L82.71 75.9306L91.11 79.2906ZM55.11 54.4506L46.11 26.0106L36.63 54.4506H55.11Z" stroke="#F5F5F5" stroke-width="5" stroke-miterlimit="10"/>
<path d="M94.71 89.4906V79.2906L103.71 75.6906V19.2906L94.71 15.6906V5.4906L122.31 4.89062H155.91V27.6906H144.75L141.75 19.2906H122.31V40.2906H147.15V53.4906H122.31V75.6906L133.35 79.2906V89.4906H94.71V89.4906Z" stroke="#F5F5F5" stroke-width="5" stroke-miterlimit="10"/>
<path d="M183.75 75.6906V19.2906H172.35L169.35 30.6906H158.31V4.89062H227.91V30.6906H216.75L213.75 19.2906H202.35V75.6906L213.75 79.2906V89.4906H172.35V79.2906L183.75 75.6906V75.6906Z" stroke="#F5F5F5" stroke-width="5" stroke-miterlimit="10"/>
<path d="M286.35 39.0906V52.2906H262.11V75.0906H283.59L286.35 65.2506H297.15V89.4906H234.51V79.2906L243.51 75.6906V19.2906L234.51 15.6906V5.4906L262.11 4.89062H295.71V28.0506H284.91L281.91 19.2906H262.11V39.0906H286.35V39.0906Z" stroke="#F5F5F5" stroke-width="5" stroke-miterlimit="10"/>
<path d="M307.95 89.4906V79.2906L316.95 75.6906V19.2906L307.95 15.6906V5.4906L335.55 4.89062H344.67C364.35 4.89062 375.87 13.0506 375.87 29.3706C375.87 40.6506 370.47 47.9706 362.31 52.0506C363.63 53.6106 365.43 55.8906 367.35 59.8506L375.39 76.2906L383.55 79.2906V89.4906H361.35L351.27 67.2906C347.19 58.1706 346.11 56.2506 339.75 56.2506H335.55V75.6906L344.19 79.2906V89.4906H307.95V89.4906ZM342.39 43.6506C351.87 43.6506 357.39 39.0906 357.39 31.0506C357.39 24.2106 352.83 19.2906 345.39 19.2906H335.55V43.6506H342.39Z" stroke="#F5F5F5" stroke-width="5" stroke-miterlimit="10"/>
<path d="M431.18 18.4502C418.58 18.4502 411.38 27.8102 411.38 47.8502C411.38 67.8902 419.18 75.4502 431.78 75.4502C444.38 75.4502 454.58 67.0502 454.58 67.0502L461.18 77.8502C461.18 77.8502 448.58 90.9302 429.74 90.9302C405.38 90.9302 391.34 76.2902 391.34 48.4502C391.34 20.6102 407.18 3.4502 431.78 3.4502C446.3 3.4502 459.74 9.09018 459.74 9.09018L459.14 31.8902H447.38L444.62 20.3702C444.62 20.3702 438.98 18.4502 431.18 18.4502Z" stroke="#F5F5F5" stroke-width="5" stroke-miterlimit="10"/>
<path d="M550.94 79.2906V89.4906H512.78V79.2906L521.78 76.0506L518.9 67.2906H492.26L489.26 75.9306L498.62 79.2906V89.4906H462.38V79.2906L471.14 75.9306L497.54 5.25061L516.74 4.89062L542.54 75.9306L550.94 79.2906ZM514.94 54.4506L505.94 26.0106L496.46 54.4506H514.94Z" stroke="#F5F5F5" stroke-width="5" stroke-miterlimit="10"/>
<path d="M555.74 89.4906V79.2906L564.74 75.6906V19.2906L555.74 15.6906V5.4906L583.34 4.89062H592.46C612.14 4.89062 623.66 13.0506 623.66 29.3706C623.66 40.6506 618.26 47.9706 610.1 52.0506C611.42 53.6106 613.22 55.8906 615.14 59.8506L623.18 76.2906L631.34 79.2906V89.4906H609.14L599.06 67.2906C594.98 58.1706 593.9 56.2506 587.54 56.2506H583.34V75.6906L591.98 79.2906V89.4906H555.74V89.4906ZM590.18 43.6506C599.66 43.6506 605.18 39.0906 605.18 31.0506C605.18 24.2106 600.62 19.2906 593.18 19.2906H583.34V43.6506H590.18Z" stroke="#F5F5F5" stroke-width="5" stroke-miterlimit="10"/>
<path d="M689.78 39.0906V52.2906H665.54V75.0906H687.02L689.78 65.2506H700.58V89.4906H637.94V79.2906L646.94 75.6906V19.2906L637.94 15.6906V5.4906L665.54 4.89062H699.14V28.0506H688.34L685.34 19.2906H665.54V39.0906H689.78V39.0906Z" stroke="#F5F5F5" stroke-width="5" stroke-miterlimit="10"/>
<path d="M776.18 49.29V64.29H741.98V49.29H776.18Z" stroke="#F5F5F5" stroke-width="5" stroke-miterlimit="10"/>
</svg>
