<svg width="264" height="260" viewBox="0 0 264 260" fill="none" xmlns="http://www.w3.org/2000/svg">
<path fill-rule="evenodd" clip-rule="evenodd" d="M43.4504 104.306V104.879H44.2263L45.0022 105.07L45.5841 105.261L46.166 105.643L46.748 106.216L47.1359 106.98L47.3299 107.744V108.126V108.699V144.423V144.805V144.996V145.187L47.1359 145.569L46.9419 145.951L46.748 146.334H46.554V146.525L46.36 146.716L46.166 146.907L45.9721 147.098L45.5841 147.289L45.3901 147.48L45.0022 147.671H44.8082L44.6142 147.862L44.2263 148.053H43.8383H43.4504V148.626H46.554H49.4636H52.1793H54.7009H57.0286H59.1624H61.1021H63.0419H64.5937H66.1455H67.3093H68.4732H69.443H70.2189H70.8009H71.1888H71.9647H72.7406H73.5165H74.2924L75.8442 148.435L76.2322 148.244H76.4261H76.6201L77.396 148.053L77.9779 147.862L78.7538 147.671L79.5297 147.098L79.9177 146.907L80.3056 146.716L81.6635 145.951L83.0213 145.187L83.2153 144.996L83.4092 144.805L83.9912 144.423L84.3791 143.85L84.961 143.468L85.7369 142.513L86.5128 141.558L86.7068 141.176V140.985L86.9008 140.794L87.2887 140.22L87.4827 139.838V139.647L87.6767 139.456L88.0646 138.883L88.6466 137.737L88.8405 137.164L89.0345 136.591L89.2285 135.253L89.4225 133.916V132.579L88.6466 131.815L88.4526 130.669L88.0646 129.522L87.4827 128.376L86.9008 127.23L85.9309 126.084L84.961 124.938L83.7972 123.982L82.6333 123.218L81.4695 122.072L79.9177 121.308L78.3659 120.735L76.6201 120.353L77.396 119.78V119.589H77.59L77.784 119.397L78.1719 119.206L78.9478 118.633L79.7237 118.06L80.3056 117.487L80.8876 116.914L81.2755 116.15L81.6635 115.577L81.8574 114.813L82.0514 114.048L82.2454 113.284V112.52V111.756L82.0514 110.992L81.8574 110.228L81.6635 109.655L81.0815 108.891L80.4996 108.126L79.9177 107.553L79.5297 107.171L78.7538 106.598L77.784 106.025L76.8141 105.643L75.8442 105.261L74.4864 104.688L73.1286 104.306H71.7707L70.2189 104.115L68.4732 103.924H66.7274H64.9816L63.0419 104.115H62.6539H62.072H61.4901H61.1021H60.7142H59.9383H58.9684H57.9985H57.4166H56.8347H55.4768H54.119H52.5672H51.0154H49.2696H47.3299H45.3901H43.4504V104.306ZM72.3527 109.273L72.9346 109.655L73.3225 110.228L73.7105 110.801L74.0984 111.374L74.2924 111.947L74.4864 112.52V113.093V113.857L74.0984 115.195L73.9045 115.386V115.577L73.7105 115.959L73.5165 116.532L73.1286 117.105L72.7406 117.678L71.5768 118.824L70.8009 119.397L70.025 119.78L69.637 119.971L69.2491 120.162L68.4732 120.353L67.6973 120.544L66.9214 120.735L65.9515 120.926H65.3696H64.9816H55.4768V107.171H64.7876H65.9515L67.1153 107.362L68.2792 107.553L69.2491 107.744L70.2189 107.935L70.9948 108.317L71.7707 108.699L72.3527 109.273ZM55.2829 123.6H66.3394H67.8912L69.2491 123.791L70.6069 123.982L71.7707 124.364L72.9346 124.938L74.0984 125.511L75.0683 126.275L76.0382 127.039L76.8141 127.803L77.396 128.567L77.9779 129.331L78.5599 130.287L78.7538 131.242L78.9478 132.197L79.1418 133.343V134.489V134.68V134.871V135.636L78.9478 136.782L78.7538 137.737L78.3659 138.692L77.784 139.456L77.59 139.838L77.396 140.411L76.8141 141.176L76.4261 141.367L76.2322 141.558L75.8442 141.94L75.2623 142.322L74.8743 142.704L73.9045 143.468L73.3225 143.659L73.1286 143.85L72.9346 144.041L71.7707 144.614L70.6069 144.805L70.025 144.996H69.637L69.443 145.187L68.0852 145.378H67.3093H66.7274L66.5334 145.187H66.3394H65.9515H65.5635H64.9816H64.3997H63.8178H63.2358H61.684H60.7142H59.7443H58.5804H57.4166H54.8949V123.6H55.2829Z" fill="#F3EA22"/>
<path fill-rule="evenodd" clip-rule="evenodd" d="M189.902 104.115V104.306H179.233V104.688L180.009 104.879H180.591L181.173 105.261L181.755 105.643L181.949 105.834L182.337 106.216L182.724 106.789L182.918 107.553V108.126L183.112 108.508V144.232L182.918 144.614V144.996V145.378L182.724 145.76V146.142L182.53 146.524L182.337 146.716L182.143 147.098L181.755 147.289L181.561 147.48L181.173 147.671H180.785L180.397 147.862H180.009L179.621 148.053H179.427H179.233V148.435H189.902V148.626H221.713V131.433H220.938H220.744V131.624V131.815V132.197V132.961V134.489V135.826V136.973L220.55 138.119V138.501V139.074L220.356 139.647V140.029V140.411L219.968 141.175L219.774 141.749L219.192 142.322L218.804 142.895L218.222 143.277L218.028 143.468H217.834H217.64H217.446H217.252V143.659H217.058H216.67H216.282H191.259L190.871 142.131V122.836H201.928H203.092L204.256 123.027H205.226L206.195 123.409L206.971 123.6L207.747 124.173L208.523 124.555L209.105 125.128L209.687 125.702L210.075 126.275L210.463 127.039L210.657 127.994L210.851 128.758L211.045 129.713V130.86V132.006H211.821V117.105L211.627 117.487L211.433 117.678L211.045 118.251L210.657 118.633L210.463 118.824L209.881 119.206L209.493 119.397L209.299 119.588L208.523 119.779L207.553 119.97H207.165H206.583H190.871V108.508L191.259 106.98H212.015H212.985L214.148 107.171H215.118L215.894 107.553L216.864 107.744L217.446 108.126L218.222 108.508L218.804 108.89L219.386 109.272L219.774 109.846L220.162 110.61L220.356 111.183L220.55 111.947L220.744 112.711L220.938 113.475V114.621H221.907V104.115H189.902Z" fill="#F3EA22"/>
<path fill-rule="evenodd" clip-rule="evenodd" d="M152.27 170.786V170.404H136.752V170.786H137.334L138.11 170.977L138.692 171.359L139.274 171.741L139.468 171.932L139.662 172.123L140.244 172.887L140.438 173.651V174.225V174.607V186.451H119.101V174.607V173.651L119.489 172.887L119.877 172.123L120.458 171.741L120.846 171.359L121.428 170.977L122.204 170.786H122.98V170.404H107.462V170.786H108.238L108.82 170.977L109.402 171.359L109.984 171.741L110.178 171.932L110.566 172.123L110.954 172.887L111.148 173.651V174.225L111.342 174.607V210.33H111.148V210.712V211.094L110.954 211.477V211.859L110.76 212.241L110.566 212.432L110.372 212.814L110.178 213.005L109.984 213.196L109.596 213.387L109.402 213.578H109.208V213.769H109.014H108.626L108.238 213.96H107.85H107.656H107.462V214.151V214.533H122.98V214.151L122.01 213.96L121.234 213.769L120.458 213.387L120.071 213.005L119.877 212.814L119.683 212.432L119.295 211.859L119.101 211.094V210.33V189.316H140.438V210.33V210.712V211.094L140.244 211.477V211.859L140.05 212.241L139.856 212.432L139.662 212.814L139.468 213.005L139.274 213.196L138.886 213.387L138.498 213.578V213.769H138.304H137.916L137.528 213.96H137.14H136.946H136.752V214.151V214.533H152.27V214.151L151.301 213.96L150.913 213.769H150.525L149.943 213.387L149.361 213.005L149.167 212.814L148.973 212.432L148.585 211.859L148.391 211.094V210.33V174.607V173.842L148.585 172.887L148.973 172.314L149.361 171.741L149.943 171.359L150.525 170.977L151.301 170.786H152.27Z" fill="#F3EA22"/>
<path fill-rule="evenodd" clip-rule="evenodd" d="M150.913 52.7258V53.2989L150.719 53.872V54.2541L150.525 54.6362L150.331 55.0182H150.137V55.2093L149.943 55.4003L149.749 55.5914H149.555H149.167H148.973H148.779H148.391L148.003 55.4003H147.615L147.033 55.2093L146.451 55.0182L145.287 54.6362L144.317 54.2541L143.542 53.872L142.96 53.681L142.378 53.49L141.796 53.2989L141.408 53.1079H141.214L139.274 52.5348L137.334 52.1527L135.589 51.9617H133.843H131.127L128.799 52.1527L126.278 52.5348L124.144 53.1079L122.98 53.2989L121.816 53.681L119.877 54.6362L117.937 55.5914L116.191 56.5465L114.251 58.0748L113.281 58.839L112.506 59.7941L111.536 60.5583L110.954 61.5135L109.79 63.6149L109.208 64.7611L108.82 65.9073L108.238 68.1997L107.85 70.6832L107.656 73.5487V74.886L107.85 76.4143V77.7515L108.238 79.2798L108.432 80.426L108.82 81.7633L109.208 82.9095L109.79 84.2467L110.372 85.2019L110.954 86.3481L111.73 87.3033L112.506 88.4495L113.281 89.2137L114.251 90.1689L115.221 90.933L116.385 91.8882L118.131 93.0344L120.071 93.9896L122.01 94.7537L124.144 95.5179L126.472 96.091L128.799 96.4731L131.127 96.6641L133.843 96.8551L135.201 96.6641L136.752 96.4731L138.304 96.091L139.856 95.7089L144.511 93.7985L145.481 93.4165L146.451 93.2254H146.839H147.227L148.003 93.4165L148.779 93.7985L149.555 94.5627L150.137 95.5179L150.525 96.091L150.913 96.8551H151.882V80.426H150.913L150.525 81.5723V81.7633H150.331V82.1454L150.137 82.7185L149.555 84.0557L148.779 85.2019L147.809 86.1571L147.421 86.7302L146.839 87.3033L145.675 88.4495L145.093 89.0226L144.705 89.5958L143.154 90.5509L141.99 91.5061L141.214 91.6972L140.632 92.0792L139.274 92.8434L137.916 93.2254L136.558 93.6075H135.783L135.201 93.7985H133.843H132.097L130.739 93.6075L129.187 93.0344L127.636 92.6523L126.278 91.8882L124.92 91.1241L123.756 90.1689L122.592 89.0226L121.816 88.2585L121.234 87.4944L120.265 85.775L119.295 84.0557L118.713 82.3364L118.131 80.235L117.743 78.1336L117.355 75.8412V73.5487V71.6384L117.549 70.1101L117.937 68.3908L118.519 66.8625L119.101 65.3342L119.877 63.8059L120.652 62.2776L121.816 60.9404L122.98 59.4121L124.338 58.2659L125.696 57.1196L127.248 56.3555L128.799 55.5914L130.351 55.2093L132.097 54.8272H133.843H135.783L137.528 55.2093L139.468 55.5914L140.244 55.7824L141.02 56.1645L142.766 56.9286L144.123 57.8838L145.675 58.839L146.257 59.6031L147.033 60.1762L147.809 61.1314L148.585 62.2776L149.361 63.4238L149.943 64.57V64.7611L150.137 65.1431L150.331 65.5252L150.719 66.6714L150.913 67.4356V68.3908L151.882 68.1997V52.9168L150.913 52.7258Z" fill="#F3EA22"/>
<path fill-rule="evenodd" clip-rule="evenodd" d="M182.143 151.682L180.203 151.3L178.457 151.109H176.711L175.159 151.3L173.608 151.682L172.25 152.255L170.698 153.02L169.534 153.975L168.564 154.739L167.788 155.694L167.206 156.649L166.819 157.796L166.237 158.942L166.043 160.279L165.849 161.616V163.145L141.796 140.22L134.037 148.053H140.438L163.133 169.258L160.805 170.213L159.641 170.595L158.672 171.168L157.12 172.123L156.344 172.505L155.762 172.887L154.792 173.46L154.016 174.225L153.434 174.989L153.24 175.944V176.708V177.663L153.434 178.618L154.016 179.765L154.21 179.956L154.404 180.147L154.986 180.529H155.18H155.374H155.762L155.956 180.338L156.15 180.147L156.926 179.383L157.896 178.618L158.866 178.045L160.029 177.663L160.999 177.472L162.163 177.281H163.327L164.685 177.472L165.849 177.663L167.206 178.045L168.564 178.618L170.116 179.383L171.668 180.147L173.22 181.102L174.771 182.248L176.517 183.394L178.069 184.541L179.621 185.687L181.173 186.642L182.724 187.406L184.276 188.17L185.828 188.743L187.38 189.125L189.126 189.507H189.902L190.677 189.699H191.453H191.841H192.229L193.005 189.507H193.781L195.139 189.316L196.497 188.934L196.691 188.743H196.885L197.273 188.552L197.855 188.361L198.436 187.979L199.018 187.597L200.182 186.833L200.376 186.451L200.57 186.26L200.764 186.069L201.346 185.496L201.734 185.305L201.928 184.923L202.122 184.732L202.316 184.541L202.704 183.776L203.092 183.203L203.286 182.439L203.48 182.057L203.674 181.675V181.293L203.868 180.911V180.529L204.062 180.147V179.383L204.256 178.618V177.663V176.899L204.062 175.944V175.753V175.562V175.18L203.674 173.269L203.092 171.359L202.316 169.449L201.54 167.538L200.376 165.628L199.212 163.909L197.855 162.189L196.303 160.47L194.557 158.751L193.005 157.222L191.259 155.885L189.514 154.739L187.574 153.593L186.604 153.02L185.828 152.829L183.888 152.064L182.143 151.682ZM175.159 159.897L175.741 159.324L176.517 158.942L177.293 158.56L178.263 158.369H179.039H180.009L180.979 158.56L182.143 158.751L184.276 159.515L186.41 160.661L188.544 162.189L189.514 163.145L190.483 164.291L191.259 165.246L192.035 166.392L192.811 167.538L193.587 168.685L194.169 169.831L194.751 170.977L195.139 172.123L195.527 173.269L195.721 174.416V174.989V175.562V176.517L195.527 176.899V177.09V177.281L195.333 177.472V177.663L195.139 178.045L194.751 178.809L194.557 179.192L194.363 179.574L193.781 180.147L193.393 180.338L193.005 180.529L192.229 180.911L191.841 181.102H191.647L191.453 181.293L191.065 181.484H190.677H190.096H189.708H188.738L188.156 181.293H187.962H187.768H187.574L186.41 181.102L185.246 180.72L184.276 180.147L183.306 179.574L182.337 179.001L181.173 178.236L180.203 177.472L179.233 176.517L178.263 175.562L176.517 173.46L175.159 171.359L174.19 169.067L173.802 167.92L173.608 166.774L173.414 165.628V164.673V163.718L173.608 162.954L173.802 162.189L174.19 161.425L174.771 160.661L175.159 159.897Z" fill="#F3EA22"/>
<path fill-rule="evenodd" clip-rule="evenodd" d="M69.637 74.3129L60.5202 64.9521L60.7142 93.6075L61.684 93.7986L87.0948 101.44L119.489 134.298L127.442 126.657L122.592 122.263L122.204 121.881V122.072H116.773L69.637 74.3129ZM66.1455 80.235L79.1418 93.4165L66.1455 89.5958V80.235Z" fill="#F3EA22"/>
<path fill-rule="evenodd" clip-rule="evenodd" d="M200.958 93.4166L201.152 64.7612L144.899 121.881H139.468L139.274 121.69L139.08 121.881L95.6296 162.381L95.4357 160.852L95.2417 159.515L95.0477 158.369L94.6598 157.223L94.0778 156.076L93.4959 155.121L92.72 154.166L91.9441 153.402L90.7803 152.447L89.4224 151.683L88.6465 151.301L87.8706 151.109L87.2887 150.918L86.5128 150.727L84.961 150.536H83.2152L81.4695 150.727L80.4996 150.918L79.5297 151.301L77.59 151.874L75.6502 152.638L73.7105 153.593L71.9647 154.739L70.2189 155.885L68.4731 157.223L66.9213 158.751L65.3695 160.47L63.8177 162.19L62.4599 163.909L61.2961 165.628L60.3262 167.539L59.3563 169.449L58.7744 171.359L58.1925 173.27L57.8045 175.18L57.6105 177.09V177.855V178.81L57.8045 180.529L58.1925 182.057L58.7744 183.586L59.1623 184.159L59.5503 184.923L59.9382 185.496L60.5202 186.069L61.684 187.215L62.6539 187.979L63.8177 188.744L64.9816 189.317L65.9515 189.126L67.3093 189.317L68.8611 189.508H70.4129L72.1587 189.317L73.7105 188.935L75.2623 188.553L76.0382 188.17L76.2321 187.979H76.4261L76.8141 187.788L78.3659 187.024L79.9177 186.26L81.4695 185.305L83.0213 184.159L84.5731 183.013L86.3188 181.866L87.8706 180.72L89.4224 179.765L90.1983 179.383L90.9742 179.001L92.526 178.237L93.8839 177.664L95.2417 177.281L95.8236 177.09H96.5995L97.7634 176.899H98.9272L100.091 177.09L101.255 177.281L102.225 177.664L103.195 178.237L104.165 179.001L105.134 179.765L105.328 179.956L105.522 180.147H105.716H106.104L106.298 179.956H106.686L107.074 179.765L107.268 179.574L107.462 179.192L107.85 178.046L108.044 177.09V176.135L107.85 175.371L107.462 174.607L107.268 173.843L106.686 173.079L105.91 172.506L104.359 171.55L103.583 171.168L102.807 170.786L100.867 170.022L99.8971 169.64L98.7332 169.258L121.428 148.053H129.187V147.671L129.381 147.862L139.274 137.928L174.965 101.631L200.376 93.9897H200.57L200.958 93.4166ZM195.333 89.2138L182.336 93.0346L195.527 79.8531L195.333 89.2138ZM79.3357 158.369L80.4996 158.178L81.4695 157.987H82.4393H83.4092L84.1851 158.178L84.5731 158.369L84.961 158.56L85.7369 158.942L86.5128 159.515L87.0947 160.088L87.6767 160.852L88.0646 161.616L88.2586 162.381L88.4526 163.145V164.1V165.055L88.2586 166.201L88.0646 167.348L87.6767 168.112L87.4827 168.303V168.685L86.9008 169.831L86.3188 170.977L85.7369 171.932L84.961 173.079L84.1851 174.225L83.2152 175.371L82.2454 176.326L81.2755 177.281L80.6936 177.664L80.1116 178.046L79.1418 178.81L77.9779 179.383H77.59L77.008 179.765L76.4261 179.956L75.8442 180.147L74.6803 180.529L73.7105 180.911L72.7406 181.102H71.7707H70.8008L69.831 180.911L69.0551 180.72L68.2792 180.338L67.6972 179.574L67.1153 179.001L66.5334 178.237L66.3394 177.664L65.9515 176.708L65.7575 175.753V174.798V173.843L65.9515 172.697L66.5334 170.404L67.5033 168.303L68.8611 166.201L70.6069 164.1L71.5767 163.145L72.5466 162.19L74.6803 160.661L76.8141 159.515L77.9779 158.942L79.3357 158.369Z" fill="#F3EA22"/>
<path fill-rule="evenodd" clip-rule="evenodd" d="M25.7987 168.303V169.831V170.213V170.595V171.168L25.6047 171.741V172.314L25.4107 172.505V172.696V172.887L25.2167 173.079L24.8288 173.652V173.843L24.6348 174.034L24.2469 174.416L23.8589 174.798L23.277 175.18L22.889 175.562L22.5011 175.753L22.3071 175.944L22.1131 176.135H21.3372H20.7553H20.1734H19.5915L18.4276 175.753L17.8457 175.562L17.2638 175.18L16.4879 174.607L15.9059 174.034L15.324 173.27L14.7421 172.505L14.1602 171.55L13.7722 170.595L13.3843 169.64L12.9963 168.494L9.69873 157.605L10.2807 157.414L10.4746 157.987L10.6686 158.56L10.8626 158.942L11.0566 159.324L11.6385 159.706L12.2204 159.897H12.6084H12.8023H13.1903L13.3843 159.706H13.7722L14.5481 159.515L28.9023 155.312L29.6782 155.121L30.2601 154.93L30.648 154.739L31.036 154.548L31.23 154.357L31.4239 154.166L31.6179 153.784V153.593L31.8119 153.402V153.02V152.829V152.638L31.6179 152.065L31.4239 151.682V151.3L32.0059 151.109L35.1095 161.616L35.3034 162.572L35.4974 163.336L35.6914 164.1L35.8854 164.864V165.437V165.628V166.01V166.583V167.156V168.112H35.6914V168.303L35.4974 168.685L35.1095 169.449L34.9155 169.831L34.7215 170.213L34.1396 170.786L33.7516 170.977L33.5577 171.168L33.3637 171.359H33.1697L32.9757 171.55V171.741L32.1998 171.932L31.4239 172.123H30.648L29.6782 171.932L28.9023 171.741L28.1264 171.168L27.7384 170.786L27.3505 170.404L26.7685 170.022L26.3806 169.449L25.7987 168.303ZM24.4408 162.189L24.8288 163.145L25.2167 164.1L25.6047 164.864L25.9926 165.437L26.3806 165.819L26.9625 166.201L27.5444 166.392L28.1264 166.583H28.7083H29.2902H29.8721L30.648 166.392L31.23 166.201L31.4239 166.01H31.6179L32.0059 165.819L32.5878 165.437L32.7818 165.246L32.9757 165.055H33.1697L33.3637 164.864L33.5577 164.673L33.7516 164.482L33.9456 164.291L34.1396 163.718L34.3336 163.145V162.954V162.763V162.381V161.998V161.616L34.1396 161.043V160.852V160.661V160.47L33.9456 159.897L33.7516 159.324L24.4408 162.189ZM23.083 162.572L15.9059 164.673L15.13 164.864L14.7421 165.055L14.3541 165.246L13.7722 165.819L13.5782 166.392L13.7722 167.156L13.9662 167.73L14.3541 168.303L14.7421 168.876L15.324 169.449L15.712 169.831L16.2939 170.022L16.8758 170.213L17.4577 170.595H18.0397H18.6216H19.2035L19.9794 170.404L20.7553 170.022L21.5312 169.64L22.1131 169.258L22.6951 168.876L23.083 168.303L23.277 167.921L23.471 167.73L23.6649 167.156L23.8589 166.583V166.201V165.819V165.437V165.055L23.471 164.291L23.277 163.718V163.527V163.336V163.145L23.083 162.572Z" fill="#F3EA22"/>
<path fill-rule="evenodd" clip-rule="evenodd" d="M44.6142 182.63L45.1961 183.777L45.7781 184.923L46.166 186.069L46.36 187.215L46.554 188.362V189.508L46.36 190.654L46.166 191.8L45.7781 192.946L45.1961 194.093L44.6142 195.048L44.0323 196.003L43.6443 196.385L43.2564 196.767L42.8684 197.149L42.4805 197.531L41.5106 198.295L40.9287 198.678H40.7347L40.5407 198.869L40.3468 199.06L39.7648 199.251L39.5709 199.442L39.3769 199.633L38.407 200.015L37.4371 200.397L36.4673 200.588L35.4974 200.779H34.5275H33.5576H32.5878L31.2299 200.397L30.0661 200.015L28.9022 199.442L27.7384 198.869L26.5745 197.913L25.6047 196.958L24.6348 195.812L23.8589 194.666L23.083 193.328L22.5011 191.991L22.1131 190.654L21.9191 189.317L21.7252 187.979L21.9191 186.642L22.1131 185.305L22.5011 184.159L22.889 183.204L23.4709 182.248L24.0529 181.484L24.8288 180.72L26.3806 179.192L27.1565 178.619L28.1263 178.046L29.2902 177.473L30.454 176.899L31.6179 176.517L32.7817 176.326L33.9456 176.135H35.1094L36.2733 176.326L37.4371 176.708L38.601 177.09L39.7648 177.664L40.7347 178.237L41.7046 179.001L42.4805 179.765L43.2564 180.72L44.0323 181.675L44.6142 182.63ZM43.6443 183.395L43.0624 182.63L42.6745 182.248L42.0925 181.675L41.5106 181.484L40.7347 181.102L39.9588 180.911L39.1829 180.72H38.407H37.6311L36.8552 181.102L36.0793 181.293L35.1094 181.484L34.1396 181.866L33.1697 182.248L32.1998 182.822L31.2299 183.395L30.0661 184.159L28.9022 184.923L27.9324 185.687L27.1565 186.451L26.3806 187.215L25.7986 187.979L25.2167 188.744L24.8288 189.699L24.4408 190.845V191.991L24.6348 193.137L25.2167 194.284L25.6047 194.857L26.1866 195.43L26.7685 196.003L27.3504 196.385L28.1263 196.576L29.0962 196.767H30.2601L31.4239 196.576L32.5878 196.194L34.1396 195.621L35.6914 194.857L37.4371 194.093L38.407 193.52L39.3769 192.946L40.9287 191.8L41.5106 191.227L42.0925 190.654L43.0624 189.699L43.6443 188.744L44.2263 187.979L44.6142 187.024L44.8082 186.26V185.496V184.732L44.6142 183.968L43.6443 183.395Z" fill="#F3EA22"/>
<path fill-rule="evenodd" clip-rule="evenodd" d="M33.7516 209.376L34.1396 208.993L34.7215 209.567L35.1095 209.949L35.4974 210.14L36.0793 210.522H36.6613H36.8552H37.2432V210.331H37.4372L37.8251 210.14L38.407 209.758L38.989 209.184L50.0455 198.869L50.6275 198.295L51.2094 197.913L51.4034 197.531L51.5974 197.34V196.767V196.576V196.385V196.194V196.003L51.2094 195.239L51.0154 194.857L50.8215 194.475L50.2395 193.902L50.8215 193.52L57.9985 200.97L58.5805 201.734L59.1624 202.498L59.7443 203.262L60.3262 204.027L60.7142 204.6L60.9081 204.982L61.1021 205.364L61.4901 205.937L61.878 206.701L62.072 207.465L62.266 208.229L62.46 209.758L62.266 211.286L62.072 212.05L61.878 213.005L61.4901 213.769L61.2961 214.533L60.5202 215.871L59.5503 217.208L58.3865 218.545L57.4166 219.309L56.8347 219.691L56.4467 220.074L55.4769 220.647L54.507 221.22L53.5371 221.602L52.5672 221.793L51.5974 221.984L50.8215 222.175H49.8516L49.0757 221.984L47.3299 221.602L46.748 221.411L46.36 221.22L45.5841 220.647L44.6143 219.691L44.2263 219.5L43.6444 219.118L43.2564 218.927L43.0625 218.736L42.8685 218.545L42.4805 218.354L42.2865 218.163L41.7046 217.59L41.5106 217.399L41.3167 217.208L40.9287 216.826L33.7516 209.376ZM55.6708 200.779L42.4805 213.005L41.8986 213.387L41.7046 213.578L41.5106 213.769L41.3167 213.96V214.151L41.1227 214.533V214.916L41.3167 215.489L41.8986 216.062L42.8685 217.017L43.4504 217.399L44.0323 217.59L44.6143 217.781L45.1962 217.972H45.7781H46.554L47.3299 217.781L48.1058 217.59L48.8817 217.208L49.8516 216.826L50.6275 216.253L51.5974 215.489L52.5672 214.725L53.5371 213.96L54.8949 212.432L56.0588 210.904L56.6407 210.14L57.0287 209.376L57.6106 208.038L57.8046 206.892L57.9985 205.937V204.982L57.8046 204.027L57.6106 203.644L57.4166 203.262L57.2226 203.071L57.0287 202.88L56.8347 202.498L56.6407 202.307L56.4467 202.116L56.0588 201.734L55.6708 201.161V200.779Z" fill="#F3EA22"/>
<path fill-rule="evenodd" clip-rule="evenodd" d="M86.1249 223.13L85.9309 223.703L84.767 223.321H83.9911H83.6032H83.2152L82.8273 223.512L82.2454 223.703L81.6634 223.894L81.0815 224.085L80.3056 224.467L79.5297 224.849L70.8008 229.052L67.6972 233.637L67.1153 234.21L66.9213 234.592V234.974H66.7274L66.5334 235.165V235.547V235.929L66.7274 236.502L67.1153 237.075L67.6972 237.649L68.8611 238.413L68.4731 238.986L57.6105 231.726L57.9985 231.153L58.9684 231.917L59.3563 232.109L59.7443 232.3L60.1322 232.491H60.7141H61.1021L61.684 232.3L61.878 232.109L62.072 231.726L62.4599 231.153L63.0418 230.58L65.5635 226.76L66.5334 215.679V214.915L66.7274 214.151V213.578V213.005V212.432V212.05L66.5334 211.668L66.1454 210.904L65.7575 210.521L65.5635 210.139L65.7575 209.757L75.0683 215.87L74.6803 216.253L74.2924 216.062L73.9044 215.679L73.5165 215.488H73.1285H72.9346H72.5466L72.1587 215.679L71.9647 216.062V216.826L71.7707 217.781L71.5767 219.118L70.8008 227.524L78.1719 224.085L79.5297 223.512L79.9177 223.321L80.3056 223.13L81.0815 222.557L81.4695 222.175V221.793V221.602V221.411L81.2755 221.219V221.028L81.0815 220.837L80.8875 220.646L80.4996 220.073L79.9177 219.691L80.3056 219.309L86.1249 223.13Z" fill="#F3EA22"/>
<path fill-rule="evenodd" clip-rule="evenodd" d="M101.643 230.007L98.9272 238.986H99.3152L100.285 239.177H100.673H101.255L101.643 238.986H102.031L102.807 238.604L103.001 238.222L103.389 238.031L103.777 237.649L103.971 237.267L104.552 236.311L104.746 235.929V235.738V235.547L105.134 235.165L105.716 235.356L102.419 246.818L101.643 246.627L101.837 245.672V244.717V243.953V243.189L101.643 242.616L101.449 242.043L101.061 241.469L100.867 241.278L100.285 240.896L99.8971 240.514L99.3152 240.323L98.5393 240.132L96.5995 246.245L96.4055 247.009L96.2116 247.774V248.156V248.538V248.92L96.5995 249.302L96.7935 249.493L96.9875 249.684L97.9573 249.875L99.3152 250.257L99.5091 250.448H99.8971L100.673 250.639L102.031 250.83L102.225 250.639H102.419H102.807H103.389H103.971L104.552 250.448L105.134 250.066L105.716 249.875L105.91 249.684L106.104 249.493L106.686 249.111L107.074 248.538L107.656 247.965L108.044 247.392L108.238 247.2L108.432 247.009L108.626 246.818L109.208 247.009L106.104 253.696L86.9008 248.156L87.0947 247.583L87.8706 247.774H88.2586L88.6465 247.965H89.0345H89.4224L90.0044 247.583L90.3923 247.2V247.009L90.7803 246.627L90.9742 246.054L91.1682 245.29L95.4357 230.962L95.6296 230.198V229.816L95.8236 229.625V229.434V229.243V229.052V228.479L95.6296 228.097L94.8537 227.524L94.4658 227.142H94.0778L93.3019 226.76L93.4959 226.187L112.118 231.727L110.178 238.222L109.596 237.84V237.267V236.694V235.738L109.402 234.783L109.208 234.21L108.82 233.446L108.432 232.873L107.85 232.3L107.268 231.918L106.686 231.536H106.492H106.298L105.91 231.344L105.522 231.153L105.134 230.962H104.94L103.777 230.58L101.643 230.007Z" fill="#F3EA22"/>
<path fill-rule="evenodd" clip-rule="evenodd" d="M127.83 242.807L133.649 252.55L134.037 252.932L134.231 253.505L134.619 253.887L134.813 254.269L135.201 254.651L135.395 255.033V255.224L135.782 255.415L136.364 255.797L136.946 255.988H137.334V256.752L125.89 255.988L126.084 255.415H126.278H126.666H127.054L127.442 255.224L127.83 255.033L128.023 254.842V254.651L128.217 254.46V254.269V254.078V253.887L128.023 253.696V253.505L127.83 253.123L127.442 252.55L127.248 252.167L127.054 251.976L123.95 246.818L120.264 250.83L119.877 251.212L119.489 251.594L119.101 251.976L118.907 252.358L118.713 252.55L118.519 252.741V252.932V253.314V253.696L118.713 253.887L118.907 254.269H119.101L119.295 254.651H119.489L120.071 255.033H120.458H120.846H121.428V255.797L112.505 255.224V254.46H113.281L113.863 254.269L114.445 254.078L115.027 253.887L115.609 253.314L116.385 252.741L117.355 251.976L118.325 250.83L123.368 245.672L117.937 236.694L117.355 235.738L117.161 235.356L116.967 234.974L116.773 234.783L116.579 234.592V234.401L115.997 233.828L115.609 233.446L115.027 233.255L114.445 233.064V232.491L125.89 233.255V233.828H125.308L124.92 233.637L124.532 233.828H124.144L123.95 234.019L123.562 234.21V234.783L123.368 234.974L123.562 235.356L124.532 237.267L127.248 241.66L129.769 238.986L130.351 238.222L130.739 237.84L130.933 237.267L131.321 236.885L131.515 236.502L131.709 236.311L131.903 235.738V235.356L131.709 234.974L131.321 234.592L130.933 234.21L130.351 234.019H129.381L129.575 233.446L138.11 233.828L137.916 234.592H136.946H136.364L135.782 234.974L135.395 235.165L135.007 235.547H134.813L134.619 235.738L134.231 236.12L133.843 236.502L133.455 236.885L133.067 237.267L132.679 237.84L127.83 242.807Z" fill="#F3EA22"/>
<path fill-rule="evenodd" clip-rule="evenodd" d="M159.253 230.389L160.417 236.502L159.835 236.693L159.253 235.738L158.866 234.974L158.478 234.21L158.09 233.828L157.508 233.446L157.12 233.064L156.538 232.873L155.956 232.682L155.568 232.491H154.986H154.404L153.628 232.682L151.882 233.064L154.792 250.257L154.986 251.021L155.18 251.785V252.167L155.374 252.549L155.762 252.74L156.344 253.122H156.538L156.926 253.313H157.896L158.672 253.122V253.696L146.839 255.606L146.645 255.033L147.421 254.842L147.809 254.651H148.197L148.585 254.46L148.973 254.269L149.361 253.887V253.696V253.505H149.555V253.313V253.122V252.931V252.549L149.361 251.976V251.785V251.594V251.212L146.451 233.828L144.899 234.21L143.735 234.401L142.766 234.783L142.184 235.165L141.602 235.738L141.02 236.502L140.632 237.458L140.438 237.84V238.604V239.75L139.856 239.941L138.692 233.828L159.253 230.389Z" fill="#F3EA22"/>
<path fill-rule="evenodd" clip-rule="evenodd" d="M172.444 238.795L174.965 244.717L175.159 245.099V245.29L175.353 245.481L175.741 246.054L175.935 246.246L176.129 246.437L176.323 246.628L176.517 246.819L176.711 247.01L176.905 247.201L177.487 247.392H177.875L178.457 247.201L179.039 247.01L179.815 246.819L180.009 247.392L168.952 251.786L168.758 251.212L169.34 250.83L169.922 250.448L170.31 250.257L170.698 250.066L170.892 249.493L171.086 249.111V248.92V248.729L170.892 248.156L170.698 247.583L170.504 247.392V247.201L170.31 246.819L164.685 233.064L164.297 232.3L164.103 231.727L163.909 231.345L163.715 231.154L163.521 230.963L163.327 230.772H162.745H162.357L161.775 230.963L161.193 231.154L160.611 231.536L160.417 230.963L170.504 226.951L171.474 226.569L172.25 226.187L173.802 225.614L175.159 225.232L175.741 225.041H176.323H177.293L178.263 225.232L179.233 225.423L180.203 225.996L180.979 226.569L181.367 226.76L181.755 227.142L182.336 227.906L182.918 228.861L183.112 229.434V229.625V229.816L183.306 230.198L183.5 231.345L183.306 232.491L183.112 233.064L182.918 233.637L182.53 234.21L182.336 234.592H182.143V234.783L181.949 234.974L181.173 235.548L180.785 235.93L180.591 236.121L180.397 236.312L188.544 241.47L188.932 241.661L189.32 241.852L189.708 242.043L190.095 242.234L190.289 242.425L190.483 242.616H190.677L190.871 242.807L191.647 242.998H192.035L192.617 242.807L192.811 243.38L186.022 246.054L175.159 239.177L172.444 238.795ZM168.176 228.288L172.056 237.458L173.026 237.076L173.996 236.694L174.771 236.312L175.547 235.93L176.129 235.548V235.356L176.323 235.165L176.517 234.974L176.905 234.401L177.099 233.828L177.293 233.255V233.064V232.682V232.491V232.3V231.918L177.099 231.536V231.345V231.154L176.905 230.39L176.323 229.243L175.935 228.67L175.741 228.288L175.353 227.906L174.965 227.715L174.19 227.333L173.608 227.142L173.22 226.951H172.638H172.056H171.474L170.892 227.142L170.31 227.333L169.728 227.524L168.176 228.288Z" fill="#F3EA22"/>
<path fill-rule="evenodd" clip-rule="evenodd" d="M189.902 217.59L195.333 225.231L195.721 225.04L195.915 224.849L196.109 224.658L196.497 224.276V224.085L196.691 223.894L197.079 223.512L197.273 222.748L197.467 222.366V221.984V221.793V221.602V221.22L197.273 220.073L197.079 219.691L196.691 219.118V218.736L196.497 218.545L196.303 217.972L196.691 217.59L203.674 227.524L203.092 227.906L202.51 227.142L201.928 226.569L201.152 225.995L200.57 225.613L199.988 225.422L199.406 225.231H198.824H198.436H197.854L197.273 225.422L196.691 225.804L196.109 226.186L199.794 231.535L199.988 231.918L200.376 232.109V232.3V232.491L200.764 232.682V232.873L200.958 233.064L201.152 233.255L201.734 233.446L202.122 233.637L202.51 233.446H202.704L203.092 233.255L203.48 232.873L204.644 232.109L205.807 231.153L206.389 230.771L206.583 230.389L206.777 230.198L207.165 229.625L207.553 229.243V228.861V228.67H207.747V228.479L208.135 228.097V227.333L208.329 226.76V225.422L208.135 224.849V224.085L207.747 222.748L208.329 222.366L211.627 228.861L195.139 240.323L194.751 239.75L195.333 239.177L196.109 238.604L196.303 238.222H196.497L196.691 238.031V237.84V237.649V237.075L196.497 236.884V236.693L196.303 236.502V236.311L196.109 235.929H195.915V235.738L195.721 235.356L195.527 235.165L186.798 222.748L186.41 222.175L186.022 221.793L185.828 221.411L185.246 221.028H184.664L183.694 221.22L182.918 221.602L182.336 221.984L181.949 221.411L197.854 210.521L201.734 216.062L201.152 216.444L200.182 215.679L199.406 215.106L198.63 214.533L198.048 214.342L197.273 214.151H196.497H195.721L194.945 214.533L194.363 214.724L193.781 215.106L193.199 215.297L192.811 215.488L191.841 216.253L189.902 217.59Z" fill="#F3EA22"/>
<path fill-rule="evenodd" clip-rule="evenodd" d="M222.295 207.465L214.536 192.946L220.55 185.878L221.131 186.26L220.55 187.024L220.356 187.215L220.162 187.597L219.968 188.361L219.774 188.935L219.968 189.508L220.162 189.699L220.55 189.89L220.938 190.272L221.519 190.845L233.158 200.588L233.546 200.779L233.74 200.97L233.934 201.161L234.322 201.352L234.516 201.543L234.71 201.734H234.904L235.098 201.925H235.486L236.262 201.734H236.456L236.649 201.352L237.037 201.161L237.425 200.779L237.813 200.206L238.395 200.588L230.636 209.757L230.054 209.375L230.636 208.802L230.83 208.42L231.024 208.038L231.218 207.656L231.412 207.274V206.701L231.218 206.51V206.319L231.024 206.128L230.636 205.746L230.054 205.364V205.173L229.86 204.982L229.666 204.79L216.476 193.901L226.951 213.96L226.757 214.342L204.838 207.656L217.252 218.163L217.446 218.354H217.64V218.545H217.834L218.028 218.736L218.222 218.927L218.416 219.118L218.61 219.309H218.804L218.998 219.5H219.386H219.774H220.162H220.744L221.131 219.309L221.519 219.118L221.907 218.736L222.489 218.163L223.071 218.545L217.834 224.467L217.446 224.085L217.64 223.894L218.028 223.321L218.222 222.939L218.416 222.748V221.984V221.411L218.222 221.22V220.838L218.028 220.455H217.834V220.264L217.64 220.073L217.446 219.882L217.252 219.691L217.058 219.5L216.864 219.309L216.476 219.118L205.226 209.757L204.644 209.375L204.256 208.993L203.868 208.611H203.48H202.898L202.51 208.802L201.734 208.993L201.346 209.375L201.152 209.757L200.764 210.139L200.182 209.757L206.389 202.689L222.295 207.465Z" fill="#F3EA22"/>
<path fill-rule="evenodd" clip-rule="evenodd" d="M224.817 178.618L233.352 182.63L233.546 182.248L233.934 181.102L234.128 180.338L233.934 179.383L233.74 178.809L233.158 178.045L232.576 177.281L231.606 176.517L230.636 175.944L230.83 175.371L241.887 180.529L241.499 181.102L240.529 180.72L239.753 180.529L238.977 180.338H238.201H237.619L237.037 180.529L236.456 180.72L236.068 181.102L235.68 181.293L235.292 181.866L234.904 182.439L234.516 183.012L240.529 185.878L241.111 186.26H241.499L241.887 186.451H242.081L242.275 186.642H242.663H243.051L243.439 186.451L243.827 186.26L244.021 186.069L244.215 185.687L244.409 185.305L244.99 184.158L245.572 182.63L245.766 181.866L245.96 181.293V180.529V179.956L245.766 178.809L245.378 177.663L245.184 177.09L244.796 176.517L244.021 175.371L243.439 174.798L242.857 174.416L243.245 173.843L249.452 177.854L240.917 195.621L240.335 195.43L240.529 194.665L240.723 194.283L240.917 193.901V193.137V192.564L240.529 192.182L240.335 191.991L239.947 191.8L239.365 191.418L238.589 191.036L224.817 184.732L224.235 184.35L223.653 184.158L223.265 183.967H223.071H222.489L221.907 184.158L221.325 184.541L220.744 185.496L220.55 186.069L219.968 185.878L228.115 168.685L234.322 171.55L234.128 172.123L232.964 171.932L231.8 171.741H231.024L230.248 171.932H229.472L228.89 172.314L228.309 172.887L227.727 173.46H227.533L227.339 173.843L226.951 174.607L226.563 174.798L226.369 175.371L225.981 176.517L224.817 178.618Z" fill="#F3EA22"/>
<path fill-rule="evenodd" clip-rule="evenodd" d="M232.382 151.109L239.947 152.829L239.753 153.402H238.395L237.037 153.593L235.68 153.975L234.71 154.548L233.546 155.312L232.77 156.267L232.188 157.223L231.994 158.178L231.8 158.942V159.706V160.088V160.47L232.188 161.043L232.576 161.616L232.964 161.998L233.352 162.381L233.934 162.572H234.322H234.71H235.292L236.262 162.189L236.843 161.807L237.425 161.425L237.619 161.234L237.813 160.852L238.007 160.661L238.395 160.279L238.783 159.897L239.171 159.515L239.559 158.942L240.141 158.369L240.723 157.414L241.499 156.84L242.081 156.076L242.857 155.503L243.439 154.93L244.021 154.548L244.602 154.166L245.184 153.975L246.154 153.593L247.124 153.402H248.288L249.452 153.784H250.034L250.81 154.166L251.392 154.357L251.973 154.739L252.361 155.312L252.943 155.694L253.331 156.267L253.719 157.031L254.301 158.369L254.689 159.897V161.425L254.495 162.189V162.954L254.107 163.909L253.719 164.864L253.331 165.437L252.943 165.819L252.749 166.392L252.361 167.156L251.973 167.347L251.78 167.73L251.586 167.921V168.303V168.685L251.78 169.258V169.449L251.973 169.831L252.167 170.022L252.555 170.213L252.361 170.786L243.827 168.876L244.021 168.112H244.796H245.766L246.542 167.921H247.318L248.094 167.73L248.87 167.347L249.452 167.156L250.228 166.774L250.81 166.201L251.198 165.819L251.586 165.437L252.167 164.864L252.361 164.482L252.749 163.909L252.943 163.336L253.137 162.763L253.331 161.807V161.043L253.137 160.279L252.943 159.706L252.555 159.133L251.973 158.56L251.586 158.178L251.198 157.987H251.004L250.034 157.796H249.646L249.258 157.987L248.288 158.369L247.512 158.942L246.93 159.324L246.348 159.897L245.766 160.661L244.99 161.425L243.827 162.763L243.245 163.145L242.857 163.718L242.469 164.1L242.081 164.482L241.305 165.246L240.529 165.628L240.335 165.819H240.141L239.753 166.01L238.977 166.392L238.395 166.583L237.619 166.774H236.843H236.068L235.292 166.583L234.516 166.392L233.934 166.201L233.352 165.819L232.964 165.437L231.994 164.673L231.606 164.1L231.218 163.527L230.636 162.189L230.442 161.043L230.248 159.515L230.636 158.178L230.83 157.223L231.412 156.267L231.8 155.503L232.188 154.93L232.576 154.548L232.964 153.975L233.158 153.593L233.352 153.402L233.546 153.211V152.638V152.256L233.352 152.065L233.158 151.874L232.77 151.682H232.576L232.382 151.491V151.109Z" fill="#F3EA22"/>
<path fill-rule="evenodd" clip-rule="evenodd" d="M26.1866 54.2542L32.9757 58.4569L32.5878 59.0301L31.036 58.648L29.6781 58.4569H28.3203L26.9625 58.839L26.3806 59.0301L25.7986 59.2211L24.8288 59.9852L23.8589 60.7494L23.083 61.7046L22.5011 62.6597L22.3071 63.6149L22.1131 64.5701V65.7163V66.2894V66.8625L22.5011 67.8177L22.695 68.7729L23.4709 69.7281L24.2468 70.6832L24.6348 71.2564L25.2167 71.8295L26.3806 72.5936L26.9625 73.1667L27.5444 73.5488L28.9022 74.3129L30.2601 75.0771L31.6179 75.4591L32.7817 76.0323H33.3637L34.1396 76.2233L35.3034 76.4143L36.4673 76.2233L36.8552 76.0323H37.4371L37.8251 75.6502L38.407 75.4591L38.795 75.2681L39.1829 74.886L39.5709 74.504L40.1528 73.9309L40.9287 72.9757L41.3166 72.0205L41.5106 71.6384L41.7046 71.0653L42.0925 70.1101L42.2865 69.155V68.5819V68.0087L42.0925 67.8177V67.4356V67.2446V66.8625L41.8986 66.4805V66.2894V65.5253L41.7046 65.1432V64.9522L41.5106 64.188L43.2564 65.3342L43.4504 66.6715L43.6443 67.8177V68.9639L43.4504 70.3012L43.2564 71.2564L42.8684 72.4026L42.2865 73.7398L41.5106 74.886L40.5407 76.2233L39.9588 76.9874L39.3769 77.5605L38.795 78.1337L38.213 78.7068L36.8552 79.4709L36.0793 79.853L35.3034 80.235L34.5275 80.4261L33.9456 80.6171L32.3938 80.8082L31.6179 80.9992H30.842L29.2902 80.6171L27.7384 80.4261L26.3806 79.853L25.0227 79.0888L23.6649 78.1337L23.083 77.5605L22.5011 76.9874L21.3372 75.6502L20.5613 74.3129L20.1734 73.5488L19.9794 72.7846L19.5914 72.0205L19.3975 71.2564L19.2035 69.7281V68.0087L19.3975 66.2894L19.7854 64.7611L20.3673 63.2328L21.1432 61.8956L21.9191 60.9404L22.695 59.9852L23.6649 59.0301L24.8288 58.2659L25.4107 57.8838L25.7986 57.5018L26.1866 57.1197L26.3806 56.9287L26.5745 56.3555V56.1645V55.9735V55.5914L26.3806 55.4004L25.7986 54.8273L26.1866 54.2542Z" fill="#F3EA22"/>
<path fill-rule="evenodd" clip-rule="evenodd" d="M39.5709 40.1175L40.5407 39.1623L41.5106 38.3981L42.4805 37.634L43.6443 37.0609L44.8082 36.4878L45.972 36.2967L47.1359 36.1057H48.2997H49.4636L50.6274 36.2967L51.7913 36.4878L52.3732 36.6788L52.9551 36.8699L53.925 37.443L54.5069 37.634L55.0889 38.0161L56.0587 38.7802L57.0286 39.7354L57.8045 40.4995L58.3864 41.2637L59.5503 42.983L59.9382 43.9382L60.3262 44.8934L60.5202 45.8485L60.7141 46.9948V48.332V48.9051V49.6693L60.1322 50.0513V50.4334L59.9382 51.0065L59.5503 52.3438L58.9684 53.49L58.1925 54.6362L57.8045 55.2093L57.4166 55.7824L56.4467 56.9286L55.2828 57.8838L54.7009 58.2659L54.119 58.648L52.9551 59.2211L51.7913 59.7942L50.4335 60.1762L49.8515 60.3673H49.4636L49.2696 60.5583H47.9118H46.554L45.3901 60.3673L44.4202 60.1762L43.4504 59.7942L42.6745 59.4121L41.7046 58.839L40.7347 58.2659L39.9588 57.5017L39.1829 56.7376L38.213 55.7824L37.4371 54.8272L36.8552 53.8721L36.2733 52.9169L35.8853 51.7707L35.6914 50.6244L35.4974 49.4782V48.9051V48.332V47.1858L35.6914 46.0396L35.8853 44.8934L36.4673 43.9382L37.0492 42.983L37.8251 42.0278L38.601 41.0726L39.5709 40.1175ZM40.3468 40.8816L39.7648 41.4547L39.3769 42.0278L38.795 43.3651V43.9382V44.7023L38.9889 45.4665L39.1829 46.2306L39.7648 47.5679L40.7347 49.0962L41.8986 50.6244L42.6745 51.3886L43.6443 52.3438L44.6142 53.299L45.1961 53.681L45.7781 54.2541L46.7479 55.0183L47.7178 55.7824L48.4937 56.3555L49.4636 56.7376L50.2395 56.9286L50.6274 57.1197H50.8214L51.0154 57.3107H51.5973H52.3732L53.5371 57.1197L54.119 56.9286L54.7009 56.7376L54.8949 56.5466L55.0889 56.3555H55.2828L55.8648 55.9735L56.4467 55.4003L56.6407 55.0183L56.8346 54.8272L57.0286 54.6362L57.2226 54.2541L57.4166 53.8721L57.6105 53.299V52.3438V51.7707V51.5796V51.3886L57.4166 50.2424L56.2527 49.2872L55.6708 48.141L54.8949 46.9948L53.731 45.6575L52.5672 44.3203L51.0154 42.792L50.2395 42.2189L49.6576 41.6458L48.4937 40.6906L47.1359 40.1175L45.972 39.5444L45.0022 39.3533L44.0323 39.1623H43.2564L42.4805 39.3533L41.7046 39.7354L40.9287 40.1175L40.3468 40.8816Z" fill="#F3EA22"/>
<path fill-rule="evenodd" clip-rule="evenodd" d="M67.5033 34.3863L70.9948 39.7353L71.3828 40.3084V40.4995L71.5767 40.6905L71.7707 40.8815L72.1587 41.2636L72.3526 41.4546L72.5466 41.6457L73.1285 41.8367H73.7105L74.0984 41.6457L74.6803 41.4546L75.2623 41.2636L76.0382 40.8815L76.4261 41.4546L66.5334 47.5678L66.1454 46.9947L66.7274 46.6126L67.3093 46.2305L67.6972 45.8485L67.8912 45.6574L68.0852 45.0843V44.5112L67.8912 44.3202V44.1291L67.6972 43.9381V43.7471L67.5033 43.365L67.3093 43.174V42.9829L67.1153 42.6008L66.9213 42.2188L58.7744 29.6104L58.1925 28.8463L57.8045 28.2731L57.4166 27.8911L57.2226 27.7L57.0286 27.509H56.8346H56.4467H56.2527H55.8648L55.4768 27.7L54.313 28.4642L53.731 28.8463L53.3431 28.2731L61.878 22.9241L62.8479 22.16L63.8177 21.5869L64.7876 21.0138L65.7575 20.8227L66.5334 20.6317L67.3093 20.4407H68.0852L68.8611 20.6317H69.443L70.0249 20.8227L70.6069 21.0138L71.1888 21.3959L71.5767 21.7779L71.9647 22.16L72.3526 22.5421L72.7406 23.1152L73.3225 24.0704L73.7105 25.0255L73.9044 25.9807V27.1269L73.7105 28.2731L73.5165 28.6552L73.3225 29.2283L72.9346 29.6104L72.5466 30.1835L71.7707 31.1387L70.9948 31.7118L70.2189 32.4759L68.8611 33.4311L68.0852 34.0042L67.5033 34.3863ZM61.2961 25.0255L66.7274 33.2401L67.1153 33.049L67.5033 32.858L67.8912 32.4759V32.2849H68.0852L68.2792 32.0939L68.8611 31.5208V31.3297L69.0551 31.1387L69.249 30.7566L69.443 29.9925V29.4194V29.0373L69.249 28.4642V28.0821L69.0551 27.509L68.8611 26.9359L68.6671 26.7449H68.4731V26.5538L68.2792 26.3628L67.5033 25.4076L67.1153 25.0255L66.7274 24.6435L65.9515 24.0704L65.5635 23.8793H65.1756L64.3997 23.6883H64.0117L63.6238 23.8793L62.6539 24.0704L61.878 24.6435L61.2961 25.0255Z" fill="#F3EA22"/>
<path fill-rule="evenodd" clip-rule="evenodd" d="M83.0213 13.7545L86.5128 22.3512H86.9008L87.2887 21.9691L87.6767 21.778H87.8707V21.587H88.0646L88.4526 21.396L88.6466 21.0139H88.8405L89.0345 20.6318V20.4408L89.2285 20.2498L89.4225 19.8677V19.6767V19.4856V19.1035V18.5304V17.9573V17.3842V16.8111L89.2285 16.238L89.0345 15.6649L89.8104 15.4739L94.0779 26.5539L93.4959 26.936L92.914 25.9808L92.5261 25.2167L91.5562 24.0705L90.9743 23.6884L90.3923 23.3063H90.0044L89.4225 23.1153H89.0345H88.4526L87.6767 23.3063L86.9008 23.6884L89.2285 29.6105L89.4225 29.9926V30.1836L89.6164 30.3747L89.8104 30.9478L90.0044 31.5209L90.3923 31.7119L90.7803 31.903L91.1682 32.094H91.3622H91.7502H92.1381L92.5261 31.903L93.8839 31.3298L94.2718 31.1388L94.4658 30.9478L95.2417 30.7567L95.4357 30.3747H95.8237L96.4056 29.9926L96.5995 29.8016L96.9875 29.4195L97.3754 29.0374V28.8464H97.5694L97.7634 28.6553L98.1513 28.0822L98.3453 27.8912V27.7002V27.5091L98.7333 27.1271L98.9272 26.3629V25.9808V25.7898V25.4077L99.1212 25.0257V24.6436V24.4526V23.6884V22.9243L99.7031 22.7332L101.449 29.8016L82.8273 37.0609L82.6333 36.4878L83.2153 36.1057L83.9912 35.7237L84.3791 35.5326L84.5731 35.1506L84.7671 34.9595L84.961 34.7685V34.5775V34.3864V34.1954V34.0043L84.7671 33.4312L84.5731 32.8581L84.3791 32.285L78.7538 18.3394L78.5599 17.5753L78.3659 17.0021L78.1719 16.6201V16.429L77.59 16.047L77.396 15.8559H77.202L76.8141 15.6649L76.2322 15.8559H75.8442L75.2623 16.047L74.6804 16.238L74.2924 15.6649L92.5261 8.7876L94.8538 15.0918L94.2718 15.2828L93.4959 14.3276L92.914 13.5635L92.3321 12.9904L91.7502 12.6083L90.9743 12.2262L90.3923 12.0352L89.6164 11.8442L88.6466 12.0352H88.0646L87.2887 12.2262L86.3189 12.4173L85.349 12.9904L83.0213 13.7545Z" fill="#F3EA22"/>
<path fill-rule="evenodd" clip-rule="evenodd" d="M107.462 5.15778L121.234 17.3841L119.489 7.64125L119.295 6.68607L119.101 5.92193L118.713 5.34882V5.15778H118.519L117.937 4.77571L117.549 4.58468H117.355L116.385 4.39364L115.609 4.58468V4.01157L123.174 2.67432V3.43846L122.592 3.6295L122.01 3.82053L121.622 4.01157L121.234 4.2026L120.846 4.58468L120.652 5.15778V5.53986V6.11296V6.68607L120.846 7.45022L123.95 26.3628H123.368L104.746 10.1247L107.074 24.4524L107.268 25.2166L107.656 25.9807L107.85 26.5538L108.432 26.9359L108.82 27.1269L109.402 27.318H109.984H110.566L111.148 27.1269L111.342 27.7L103.195 29.0373L103.001 28.4642H103.195L103.389 28.2731H103.777L104.165 28.0821L104.553 27.8911L105.134 27.7L105.328 27.318H105.522L105.716 26.9359V26.7449V26.3628L105.91 26.1717V25.7897V25.4076V25.0255V24.6435L103.195 8.78747L102.613 8.21436L101.837 7.45022L101.255 7.25918L100.867 7.06814H100.479H99.8971L99.5092 7.25918V6.49504L107.462 5.15778Z" fill="#F3EA22"/>
<path fill-rule="evenodd" clip-rule="evenodd" d="M136.752 14.9007L136.17 21.778V22.5422V23.3063V23.6884V24.0705L136.558 24.4525L136.946 24.8346L137.14 25.0256H137.528L137.916 25.2167H138.498L139.274 25.4077V25.9808L127.054 25.2167V24.4525L128.023 24.6436L128.411 24.4525H128.799H129.187H129.381H129.575L129.769 24.0705H129.963L130.157 23.6884H130.351V23.4974V23.3063V22.9242V22.5422L130.545 22.1601V21.396L131.515 6.49515V5.73101L131.709 5.1579L131.515 4.58479V4.39376L131.321 3.82065L130.933 3.62961L130.157 3.24754L129.769 3.05651H129.381H128.605V2.4834L140.632 3.24754V3.82065H139.856L139.468 3.62961L138.886 3.82065L138.304 4.01169L137.916 4.20272L137.528 4.77583L137.334 4.96687V5.53997L137.14 6.11308V6.87723L136.752 13.3724L144.899 13.9456L145.287 7.45033V6.68619V6.30412L145.481 5.92205L145.287 5.53997V5.1579L145.093 4.96687V4.77583L144.511 4.39376L143.929 4.01169H143.541H143.154H142.378V3.24754L154.404 4.20272V4.77583L153.628 4.58479H153.046H152.658L151.882 4.96687L151.494 5.1579L151.3 5.73101L151.106 5.92205V6.30412L150.913 6.87723V7.83241L149.943 22.7332V23.4974V24.0705V24.6436V25.0256L150.137 25.4077L150.719 25.7898H150.913L151.3 25.9808H151.688L152.27 26.1719H152.852V26.936L140.826 25.9808V25.4077H141.602H141.99H142.572H142.96V25.2167H143.347V25.0256L143.735 24.8346V24.6436L143.929 24.4525L144.123 24.0705V23.6884V23.3063L144.317 23.1153V22.3511L144.899 15.2828L136.752 14.9007Z" fill="#F3EA22"/>
<path fill-rule="evenodd" clip-rule="evenodd" d="M167.982 24.6436L160.223 22.3511L158.672 24.2615L158.284 24.6436L158.09 25.0256L157.702 25.7898L157.508 26.1719V26.5539L157.702 26.936L157.896 27.3181L158.09 27.5091L158.478 27.7001L159.06 27.8912L159.835 28.2733L159.641 28.8464L152.27 26.745L152.464 26.1719H153.046H153.24H153.434H153.822L154.404 25.9808L154.986 25.7898L155.568 25.4077L156.344 24.8346L156.732 24.4525L157.12 24.0705L158.09 23.1153L171.474 8.02344L171.862 8.21447L174.384 28.4643L174.578 29.8015L174.771 30.9478L174.965 31.3298L175.159 31.7119L175.353 32.285L175.547 32.476L175.935 32.6671L176.323 32.8581L176.905 33.0492L176.711 33.6223L166.043 30.3746L166.237 29.8015L166.625 29.9926L167.206 30.1836L167.788 30.3746H168.176H168.37H168.564V30.1836H168.758L168.952 29.9926L169.146 29.8015V29.6105H169.34V29.2284V29.0374V28.8464V28.6553V28.4643V28.2733V27.7001L167.982 24.6436ZM167.788 23.3063L166.819 14.9007L161.193 21.396L167.788 23.3063Z" fill="#F3EA22"/>
<path fill-rule="evenodd" clip-rule="evenodd" d="M206.195 23.6883L202.316 30.7567L201.734 30.3746V28.8463V27.318L201.54 25.7897L201.152 24.4525L200.764 23.6883L200.376 23.1152L199.6 22.1601L198.63 21.2049L197.661 20.6318L196.497 20.0587L195.333 19.6766H194.169L193.199 19.8676L192.035 20.0587L190.871 20.6318L189.902 21.2049L189.126 22.1601L188.156 23.1152L187.186 24.0704L186.41 25.2166L185.828 26.3628L185.052 27.7001L184.47 29.2284L183.888 30.3746L183.694 31.7119L183.5 32.476V33.0491V34.1953L183.694 35.1505L183.888 35.7236L184.082 36.1057L184.664 37.0609L185.44 37.825L186.216 38.5891L187.186 39.1623L187.962 39.5443L188.738 39.9264L189.514 40.1174L190.483 40.3085L192.811 36.1057L193.199 35.5326L193.393 35.1505L193.587 34.7684V34.5774V34.0043L193.393 33.8132L193.199 33.4312L192.811 33.0491L192.229 32.476L191.647 32.285L192.035 31.7119L201.734 37.0609L201.54 37.634L200.958 37.4429L200.376 37.2519L199.988 37.0609H199.794H199.212L198.63 37.4429L198.436 37.634L198.242 37.825L198.049 38.2071L197.855 38.7802L195.527 42.983L194.169 42.7919L193.005 42.6009L190.677 42.0278L189.514 41.6457L188.35 41.0726L186.022 40.1174L184.664 39.1623L183.5 38.3981L182.531 37.4429L181.755 36.6788L180.979 35.7236L180.397 34.7684L179.427 32.8581L178.845 30.7567L178.651 29.6105L178.845 28.6553V27.318L179.233 26.1718L179.621 24.8346L180.203 23.6883L180.979 22.5421L181.561 21.5869L182.531 20.6318L183.306 19.8676L184.276 19.1035L185.44 18.5304L186.604 18.1483L187.768 17.7662L188.932 17.3842L190.096 17.1931H191.453L192.617 17.3842L193.975 17.5752L195.139 17.9573L196.303 18.3393L197.661 19.1035L199.018 19.8676L200.182 20.8228L200.57 21.0138L200.958 21.3959L201.346 21.969L201.928 22.5421L202.122 22.9242H202.316V23.1152H202.51L202.704 23.3063L202.898 23.6883H203.092V23.8794L203.286 24.0704H203.48L203.868 24.2614H204.256L204.838 23.8794L205.226 23.6883L205.614 23.3063L206.195 23.6883Z" fill="#F3EA22"/>
<path fill-rule="evenodd" clip-rule="evenodd" d="M217.834 35.1506L211.627 42.2189L212.015 42.41L212.791 42.9831L213.566 43.5562H214.536H215.312L216.088 43.1741L217.058 42.7921L217.834 42.2189L218.998 41.4548L219.386 41.8369L211.433 50.8156L210.851 50.2425L211.433 49.4783L211.821 48.7142L212.209 47.95L212.403 47.3769V46.6128L212.597 46.0397L212.403 45.4666V45.0845L212.209 44.8935L212.015 44.7024V44.5114V44.3203L211.821 44.1293L211.239 43.5562H211.045V43.3652L210.851 43.1741L206.389 47.95L205.807 48.5231L205.42 49.0962L205.226 49.4783L205.032 49.6694V49.8604L204.838 50.2425L205.032 50.8156L205.226 51.1976L206.001 51.7708L206.971 52.7259L207.553 53.299L208.135 53.6811L209.299 54.4453L210.657 54.8273L211.239 55.0184H211.821H212.985L214.342 54.8273L215.7 54.2542L216.282 53.8721L217.058 53.4901L217.446 53.8721L211.821 58.648L196.885 45.6576L197.273 45.0845L197.855 45.6576L198.048 45.8486L198.436 46.0397L199.212 46.4217H199.794L200.376 46.2307L200.57 46.0397L200.958 45.8486L201.346 45.2755L201.928 44.7024L212.015 33.6223L212.403 33.0492L212.791 32.6671L212.985 32.2851L213.179 32.094L213.373 31.5209V30.9478L213.179 30.5658L212.985 30.1837L212.791 29.8016L212.403 29.4195L211.821 29.0375L212.209 28.4644L226.757 41.0727L222.101 46.2307L221.713 45.8486L222.295 44.7024L222.683 43.7472L222.877 42.9831L223.071 42.2189L222.877 41.4548V41.0727V40.8817L222.489 40.1176L222.295 39.3534L221.907 39.1624V38.9713L221.519 38.5893V38.3982H221.325L221.132 38.2072L220.938 38.0162L220.55 37.6341L220.162 37.252L219.774 36.8699L217.834 35.1506Z" fill="#F3EA22"/>
<path fill-rule="evenodd" clip-rule="evenodd" d="M236.843 52.9169L232.188 70.3011L240.141 64.5701L240.917 63.8059L241.499 63.2328L241.693 62.8507L242.081 62.2776V61.8956V61.7045V60.9404L241.887 60.7493V60.5583L241.693 60.3673L241.499 60.1762V59.9852L241.111 59.6031L241.693 59.221L246.154 65.3342L245.766 65.7163L245.184 65.3342L244.796 64.9521L244.408 64.5701L244.215 64.379L243.827 64.188H243.633L242.857 64.379H242.469L242.081 64.7611L241.499 64.9521L240.917 65.5252L225.399 76.7964L225.011 76.4143L231.218 52.5348L219.386 61.3224L218.61 61.7045L218.222 62.2776L217.834 62.8507V63.6149V64.5701L218.028 65.1432L218.416 65.5252L218.804 66.0983L218.222 66.4804L213.372 59.9852L213.76 59.6031L214.342 60.1762H214.536V60.3673H214.73L214.924 60.7493L215.506 60.9404H215.7L215.894 61.1314H216.088H216.67L217.252 60.9404L217.834 60.7493L218.61 60.1762L231.8 50.6244L231.994 49.8603V49.2872L232.188 48.9051V48.523V48.141V47.7589L231.994 47.5678L231.8 47.1858L231.606 46.8037H231.412L231.994 46.4216L236.843 52.9169Z" fill="#F3EA22"/>
<path fill-rule="evenodd" clip-rule="evenodd" d="M249.258 121.881H248.288L247.706 122.072L246.93 122.454L246.542 123.027L245.96 123.6L245.572 124.173L245.378 124.937L245.184 125.893L245.378 126.657L245.572 127.421L245.96 127.994L246.542 128.567L246.93 129.14L247.706 129.522L248.288 129.713L249.258 129.904L250.034 129.713L250.81 129.522L251.392 129.14L252.167 128.567L252.361 128.376V128.185L252.555 127.994L252.943 127.421L253.137 126.657L253.331 126.275V126.084V125.893L253.137 124.937L252.943 124.173L252.555 123.6L252.167 123.027L251.392 122.454L250.81 122.072L250.034 121.881H249.258Z" fill="#F3EA22"/>
<path fill-rule="evenodd" clip-rule="evenodd" d="M239.753 106.216L238.783 107.171L238.007 108.126L237.231 109.272L236.649 110.419L236.262 111.565L236.068 112.711L235.874 114.048V115.386V116.723L236.068 118.06L236.262 119.206L236.456 119.779L236.649 120.353L237.231 121.499L238.007 122.645L238.783 123.6L239.753 124.555L240.723 125.319L241.693 126.084L242.857 126.657L244.021 127.23L245.184 127.612L246.348 127.994L247.706 128.185L249.064 128.376L250.422 128.185L251.78 127.994L252.943 127.612L254.107 127.23L255.271 126.657L255.853 126.275L256.047 126.084H256.241L256.629 125.893L257.211 125.51L257.793 125.128L258.375 124.746L258.957 124.364L259.345 123.791L259.733 123.218L260.12 122.645L260.508 122.072L260.896 121.499L261.284 120.926L261.866 119.779L262.06 119.206L262.254 118.633L262.642 117.487L262.836 116.15L263.03 114.812L262.836 113.475L262.642 112.138L262.254 110.992L261.866 109.846L261.284 108.699L260.702 107.553L259.927 106.598L259.151 105.643L258.181 104.688L257.211 103.923L256.047 103.159L254.883 102.586L253.719 102.204L252.555 102.013L251.198 101.822H249.84H248.482L247.124 102.013L245.96 102.204L244.796 102.586L243.633 103.159L242.469 103.923L241.499 104.688L239.753 106.216ZM240.917 115.577V113.857L241.499 112.329L242.275 110.992L243.439 109.846L244.602 108.699L245.96 107.935L246.736 107.553L247.512 107.362L249.258 107.171H250.034L250.81 107.362L251.586 107.553L252.361 107.935L252.943 108.126L253.719 108.508L254.301 109.081L254.883 109.655L255.465 110.228L256.047 110.801L256.823 112.138L257.211 113.666L257.405 115.386L257.211 116.15L257.017 116.914L256.823 117.678L256.629 118.442L256.241 119.015L256.047 119.397L255.853 119.588V119.779L255.271 120.353L254.689 120.926L254.107 121.499L253.525 122.072H253.331L253.137 122.263L252.749 122.454L252.167 122.836L251.392 123.027L250.616 123.218L249.84 123.409H249.064H248.288L247.512 123.218L246.736 123.027L245.96 122.836L244.602 122.072L244.021 121.499L243.439 120.926L242.857 120.353L242.275 119.779L241.887 119.015L241.693 118.442L241.305 117.678L241.111 116.914L240.917 116.15V115.577Z" fill="#F3EA22"/>
<path fill-rule="evenodd" clip-rule="evenodd" d="M16.2939 121.881H15.324L14.5481 122.072L13.9662 122.454L13.3842 123.027L12.8023 123.6L12.6083 124.173L12.2204 124.937V125.893V126.657L12.6083 127.421L12.8023 127.994L13.3842 128.567L13.9662 129.14L14.5481 129.522L15.324 129.713L16.2939 129.904L17.0698 129.713L17.8457 129.522L18.4276 129.14L19.0095 128.567L19.3975 128.376V128.185L19.5914 127.994L19.9794 127.421L20.1734 126.657V126.275V126.084V125.893H20.3673L20.1734 124.937L19.9794 124.173L19.5914 123.6L19.0095 123.027L18.4276 122.454L17.8457 122.072L17.0698 121.881H16.2939Z" fill="#F3EA22"/>
<path fill-rule="evenodd" clip-rule="evenodd" d="M6.7891 106.216L5.81923 107.171L5.04333 108.126L4.26743 109.272L3.87948 110.419L3.49153 111.565L3.29755 112.711L3.10358 114.048V115.386V116.723L3.29755 118.06L3.49153 119.206L3.6855 119.779L3.87948 120.353L4.4614 121.499L5.2373 122.645L5.81923 123.6L6.7891 124.555L7.75898 125.51L8.72885 126.275L9.8927 126.848L11.0566 127.421L12.2204 127.803L13.3843 128.185L14.7421 128.376L16.0999 128.567L17.4577 128.376L18.8156 128.185L19.9794 127.803L21.1433 127.421L22.3071 126.848L22.889 126.466L23.083 126.275H23.277L23.6649 126.084L24.2469 125.702L24.8288 125.319L25.4107 124.937L25.9926 124.555L26.3806 123.982L26.7685 123.409L27.1565 122.836L27.5444 122.263L27.9324 121.69L28.3203 121.117L28.9023 119.97L29.0962 119.397L29.2902 118.824L29.6782 117.678L29.8721 116.341L30.0661 115.004L29.0962 114.048L28.9023 112.711L28.5143 111.565L28.1264 110.419L27.5444 109.272L26.9625 108.126L26.1866 107.171L25.4107 106.216L24.4408 105.261L23.277 104.497L22.1131 103.732L20.9493 103.159L19.7854 102.777L18.6216 102.586H17.4577H16.0999H14.7421L13.3843 102.777L12.2204 102.968L11.0566 103.35L9.8927 103.923L8.72885 104.688L7.75898 105.452L6.7891 106.216ZM7.95295 115.577V113.857L8.53488 112.329L9.31078 110.992L10.4746 109.846L11.6385 108.699L12.9963 107.935L13.5782 107.744L14.3541 107.553L16.0999 107.362H16.8758L17.6517 107.553L18.4276 107.744L19.2035 108.126L19.7854 108.317L20.5613 108.699L21.1433 109.272L21.7252 109.846L22.3071 110.419L22.889 110.992L23.6649 112.329L24.0529 113.857L24.2469 115.577L24.0529 116.341L23.8589 117.105L23.6649 117.869L23.471 118.633L23.277 119.206L23.083 119.588L22.889 119.779V119.97L22.3071 120.544L21.7252 121.117L21.3372 121.69L20.5613 122.263H20.3674L20.1734 122.454L19.7854 122.645L19.2035 123.027L18.4276 123.218L17.6517 123.409L16.8758 123.6H16.0999H15.324L14.5481 123.409L13.5782 123.218L12.8023 123.027L11.4445 122.263L10.8626 121.69L10.2807 121.117L9.69873 120.544L9.1168 119.97L8.72885 119.206L8.53488 118.633L8.14693 117.869L7.95295 117.105L7.75898 116.15L7.95295 115.577Z" fill="#F3EA22"/>
</svg>
