<svg width="99" height="99" viewBox="0 0 99 99" fill="none" xmlns="http://www.w3.org/2000/svg">
<path fill-rule="evenodd" clip-rule="evenodd" d="M16.2939 39.7168V39.935H16.5849L16.8759 40.0077L17.0941 40.0805L17.3123 40.226L17.5305 40.4442L17.676 40.7351L17.7488 41.0261V41.1716V41.3898V54.9923V55.1378V55.2105V55.2833L17.676 55.4287L17.6033 55.5742L17.5305 55.7197H17.4578V55.7924L17.3851 55.8652L17.3123 55.9379L17.2396 56.0107L17.0941 56.0834L17.0214 56.1562L16.8759 56.2289H16.8031L16.7304 56.3016L16.5849 56.3744H16.4394H16.2939V56.5926H17.4578H18.5489H19.5673H20.5129H21.3858H22.1859H22.9133H23.6407H24.2227H24.8046H25.241H25.6775H26.0412H26.3322H26.5504H26.6959H26.9868H27.2778H27.5687H27.8597L28.4416 56.5199L28.5871 56.4471H28.6599H28.7326L29.0236 56.3744L29.2418 56.3016L29.5327 56.2289L29.8237 56.0107L29.9692 55.9379L30.1147 55.8652L30.6238 55.5742L31.133 55.2833L31.2058 55.2105L31.2785 55.1378L31.4967 54.9923L31.6422 54.7741L31.8604 54.6286L32.1514 54.2649L32.4424 53.9012L32.5151 53.7557V53.683L32.5878 53.6102L32.7333 53.392L32.8061 53.2465V53.1738L32.8788 53.101L33.0243 52.8828L33.2425 52.4464L33.3153 52.2282L33.388 52.0099L33.4607 51.5008L33.5335 50.9916V50.4824L33.2425 50.1914L33.1698 49.755L33.0243 49.3185L32.8061 48.8821L32.5878 48.4456L32.2241 48.0092L31.8604 47.5728L31.424 47.2091L30.9876 46.9181L30.5511 46.4816L29.9692 46.1907L29.3873 45.9725L28.7326 45.827L29.0236 45.6088V45.536H29.0963L29.169 45.4633L29.3145 45.3905L29.6055 45.1723L29.8964 44.9541L30.1147 44.7359L30.3329 44.5177L30.4784 44.2267L30.6238 44.0085L30.6966 43.7175L30.7693 43.4265L30.8421 43.1356V42.8446V42.5537L30.7693 42.2627L30.6966 41.9717L30.6238 41.7535L30.4056 41.4625L30.1874 41.1716L29.9692 40.9534L29.8237 40.8079L29.5327 40.5897L29.169 40.3714L28.8053 40.226L28.4416 40.0805L27.9324 39.8622L27.4233 39.7168H26.9141L26.3322 39.644L25.6775 39.5713H25.0228H24.3682L23.6407 39.644H23.4953H23.277H23.0588H22.9133H22.7679H22.4769H22.1132H21.7495H21.5313H21.313H20.8039H20.2947H19.7128H19.1308H18.4762H17.7488H17.0214H16.2939V39.7168ZM27.1323 41.608L27.3505 41.7535L27.496 41.9717L27.6415 42.19L27.787 42.4082L27.8597 42.6264L27.9324 42.8446V43.0628V43.3538L27.787 43.863L27.7142 43.9357V44.0085L27.6415 44.1539L27.5687 44.3722L27.4233 44.5904L27.2778 44.8086L26.8413 45.2451L26.5504 45.4633L26.2594 45.6088L26.1139 45.6815L25.9685 45.7542L25.6775 45.827L25.3865 45.8997L25.0956 45.9725L24.7319 46.0452H24.5136H24.3682H20.8039V40.8079H24.2954H24.7319L25.1683 40.8806L25.6047 40.9534L25.9685 41.0261L26.3322 41.0988L26.6231 41.2443L26.9141 41.3898L27.1323 41.608ZM20.7311 47.0636H24.8773H25.4593L25.9685 47.1363L26.4776 47.2091L26.9141 47.3545L27.3505 47.5728L27.787 47.791L28.1507 48.0819L28.5144 48.3729L28.8053 48.6639L29.0236 48.9548L29.2418 49.2458L29.46 49.6095L29.5327 49.9732L29.6055 50.3369L29.6782 50.7733V51.2098V51.2825V51.3553V51.6462L29.6055 52.0827L29.5327 52.4464L29.3873 52.8101L29.169 53.101L29.0963 53.2465L29.0236 53.4647L28.8053 53.7557L28.6599 53.8285L28.5871 53.9012L28.4416 54.0467L28.2234 54.1922L28.0779 54.3376L27.7142 54.6286L27.496 54.7013L27.4233 54.7741L27.3505 54.8468L26.9141 55.065L26.4776 55.1378L26.2594 55.2105H26.1139L26.0412 55.2833L25.532 55.356H25.241H25.0228L24.9501 55.2833H24.8773H24.7319H24.5864H24.3682H24.1499H23.9317H23.7135H23.1316H22.7679H22.4042H21.9677H21.5313H20.5856V47.0636H20.7311Z" fill="#F3EA22"/>
<path fill-rule="evenodd" clip-rule="evenodd" d="M71.2131 39.644V39.7168H67.2124V39.8623L67.5034 39.935H67.7216L67.9398 40.0805L68.158 40.226L68.2308 40.2987L68.3763 40.4442L68.5217 40.6624L68.5945 40.9534V41.1716L68.6672 41.3171V54.9196L68.5945 55.0651V55.2105V55.356L68.5217 55.5015V55.647L68.449 55.7925L68.3763 55.8652L68.3035 56.0107L68.158 56.0834L68.0853 56.1562L67.9398 56.2289H67.7943L67.6488 56.3016H67.5034L67.3579 56.3744H67.2851H67.2124V56.5199H71.2131V56.5926H83.1426V50.046H82.8516H82.7789V50.1187V50.1914V50.3369V50.6279V51.2098V51.719V52.1554L82.7062 52.5919V52.7374V52.9556L82.6334 53.1738V53.3193V53.4648L82.4879 53.7557L82.4152 53.9739L82.197 54.1922L82.0515 54.4104L81.8333 54.5559L81.7605 54.6286H81.6878H81.615H81.5423H81.4696V54.7014H81.3968H81.2513H81.1059H71.7223L71.5768 54.1194V46.7726H75.7231H76.1595L76.5959 46.8454H76.9596L77.3234 46.9908L77.6143 47.0636L77.9053 47.2818L78.1962 47.4273L78.4145 47.6455L78.6327 47.8637L78.7782 48.082L78.9236 48.3729L78.9964 48.7366L79.0691 49.0276L79.1419 49.3913V49.8277V50.2642H79.4328V44.5904L79.3601 44.7359L79.2873 44.8086L79.1419 45.0269L78.9964 45.1723L78.9236 45.2451L78.7054 45.3906L78.5599 45.4633L78.4872 45.536L78.1962 45.6088L77.8325 45.6815H77.6871H77.4688H71.5768V41.3171L71.7223 40.7352H79.5056H79.8693L80.3057 40.8079H80.6694L80.9604 40.9534L81.3241 41.0261L81.5423 41.1716L81.8333 41.3171L82.0515 41.4626L82.2697 41.608L82.4152 41.8263L82.5607 42.1172L82.6334 42.3354L82.7062 42.6264L82.7789 42.9174L82.8516 43.2083V43.6448H83.2153V39.644H71.2131Z" fill="#F3EA22"/>
<path fill-rule="evenodd" clip-rule="evenodd" d="M57.1014 65.0303V64.8848H51.2822V65.0303H51.5004L51.7914 65.103L52.0096 65.2485L52.2278 65.394L52.3005 65.4667L52.3733 65.5394L52.5915 65.8304L52.6642 66.1214V66.3396V66.4851V70.995H44.6628V66.4851V66.1214L44.8083 65.8304L44.9537 65.5394L45.172 65.394L45.3174 65.2485L45.5357 65.103L45.8266 65.0303H46.1176V64.8848H40.2983V65.0303H40.5893L40.8075 65.103L41.0257 65.2485L41.244 65.394L41.3167 65.4667L41.4622 65.5394L41.6077 65.8304L41.6804 66.1214V66.3396L41.7532 66.4851V80.0876H41.6804V80.233V80.3785L41.6077 80.524V80.6695L41.5349 80.815L41.4622 80.8877L41.3894 81.0332L41.3167 81.1059L41.244 81.1787L41.0985 81.2514L41.0257 81.3242H40.953V81.3969H40.8803H40.7348L40.5893 81.4696H40.4438H40.3711H40.2983V81.5424V81.6879H46.1176V81.5424L45.7539 81.4696L45.4629 81.3969L45.172 81.2514L45.0265 81.1059L44.9537 81.0332L44.881 80.8877L44.7355 80.6695L44.6628 80.3785V80.0876V72.0861H52.6642V80.0876V80.233V80.3785L52.5915 80.524V80.6695L52.5188 80.815L52.446 80.8877L52.3733 81.0332L52.3005 81.1059L52.2278 81.1787L52.0823 81.2514L51.9368 81.3242V81.3969H51.8641H51.7186L51.5731 81.4696H51.4277H51.3549H51.2822V81.5424V81.6879H57.1014V81.5424L56.7377 81.4696L56.5922 81.3969H56.4468L56.2285 81.2514L56.0103 81.1059L55.9376 81.0332L55.8648 80.8877L55.7194 80.6695L55.6466 80.3785V80.0876V66.4851V66.1941L55.7194 65.8304L55.8648 65.6122L56.0103 65.394L56.2285 65.2485L56.4468 65.103L56.7377 65.0303H57.1014Z" fill="#F3EA22"/>
<path fill-rule="evenodd" clip-rule="evenodd" d="M56.5923 20.0766V20.2948L56.5195 20.5131V20.6585L56.4468 20.804L56.374 20.9495H56.3013V21.0222L56.2286 21.095L56.1558 21.1677H56.0831H55.9376H55.8648H55.7921H55.6466L55.5011 21.095H55.3557L55.1374 21.0222L54.9192 20.9495L54.4828 20.804L54.1191 20.6585L53.8281 20.5131L53.6099 20.4403L53.3917 20.3676L53.1734 20.2948L53.028 20.2221H52.9552L52.2278 20.0039L51.5004 19.8584L50.8457 19.7856H50.1911H49.1727L48.2998 19.8584L47.3542 20.0039L46.554 20.2221L46.1176 20.2948L45.6812 20.4403L44.9538 20.804L44.2263 21.1677L43.5717 21.5314L42.8443 22.1133L42.4806 22.4043L42.1896 22.768L41.8259 23.059L41.6077 23.4227L41.1712 24.2228L40.953 24.6593L40.8075 25.0957L40.5893 25.9686L40.4438 26.9142L40.3711 28.0053V28.5145L40.4438 29.0964V29.6056L40.5893 30.1876L40.6621 30.624L40.8075 31.1332L40.953 31.5696L41.1712 32.0788L41.3895 32.4425L41.6077 32.879L41.8986 33.2427L42.1896 33.6791L42.4806 33.9701L42.8443 34.3338L43.208 34.6247L43.6444 34.9884L44.2991 35.4249L45.0265 35.7886L45.7539 36.0795L46.554 36.3705L47.4269 36.5887L48.2998 36.7342L49.1727 36.8069L50.1911 36.8797L50.7003 36.8069L51.2822 36.7342L51.8641 36.5887L52.446 36.4432L54.1918 35.7158L54.5555 35.5704L54.9192 35.4976H55.0647H55.2102L55.5011 35.5704L55.7921 35.7158L56.0831 36.0068L56.3013 36.3705L56.4468 36.5887L56.5923 36.8797H56.956V30.624H56.5923L56.4468 31.0604V31.1332H56.374V31.2787L56.3013 31.4969L56.0831 32.0061L55.7921 32.4425L55.4284 32.8062L55.2829 33.0244L55.0647 33.2427L54.6283 33.6791L54.41 33.8973L54.2646 34.1155L53.6826 34.4793L53.2462 34.843L52.9552 34.9157L52.737 35.0612L52.2278 35.3521L51.7186 35.4976L51.2094 35.6431H50.9185L50.7003 35.7158H50.1911H49.5364L49.0272 35.6431L48.4453 35.4249L47.8634 35.2794L47.3542 34.9884L46.845 34.6975L46.4086 34.3338L45.9721 33.8973L45.6812 33.6064L45.4629 33.3154L45.0992 32.6607L44.7355 32.0061L44.5173 31.3514L44.2991 30.5513L44.1536 29.7511L44.0081 28.8782V28.0053V27.2779L44.0809 26.696L44.2263 26.0413L44.4446 25.4594L44.6628 24.8775L44.9538 24.2956L45.2447 23.7136L45.6812 23.2045L46.1176 22.6225L46.6268 22.1861L47.136 21.7496L47.7179 21.4587L48.2998 21.1677L48.8817 21.0222L49.5364 20.8768H50.1911H50.9185L51.5732 21.0222L52.3006 21.1677L52.5915 21.2405L52.8825 21.3859L53.5371 21.6769L54.0463 22.0406L54.6283 22.4043L54.8465 22.6953L55.1374 22.9135L55.4284 23.2772L55.7194 23.7136L56.0103 24.1501L56.2286 24.5865V24.6593L56.3013 24.8047L56.374 24.9502L56.5195 25.3867L56.5923 25.6776V26.0413L56.956 25.9686V20.1493L56.5923 20.0766Z" fill="#F3EA22"/>
<path fill-rule="evenodd" clip-rule="evenodd" d="M68.3035 57.756L67.5761 57.6106L66.9214 57.5378H66.2667L65.6848 57.6106L65.1029 57.756L64.5937 57.9743L64.0118 58.2652L63.5753 58.6289L63.2116 58.9199L62.9207 59.2836L62.7024 59.6473L62.557 60.0837L62.3387 60.5202L62.266 61.0294L62.1933 61.5386V62.1205L53.1734 53.3916L50.2638 56.374H52.6642L61.1749 64.4482L60.302 64.8119L59.8656 64.9574L59.5019 65.1756L58.9199 65.5393L58.629 65.6848L58.4107 65.8302L58.047 66.0485L57.7561 66.3394L57.5379 66.6304L57.4651 66.9941V67.2851V67.6488L57.5379 68.0125L57.7561 68.4489L57.8288 68.5216L57.9016 68.5944L58.1198 68.7399H58.1925H58.2653H58.4107L58.4835 68.6671L58.5562 68.5944L58.8472 68.3034L59.2109 68.0125L59.5746 67.7942L60.011 67.6488L60.3747 67.576L60.8112 67.5033H61.2476L61.7568 67.576L62.1933 67.6488L62.7024 67.7942L63.2116 68.0125L63.7936 68.3034L64.3755 68.5944L64.9574 68.9581L65.5393 69.3945L66.194 69.831L66.7759 70.2674L67.3578 70.7039L67.9398 71.0676L68.5217 71.3585L69.1036 71.6495L69.6855 71.8677L70.2675 72.0132L70.9221 72.1587H71.2131L71.5041 72.2314H71.795H71.9405H72.086L72.3769 72.1587H72.6679L73.1771 72.0859L73.6863 71.9405L73.759 71.8677H73.8318L73.9772 71.795L74.1955 71.7222L74.4137 71.5768L74.6319 71.4313L75.0683 71.1403L75.1411 70.9948L75.2138 70.9221L75.2866 70.8494L75.5048 70.6311L75.6503 70.5584L75.723 70.4129L75.7958 70.3402L75.8685 70.2674L76.014 69.9765L76.1595 69.7582L76.2322 69.4673L76.3049 69.3218L76.3777 69.1763V69.0308L76.4504 68.8854V68.7399L76.5232 68.5944V68.3034L76.5959 68.0125V67.6488V67.3578L76.5232 66.9941V66.9214V66.8486V66.7031L76.3777 65.9757L76.1595 65.2483L75.8685 64.5209L75.5775 63.7935L75.1411 63.0661L74.7046 62.4114L74.1955 61.7568L73.6135 61.1021L72.9589 60.4474L72.3769 59.8655L71.7223 59.3563L71.0676 58.9199L70.3402 58.4834L69.9765 58.2652L69.6855 58.1925L68.9581 57.9015L68.3035 57.756ZM65.6848 60.8839L65.903 60.6657L66.194 60.5202L66.485 60.3747L66.8487 60.302H67.1396H67.5033L67.867 60.3747L68.3035 60.4474L69.1036 60.7384L69.9038 61.1748L70.7039 61.7568L71.0676 62.1205L71.4313 62.5569L71.7223 62.9206L72.0132 63.3571L72.3042 63.7935L72.5952 64.23L72.8134 64.6664L73.0316 65.1028L73.1771 65.5393L73.3226 65.9757L73.3953 66.4122V66.6304V66.8486V67.2123L73.3226 67.3578V67.4305V67.5033L73.2498 67.576V67.6488L73.1771 67.7942L73.0316 68.0852L72.9589 68.2307L72.8861 68.3762L72.6679 68.5944L72.5224 68.6671L72.3769 68.7399L72.086 68.8854L71.9405 68.9581H71.8678L71.795 69.0308L71.6495 69.1036H71.5041H71.2858H71.1404H70.7767L70.5584 69.0308H70.4857H70.413H70.3402L69.9038 68.9581L69.4673 68.8126L69.1036 68.5944L68.7399 68.3762L68.3762 68.1579L67.9398 67.867L67.5761 67.576L67.2124 67.2123L66.8487 66.8486L66.194 66.0485L65.6848 65.2483L65.3211 64.3754L65.1756 63.939L65.1029 63.5026L65.0301 63.0661V62.7024V62.3387L65.1029 62.0477L65.1756 61.7568L65.3211 61.4658L65.5393 61.1748L65.6848 60.8839Z" fill="#F3EA22"/>
<path fill-rule="evenodd" clip-rule="evenodd" d="M26.1139 28.2962L22.6951 24.7319L22.7679 35.643L23.1316 35.7158L32.6606 38.6254L44.8083 51.1368L47.7906 48.2272L45.9721 46.5541L45.8266 46.4086V46.4814H43.7899L26.1139 28.2962ZM24.8046 30.5512L29.6782 35.5703L24.8046 34.1155V30.5512Z" fill="#F3EA22"/>
<path fill-rule="evenodd" clip-rule="evenodd" d="M75.3593 35.5703L75.4321 24.6592L54.3373 46.4086H52.3005L52.2278 46.3359L52.1551 46.4086L35.8612 61.8296L35.7884 61.2477L35.7157 60.7385L35.6429 60.3021L35.4975 59.8656L35.2792 59.4292L35.061 59.0655L34.7701 58.7018L34.4791 58.4108L34.0427 58.0471L33.5335 57.7562L33.2425 57.6107L32.9515 57.5379L32.7333 57.4652L32.4424 57.3925L31.8604 57.3197H31.2058L30.5511 57.3925L30.1874 57.4652L29.8237 57.6107L29.0963 57.8289L28.3689 58.1199L27.6415 58.4836L26.9868 58.92L26.3321 59.3565L25.6775 59.8656L25.0956 60.4476L24.5136 61.1022L23.9317 61.7569L23.4225 62.4116L22.9861 63.0662L22.6224 63.7936L22.2587 64.521L22.0404 65.2484L21.8222 65.9759L21.6767 66.7033L21.604 67.4307V67.7216V68.0853L21.6767 68.74L21.8222 69.3219L22.0404 69.9038L22.1859 70.1221L22.3314 70.413L22.4769 70.6313L22.6951 70.8495L23.1316 71.2859L23.4953 71.5769L23.9317 71.8678L24.3681 72.0861L24.7319 72.0133L25.241 72.0861L25.823 72.1588H26.4049L27.0596 72.0861L27.6415 71.9406L28.2234 71.7951L28.5144 71.6496L28.5871 71.5769H28.6598L28.8053 71.5041L29.3873 71.2132L29.9692 70.9222L30.5511 70.5585L31.133 70.1221L31.7149 69.6856L32.3696 69.2492L32.9515 68.8127L33.5335 68.449L33.8244 68.3036L34.1154 68.1581L34.6973 67.8671L35.2065 67.6489L35.7157 67.5034L35.9339 67.4307H36.2249L36.6613 67.3579H37.0978L37.5342 67.4307L37.9706 67.5034L38.3343 67.6489L38.6981 67.8671L39.0618 68.1581L39.4255 68.449L39.4982 68.5218L39.5709 68.5945H39.6437H39.7892L39.8619 68.5218H40.0074L40.1529 68.449L40.2256 68.3763L40.2983 68.2308L40.4438 67.7944L40.5166 67.4307V67.067L40.4438 66.776L40.2983 66.485L40.2256 66.1941L40.0074 65.9031L39.7164 65.6849L39.1345 65.3212L38.8435 65.1757L38.5526 65.0302L37.8252 64.7393L37.4615 64.5938L37.025 64.4483L45.5357 56.3741H48.4453V56.2286L48.518 56.3014L52.2278 52.5188L65.6121 38.6981L75.1411 35.7885H75.2138L75.3593 35.5703ZM73.2498 33.97L68.3762 35.4248L73.3226 30.4057L73.2498 33.97ZM29.751 60.3021L30.1874 60.2293L30.5511 60.1566H30.9148H31.2785L31.5695 60.2293L31.7149 60.3021L31.8604 60.3748L32.1514 60.5203L32.4424 60.7385L32.6606 60.9568L32.8788 61.2477L33.0243 61.5387L33.097 61.8296L33.1698 62.1206V62.4843V62.848L33.097 63.2845L33.0243 63.7209L32.8788 64.0119L32.8061 64.0846V64.2301L32.5878 64.6665L32.3696 65.103L32.1514 65.4667L31.8604 65.9031L31.5695 66.3396L31.2058 66.776L30.8421 67.1397L30.4784 67.5034L30.2601 67.6489L30.0419 67.7944L29.6782 68.0853L29.2418 68.3036H29.0963L28.8781 68.449L28.6598 68.5218L28.4416 68.5945L28.0052 68.74L27.6415 68.8855L27.2778 68.9582H26.9141H26.5504L26.1867 68.8855L25.8957 68.8127L25.6047 68.6673L25.3865 68.3763L25.1683 68.1581L24.9501 67.8671L24.8773 67.6489L24.7319 67.2852L24.6591 66.9215V66.5578V66.1941L24.7319 65.7576L24.9501 64.8847L25.3138 64.0846L25.823 63.2845L26.4776 62.4843L26.8413 62.1206L27.205 61.7569L28.0052 61.175L28.8053 60.7385L29.2418 60.5203L29.751 60.3021Z" fill="#F3EA22"/>
<path fill-rule="evenodd" clip-rule="evenodd" d="M9.67456 64.0847V64.6667V64.8121V64.9576V65.1759L9.60182 65.3941V65.6123L9.52908 65.685V65.7578V65.8305L9.45634 65.9033L9.31085 66.1215V66.1942L9.23811 66.267L9.09263 66.4124L8.94715 66.5579L8.72893 66.7034L8.58345 66.8489L8.43797 66.9216L8.36523 66.9944L8.29248 67.0671H8.00152H7.7833H7.56508H7.34686L6.91041 66.9216L6.69219 66.8489L6.47397 66.7034L6.18301 66.4852L5.96478 66.267L5.74656 65.976L5.52834 65.685L5.31012 65.3213L5.16464 64.9576L5.01916 64.5939L4.87368 64.1575L3.63708 60.0113L3.85531 59.9385L3.92805 60.1567L4.00079 60.375L4.07353 60.5205L4.14627 60.6659L4.36449 60.8114L4.58271 60.8842H4.72819H4.80093H4.94642L5.01916 60.8114H5.16464L5.4556 60.7387L10.8384 59.1384L11.1294 59.0656L11.3476 58.9929L11.4931 58.9202L11.6386 58.8474L11.7113 58.7747L11.784 58.7019L11.8568 58.5565V58.4837L11.9295 58.411V58.2655V58.1928V58.12L11.8568 57.9018L11.784 57.7563V57.6108L12.0023 57.5381L13.1661 61.5388L13.2388 61.9025L13.3116 62.1935L13.3843 62.4845L13.4571 62.7754V62.9936V63.0664V63.2119V63.4301V63.6483V64.012H13.3843V64.0847L13.3116 64.2302L13.1661 64.5212L13.0934 64.6667L13.0206 64.8121L12.8024 65.0304L12.6569 65.1031L12.5842 65.1759L12.5114 65.2486H12.4387L12.366 65.3213V65.3941L12.075 65.4668L11.784 65.5396H11.4931L11.1294 65.4668L10.8384 65.3941L10.5474 65.1759L10.402 65.0304L10.2565 64.8849L10.0383 64.7394L9.89278 64.5212L9.67456 64.0847ZM9.16537 61.757L9.31085 62.1207L9.45634 62.4845L9.60182 62.7754L9.7473 62.9936L9.89278 63.1391L10.111 63.2846L10.3292 63.3573L10.5474 63.4301H10.7657H10.9839H11.2021L11.4931 63.3573L11.7113 63.2846L11.784 63.2119H11.8568L12.0023 63.1391L12.2205 62.9936L12.2932 62.9209L12.366 62.8482H12.4387L12.5114 62.7754L12.5842 62.7027L12.6569 62.6299L12.7297 62.5572L12.8024 62.339L12.8751 62.1207V62.048V61.9753V61.8298V61.6843V61.5388L12.8024 61.3206V61.2479V61.1751V61.1024L12.7297 60.8842L12.6569 60.6659L9.16537 61.757ZM8.65619 61.9025L5.96478 62.7027L5.67382 62.7754L5.52834 62.8482L5.38286 62.9209L5.16464 63.1391L5.0919 63.3573L5.16464 63.6483L5.23738 63.8665L5.38286 64.0847L5.52834 64.303L5.74656 64.5212L5.89204 64.6667L6.11027 64.7394L6.32849 64.8121L6.54671 64.9576H6.76493H6.98315H7.20138L7.49234 64.8849L7.7833 64.7394L8.07426 64.5939L8.29248 64.4484L8.51071 64.303L8.65619 64.0847L8.72893 63.9393L8.80167 63.8665L8.87441 63.6483L8.94715 63.4301V63.2846V63.1391V62.9936V62.8482L8.80167 62.5572L8.72893 62.339V62.2662V62.1935V62.1207L8.65619 61.9025Z" fill="#F3EA22"/>
<path fill-rule="evenodd" clip-rule="evenodd" d="M16.7304 69.5401L16.9486 69.9765L17.1668 70.413L17.3123 70.8494L17.385 71.2859L17.4578 71.7223V72.1587L17.385 72.5952L17.3123 73.0316L17.1668 73.4681L16.9486 73.9045L16.7304 74.2682L16.5121 74.6319L16.3667 74.7774L16.2212 74.9229L16.0757 75.0684L15.9302 75.2138L15.5665 75.5048L15.3483 75.6503H15.2756L15.2028 75.723L15.1301 75.7958L14.9119 75.8685L14.8391 75.9413L14.7664 76.014L14.4027 76.1595L14.039 76.305L13.6753 76.3777L13.3116 76.4504H12.9479H12.5842H12.2204L11.7113 76.305L11.2748 76.1595L10.8384 75.9413L10.4019 75.723L9.96549 75.3593L9.60179 74.9956L9.23808 74.5592L8.94712 74.1227L8.65616 73.6136L8.43794 73.1044L8.29245 72.5952L8.21971 72.086L8.14697 71.5768L8.21971 71.0676L8.29245 70.5584L8.43794 70.122L8.58342 69.7583L8.80164 69.3946L9.01986 69.1036L9.31082 68.8127L9.89275 68.2307L10.1837 68.0125L10.5474 67.7943L10.9839 67.5761L11.4203 67.3579L11.8567 67.2124L12.2932 67.1396L12.7296 67.0669H13.1661L13.6025 67.1396L14.039 67.2851L14.4754 67.4306L14.9119 67.6488L15.2756 67.867L15.6393 68.158L15.9302 68.449L16.2212 68.8127L16.5121 69.1764L16.7304 69.5401ZM16.3667 69.831L16.1484 69.5401L16.003 69.3946L15.7847 69.1764L15.5665 69.1036L15.2756 68.9582L14.9846 68.8854L14.6936 68.8127H14.4027H14.1117L13.8207 68.9582L13.5298 69.0309L13.1661 69.1036L12.8024 69.2491L12.4387 69.3946L12.075 69.6128L11.7113 69.831L11.2748 70.122L10.8384 70.413L10.4747 70.7039L10.1837 70.9949L9.89275 71.2859L9.67453 71.5768L9.4563 71.8678L9.31082 72.2315L9.16534 72.6679V73.1044L9.23808 73.5408L9.4563 73.9773L9.60179 74.1955L9.82001 74.4137L10.0382 74.6319L10.2565 74.7774L10.5474 74.8501L10.9111 74.9229H11.3476L11.784 74.8501L12.2204 74.7047L12.8024 74.4864L13.3843 74.1955L14.039 73.9045L14.4027 73.6863L14.7664 73.4681L15.3483 73.0316L15.5665 72.8134L15.7847 72.5952L16.1484 72.2315L16.3667 71.8678L16.5849 71.5768L16.7304 71.2131L16.8031 70.9221V70.6312V70.3402L16.7304 70.0493L16.3667 69.831Z" fill="#F3EA22"/>
<path fill-rule="evenodd" clip-rule="evenodd" d="M12.6569 79.724L12.8024 79.5785L13.0206 79.7967L13.1661 79.9422L13.3116 80.015L13.5298 80.1604H13.748H13.8208H13.9663V80.0877H14.039L14.1845 80.015L14.4027 79.8695L14.6209 79.6513L18.7671 75.7233L18.9854 75.505L19.2036 75.3596L19.2763 75.2141L19.3491 75.1413V74.9231V74.8504V74.7776V74.7049V74.6321L19.2036 74.3412L19.1308 74.1957L19.0581 74.0502L18.8399 73.832L19.0581 73.6865L21.7495 76.5234L21.9677 76.8144L22.1859 77.1053L22.4042 77.3963L22.6224 77.6873L22.7679 77.9055L22.8406 78.051L22.9134 78.1964L23.0588 78.4147L23.2043 78.7056L23.2771 78.9966L23.3498 79.2875L23.4225 79.8695L23.3498 80.4514L23.2771 80.7424L23.2043 81.1061L23.0588 81.397L22.9861 81.688L22.6951 82.1972L22.3314 82.7064L21.895 83.2155L21.5313 83.5065L21.3131 83.652L21.1676 83.7975L20.8039 84.0157L20.4402 84.2339L20.0765 84.3794L19.7128 84.4521L19.3491 84.5249L19.0581 84.5976H18.6944L18.4034 84.5249L17.7488 84.3794L17.5305 84.3067L17.3851 84.2339L17.0941 84.0157L16.7304 83.652L16.5849 83.5792L16.3667 83.4338L16.2212 83.361L16.1485 83.2883L16.0757 83.2155L15.9302 83.1428L15.8575 83.0701L15.6393 82.8518L15.5665 82.7791L15.4938 82.7064L15.3483 82.5609L12.6569 79.724ZM20.8766 76.4507L15.9302 81.1061L15.712 81.2515L15.6393 81.3243L15.5665 81.397L15.4938 81.4698V81.5425L15.4211 81.688V81.8335L15.4938 82.0517L15.712 82.2699L16.0757 82.6336L16.294 82.7791L16.5122 82.8518L16.7304 82.9246L16.9486 82.9973H17.1668H17.4578L17.7488 82.9246L18.0397 82.8518L18.3307 82.7064L18.6944 82.5609L18.9854 82.3427L19.3491 82.0517L19.7128 81.7607L20.0765 81.4698L20.5856 80.8878L21.0221 80.3059L21.2403 80.015L21.3858 79.724L21.604 79.2148L21.6768 78.7784L21.7495 78.4147V78.051L21.6768 77.6873L21.604 77.5418L21.5313 77.3963L21.4585 77.3236L21.3858 77.2508L21.3131 77.1053L21.2403 77.0326L21.1676 76.9599L21.0221 76.8144L20.8766 76.5961V76.4507Z" fill="#F3EA22"/>
<path fill-rule="evenodd" clip-rule="evenodd" d="M32.2969 84.961L32.2241 85.1792L31.7877 85.0337H31.4967H31.3512H31.2058L31.0603 85.1065L30.8421 85.1792L30.6238 85.2519L30.4056 85.3247L30.1147 85.4702L29.8237 85.6156L26.5504 87.2159L25.3865 88.9617L25.1683 89.1799L25.0956 89.3254V89.4709H25.0228L24.9501 89.5436V89.6891V89.8346L25.0228 90.0528L25.1683 90.271L25.3865 90.4893L25.823 90.7802L25.6775 90.9985L21.604 88.2343L21.7495 88.0161L22.1132 88.3071L22.2587 88.3798L22.4041 88.4525L22.5496 88.5253H22.7679H22.9133L23.1316 88.4525L23.2043 88.3798L23.277 88.2343L23.4225 88.0161L23.6407 87.7979L24.5864 86.3431L24.9501 82.1241V81.8331L25.0228 81.5422V81.324V81.1057V80.8875V80.742L24.9501 80.5965L24.8046 80.3056L24.6591 80.1601L24.5864 80.0146L24.6591 79.8691L28.1507 82.1968L28.0052 82.3423L27.8597 82.2696L27.7142 82.1241L27.5687 82.0514H27.4233H27.3505H27.205L27.0596 82.1241L26.9868 82.2696V82.5605L26.9141 82.9242L26.8413 83.4334L26.5504 86.634L29.3145 85.3247L29.8237 85.1065L29.9692 85.0337L30.1147 84.961L30.4056 84.7428L30.5511 84.5973V84.4518V84.3791V84.3063L30.4784 84.2336V84.1608L30.4056 84.0881L30.3329 84.0154L30.1874 83.7971L29.9692 83.6517L30.1147 83.5062L32.2969 84.961Z" fill="#F3EA22"/>
<path fill-rule="evenodd" clip-rule="evenodd" d="M38.1161 87.5798L37.0977 90.9986H37.2432L37.6069 91.0714H37.7524H37.9706L38.1161 90.9986H38.2616L38.5526 90.8531L38.6253 90.7077L38.7708 90.6349L38.9163 90.4894L38.989 90.344L39.2072 89.9803L39.28 89.8348V89.762V89.6893L39.4255 89.5438L39.6437 89.6165L38.4071 93.981L38.1161 93.9083L38.1889 93.5445V93.1808V92.8899V92.5989L38.1161 92.3807L38.0434 92.1625L37.8979 91.9443L37.8252 91.8715L37.6069 91.726L37.4615 91.5805L37.2432 91.5078L36.9523 91.4351L36.2249 93.7628L36.1521 94.0537L36.0794 94.3447V94.4902V94.6357V94.7811L36.2249 94.9266L36.2976 94.9994L36.3703 95.0721L36.734 95.1448L37.2432 95.2903L37.316 95.3631H37.4615L37.7524 95.4358L38.2616 95.5085L38.3343 95.4358H38.4071H38.5526H38.7708H38.989L39.2072 95.3631L39.4255 95.2176L39.6437 95.1448L39.7164 95.0721L39.7892 94.9994L40.0074 94.8539L40.1529 94.6357L40.3711 94.4174L40.5166 94.1992L40.5893 94.1265L40.662 94.0537L40.7348 93.981L40.953 94.0537L39.7892 96.5997L32.5878 94.4902L32.6606 94.272L32.9515 94.3447H33.097L33.2425 94.4174H33.388H33.5335L33.7517 94.272L33.8972 94.1265V94.0537L34.0426 93.9083L34.1154 93.69L34.1881 93.3991L35.7884 87.9435L35.8612 87.6526V87.5071L35.9339 87.4343V87.3616V87.2888V87.2161V86.9979L35.8612 86.8524L35.5702 86.6342L35.4247 86.4887H35.2792L34.9883 86.3432L35.061 86.125L42.0441 88.2345L41.3167 90.7077L41.0985 90.5622V90.344V90.1257V89.762L41.0257 89.3983L40.953 89.1801L40.8075 88.8891L40.662 88.6709L40.4438 88.4527L40.2256 88.3072L40.0074 88.1617H39.9346H39.8619L39.7164 88.089L39.5709 88.0163L39.4255 87.9435H39.3527L38.9163 87.798L38.1161 87.5798Z" fill="#F3EA22"/>
<path fill-rule="evenodd" clip-rule="evenodd" d="M47.9361 92.4534L50.1183 96.1632L50.2638 96.3086L50.3365 96.5269L50.482 96.6723L50.5547 96.8178L50.7002 96.9633L50.773 97.1088V97.1815L50.9185 97.2543L51.1367 97.3997L51.3549 97.4725H51.5004V97.7634L47.2087 97.4725L47.2814 97.2543H47.3542H47.4996H47.6451L47.7906 97.1815L47.9361 97.1088L48.0088 97.036V96.9633L48.0816 96.8906V96.8178V96.7451V96.6723L48.0088 96.5996V96.5269L47.9361 96.3814L47.7906 96.1632L47.7179 96.0177L47.6451 95.9449L46.4813 93.9809L45.0992 95.5085L44.9537 95.654L44.8082 95.7995L44.6628 95.9449L44.59 96.0904L44.5173 96.1632L44.4445 96.2359V96.3086V96.4541V96.5996L44.5173 96.6723L44.59 96.8178H44.6628L44.7355 96.9633H44.8082L45.0265 97.1088H45.1719H45.3174H45.5356V97.3997L42.1896 97.1815V96.8906H42.4805L42.6988 96.8178L42.917 96.7451L43.1352 96.6723L43.3534 96.4541L43.6444 96.2359L44.0081 95.9449L44.3718 95.5085L46.263 93.5445L44.2263 90.1257L44.0081 89.762L43.9354 89.6165L43.8626 89.471L43.7899 89.3983L43.7171 89.3255V89.2528L43.4989 89.0346L43.3534 88.8891L43.1352 88.8164L42.917 88.7436V88.5254L47.2087 88.8164V89.0346H46.9905L46.845 88.9618L46.6995 89.0346H46.554L46.4813 89.1073L46.3358 89.1801V89.3983L46.263 89.471L46.3358 89.6165L46.6995 90.3439L47.7179 92.0169L48.6635 90.9986L48.8817 90.7076L49.0272 90.5621L49.0999 90.3439L49.2454 90.1984L49.3182 90.0529L49.3909 89.9802L49.4636 89.762V89.6165L49.3909 89.471L49.2454 89.3255L49.0999 89.1801L48.8817 89.1073H48.518L48.5908 88.8891L51.7913 89.0346L51.7186 89.3255H51.3549H51.1367L50.9185 89.471L50.773 89.5438L50.6275 89.6892H50.5547L50.482 89.762L50.3365 89.9075L50.191 90.0529L50.0456 90.1984L49.9001 90.3439L49.7546 90.5621L47.9361 92.4534Z" fill="#F3EA22"/>
<path fill-rule="evenodd" clip-rule="evenodd" d="M59.7201 87.7256L60.1565 90.0533L59.9383 90.126L59.7201 89.7623L59.5746 89.4714L59.4291 89.1804L59.2836 89.0349L59.0654 88.8894L58.9199 88.744L58.7017 88.6712L58.4835 88.5985L58.338 88.5257H58.1198H57.9016L57.6106 88.5985L56.9559 88.744L58.0471 95.2906L58.1198 95.5816L58.1925 95.8725V96.018L58.2653 96.1635L58.4108 96.2362L58.629 96.3817H58.7017L58.8472 96.4545H59.2109L59.5019 96.3817V96.5999L55.0647 97.3274L54.9919 97.1091L55.2829 97.0364L55.4284 96.9636H55.5739L55.7194 96.8909L55.8648 96.8182L56.0103 96.6727V96.5999V96.5272H56.0831V96.4545V96.3817V96.309V96.1635L56.0103 95.9453V95.8725V95.7998V95.6543L54.9192 89.0349L54.3373 89.1804L53.9008 89.2531L53.5371 89.3986L53.3189 89.5441L53.1007 89.7623L52.8825 90.0533L52.737 90.417L52.6642 90.5625V90.8534V91.2899L52.446 91.3626L52.0096 89.0349L59.7201 87.7256Z" fill="#F3EA22"/>
<path fill-rule="evenodd" clip-rule="evenodd" d="M64.6665 90.9258L65.6121 93.1808L65.6848 93.3262V93.399L65.7576 93.4717L65.9031 93.6899L65.9758 93.7627L66.0486 93.8354L66.1213 93.9082L66.194 93.9809L66.2668 94.0536L66.3395 94.1264L66.5577 94.1991H66.7032L66.9214 94.1264L67.1397 94.0536L67.4306 93.9809L67.5034 94.1991L63.3571 95.8722L63.2844 95.6539L63.5026 95.5085L63.7208 95.363L63.8663 95.2902L64.0118 95.2175L64.0846 94.9993L64.1573 94.8538V94.7811V94.7083L64.0846 94.4901L64.0118 94.2719L63.9391 94.1991V94.1264L63.8663 93.9809L61.7569 88.7436L61.6114 88.4526L61.5386 88.2344L61.4659 88.0889L61.3931 88.0162L61.3204 87.9434L61.2477 87.8707H61.0294H60.884L60.6657 87.9434L60.4475 88.0162L60.2293 88.1617L60.1566 87.9434L63.9391 86.4159L64.3028 86.2704L64.5937 86.1249L65.1757 85.9067L65.6848 85.7612L65.9031 85.6885H66.1213H66.485L66.8487 85.7612L67.2124 85.834L67.5761 86.0522L67.8671 86.2704L68.0125 86.3431L68.158 86.4886L68.3762 86.7796L68.5945 87.1433L68.6672 87.3615V87.4342V87.507L68.74 87.6525L68.8127 88.0889L68.74 88.5254L68.6672 88.7436L68.5945 88.9618L68.449 89.18L68.3762 89.3255H68.3035V89.3982L68.2308 89.471L67.9398 89.6892L67.7943 89.8347L67.7216 89.9074L67.6488 89.9802L70.7039 91.9442L70.8494 92.0169L70.9949 92.0896L71.1404 92.1624L71.2859 92.2351L71.3586 92.3079L71.4314 92.3806H71.5041L71.5768 92.4534L71.8678 92.5261H72.0133L72.2315 92.4534L72.3042 92.6716L69.7583 93.6899L65.6848 91.0713L64.6665 90.9258ZM63.0662 86.9251L64.521 90.4166L64.8847 90.2711L65.2484 90.1257L65.5394 89.9802L65.8303 89.8347L66.0486 89.6892V89.6165L66.1213 89.5437L66.194 89.471L66.3395 89.2528L66.4123 89.0345L66.485 88.8163V88.7436V88.5981V88.5254V88.4526V88.3071L66.4123 88.1617V88.0889V88.0162L66.3395 87.7252L66.1213 87.2888L65.9758 87.0705L65.9031 86.9251L65.7576 86.7796L65.6121 86.7068L65.3211 86.5614L65.1029 86.4886L64.9574 86.4159H64.7392H64.521H64.3028L64.0846 86.4886L63.8663 86.5614L63.6481 86.6341L63.0662 86.9251Z" fill="#F3EA22"/>
<path fill-rule="evenodd" clip-rule="evenodd" d="M71.2131 82.8516L73.2498 85.7612L73.3953 85.6884L73.468 85.6157L73.5408 85.543L73.6863 85.3975V85.3247L73.759 85.252L73.9045 85.1065L73.9772 84.8156L74.05 84.6701V84.5246V84.4519V84.3791V84.2336L73.9772 83.7972L73.9045 83.6517L73.759 83.4335V83.288L73.6863 83.2153L73.6135 82.997L73.759 82.8516L76.3777 86.6341L76.1594 86.7796L75.9412 86.4886L75.723 86.2704L75.432 86.0522L75.2138 85.9067L74.9956 85.8339L74.7774 85.7612H74.5591H74.4137H74.1954L73.9772 85.8339L73.759 85.9794L73.5408 86.1249L74.9228 88.1616L74.9956 88.3071L75.1411 88.3799V88.4526V88.5253L75.2866 88.5981V88.6708L75.3593 88.7436L75.432 88.8163L75.6503 88.889L75.7957 88.9618L75.9412 88.889H76.014L76.1594 88.8163L76.3049 88.6708L76.7414 88.3799L77.1778 88.0161L77.396 87.8707L77.4688 87.7252L77.5415 87.6524L77.687 87.4342L77.8325 87.2887V87.1433V87.0705H77.9052V86.9978L78.0507 86.8523V86.5613L78.1234 86.3431V85.8339L78.0507 85.6157V85.3247L77.9052 84.8156L78.1234 84.6701L79.36 87.1433L73.1771 91.5077L73.0316 91.2895L73.2498 91.0713L73.5408 90.853L73.6135 90.7075H73.6863L73.759 90.6348V90.5621V90.4893V90.2711L73.6863 90.1984V90.1256L73.6135 90.0529V89.9801L73.5408 89.8347H73.468V89.7619L73.3953 89.6164L73.3226 89.5437L70.0492 84.8156L69.9037 84.5973L69.7583 84.4519L69.6855 84.3064L69.4673 84.1609H69.2491L68.8854 84.2336L68.5944 84.3791L68.3762 84.5246L68.2307 84.3064L74.1954 80.1602L75.6503 82.2696L75.432 82.4151L75.0683 82.1242L74.7774 81.9059L74.4864 81.6877L74.2682 81.615L73.9772 81.5422H73.6863H73.3953L73.1043 81.6877L72.8861 81.7605L72.6679 81.9059L72.4497 81.9787L72.3042 82.0514L71.9405 82.3424L71.2131 82.8516Z" fill="#F3EA22"/>
<path fill-rule="evenodd" clip-rule="evenodd" d="M83.3608 78.9965L80.4512 73.4683L82.7061 70.7769L82.9243 70.9223L82.7061 71.2133L82.6334 71.286L82.5606 71.4315L82.4879 71.7225L82.4152 71.9407L82.4879 72.1589L82.5606 72.2317L82.7061 72.3044L82.8516 72.4499L83.0698 72.6681L87.4343 76.3779L87.5798 76.4506L87.6525 76.5234L87.7252 76.5961L87.8707 76.6688L87.9435 76.7416L88.0162 76.8143H88.0889L88.1617 76.8871H88.3072L88.5981 76.8143H88.6709L88.7436 76.6688L88.8891 76.5961L89.0346 76.4506L89.18 76.2324L89.3983 76.3779L86.4886 79.8694L86.2704 79.7239L86.4886 79.5057L86.5614 79.3602L86.6341 79.2148L86.7069 79.0693L86.7796 78.9238V78.7056L86.7069 78.6328V78.5601L86.6341 78.4874L86.4886 78.3419L86.2704 78.1964V78.1237L86.1977 78.0509L86.1249 77.9782L81.1786 73.832L85.1066 81.4697L85.0338 81.6152L76.8141 79.0693L81.4695 83.07L81.5423 83.1428H81.615V83.2155H81.6878L81.7605 83.2882L81.8332 83.361L81.906 83.4337L81.9787 83.5065H82.0515L82.1242 83.5792H82.2697H82.4152H82.5606H82.7789L82.9243 83.5065L83.0698 83.4337L83.2153 83.2882L83.4335 83.07L83.6518 83.2155L81.6878 85.4705L81.5423 85.325L81.615 85.2522L81.7605 85.034L81.8332 84.8885L81.906 84.8158V84.5248V84.3066L81.8332 84.2339V84.0884L81.7605 83.9429H81.6878V83.8702L81.615 83.7974L81.5423 83.7247L81.4695 83.6519L81.3968 83.5792L81.3241 83.5065L81.1786 83.4337L76.9596 79.8694L76.7414 79.7239L76.5959 79.5785L76.4504 79.433H76.305H76.0867L75.9413 79.5057L75.6503 79.5785L75.5048 79.7239L75.4321 79.8694L75.2866 80.0149L75.0684 79.8694L77.3961 77.178L83.3608 78.9965Z" fill="#F3EA22"/>
<path fill-rule="evenodd" clip-rule="evenodd" d="M84.3064 68.0125L87.507 69.54L87.5798 69.3946L87.7252 68.9581L87.798 68.6672L87.7252 68.3035L87.6525 68.0852L87.4343 67.7943L87.2161 67.5033L86.8524 67.2123L86.4886 66.9941L86.5614 66.7759L90.7076 68.7399L90.5621 68.9581L90.1984 68.8126L89.9075 68.7399L89.6165 68.6672H89.3255H89.1073L88.8891 68.7399L88.6709 68.8126L88.5254 68.9581L88.3799 69.0309L88.2344 69.2491L88.0889 69.4673L87.9435 69.6855L90.1984 70.7766L90.4166 70.9221H90.5621L90.7076 70.9949H90.7803L90.8531 71.0676H90.9986H91.1441L91.2895 70.9949L91.435 70.9221L91.5078 70.8494L91.5805 70.7039L91.6532 70.5584L91.8715 70.122L92.0897 69.54L92.1624 69.2491L92.2352 69.0309V68.7399V68.5217L92.1624 68.0852L92.0169 67.6488L91.9442 67.4306L91.7987 67.2123L91.5078 66.7759L91.2895 66.5577L91.0713 66.4122L91.2168 66.194L93.5445 67.7215L90.3439 74.4864L90.1257 74.4137L90.1984 74.1227L90.2712 73.9772L90.3439 73.8317V73.5408V73.3226L90.1984 73.1771L90.1257 73.1043L89.9802 73.0316L89.762 72.8861L89.471 72.7406L84.3064 70.3402L84.0882 70.1947L83.87 70.122L83.7245 70.0492H83.6518H83.4335L83.2153 70.122L82.9971 70.2674L82.7789 70.6312L82.7061 70.8494L82.4879 70.7766L85.543 64.23L87.8707 65.3211L87.798 65.5393L87.3615 65.4666L86.9251 65.3938H86.6341L86.3432 65.4666H86.0522L85.834 65.612L85.6158 65.8303L85.3975 66.0485H85.3248L85.2521 66.194L85.1066 66.4849L84.9611 66.5577L84.8884 66.7759L84.7429 67.2123L84.3064 68.0125Z" fill="#F3EA22"/>
<path fill-rule="evenodd" clip-rule="evenodd" d="M87.1433 57.5381L89.9802 58.1928L89.9074 58.411H89.3982L88.8891 58.4837L88.3799 58.6292L88.0162 58.8474L87.5797 59.1384L87.2888 59.5021L87.0705 59.8658L86.9978 60.2295L86.9251 60.5205V60.8114V60.9569V61.1024L87.0705 61.3206L87.216 61.5388L87.3615 61.6843L87.507 61.8298L87.7252 61.9025H87.8707H88.0162H88.2344L88.5981 61.757L88.8163 61.6116L89.0345 61.4661L89.1073 61.3933L89.18 61.2479L89.2528 61.1751L89.3982 61.0296L89.5437 60.8842L89.6892 60.7387L89.8347 60.5205L90.0529 60.3022L90.2711 59.9385L90.5621 59.7203L90.7803 59.4293L91.0713 59.2111L91.2895 58.9929L91.5077 58.8474L91.7259 58.7019L91.9442 58.6292L92.3079 58.4837L92.6716 58.411H93.108L93.5445 58.5565H93.7627L94.0537 58.7019L94.2719 58.7747L94.4901 58.9202L94.6356 59.1384L94.8538 59.2839L94.9993 59.5021L95.1448 59.793L95.363 60.3022L95.5085 60.8842V61.4661L95.4357 61.757V62.048L95.2902 62.4117L95.1448 62.7754L94.9993 62.9936L94.8538 63.1391L94.7811 63.3573L94.6356 63.6483L94.4901 63.721L94.4174 63.8665L94.3446 63.9393V64.0847V64.2302L94.4174 64.4484V64.5212L94.4901 64.6667L94.5628 64.7394L94.7083 64.8121L94.6356 65.0304L91.435 64.303L91.5077 64.012H91.7987H92.1624L92.4534 63.9393H92.7443L93.0353 63.8665L93.3262 63.721L93.5445 63.6483L93.8354 63.5028L94.0537 63.2846L94.1991 63.1391L94.3446 62.9936L94.5628 62.7754L94.6356 62.6299L94.7811 62.4117L94.8538 62.1935L94.9265 61.9753L94.9993 61.6116V61.3206L94.9265 61.0296L94.8538 60.8114L94.7083 60.5932L94.4901 60.375L94.3446 60.2295L94.1991 60.1567H94.1264L93.7627 60.084H93.6172L93.4717 60.1567L93.108 60.3022L92.8171 60.5205L92.5988 60.6659L92.3806 60.8842L92.1624 61.1751L91.8714 61.4661L91.435 61.9753L91.2168 62.1207L91.0713 62.339L90.9258 62.4845L90.7803 62.6299L90.4894 62.9209L90.1984 63.0664L90.1257 63.1391H90.0529L89.9074 63.2119L89.6165 63.3573L89.3982 63.4301L89.1073 63.5028H88.8163H88.5254L88.2344 63.4301L87.9434 63.3573L87.7252 63.2846L87.507 63.1391L87.3615 62.9936L86.9978 62.7027L86.8523 62.4845L86.7068 62.2662L86.4886 61.757L86.4159 61.3206L86.3431 60.7387L86.4886 60.2295L86.5614 59.8658L86.7796 59.5021L86.9251 59.2111L87.0705 58.9929L87.216 58.8474L87.3615 58.6292L87.4342 58.4837L87.507 58.411L87.5797 58.3382V58.12V57.9745L87.507 57.9018L87.4342 57.829L87.2888 57.7563H87.216L87.1433 57.6836V57.5381Z" fill="#F3EA22"/>
<path fill-rule="evenodd" clip-rule="evenodd" d="M9.82002 20.6587L12.3659 22.259L12.2205 22.4772L11.6385 22.3317L11.1293 22.259H10.6202L10.111 22.4045L9.89276 22.4772L9.67454 22.5499L9.31083 22.8409L8.94713 23.1319L8.65617 23.4956L8.43795 23.8593L8.36521 24.223L8.29246 24.5867V25.0231V25.2414V25.4596L8.43795 25.8233L8.51069 26.187L8.80165 26.5507L9.09261 26.9144L9.23809 27.1326L9.45631 27.3508L9.89276 27.6418L10.111 27.86L10.3292 28.0055L10.8384 28.2965L11.3476 28.5874L11.8568 28.7329L12.2932 28.9511H12.5114L12.8024 29.0239L13.2388 29.0966L13.6753 29.0239L13.8208 28.9511H14.039L14.1845 28.8056L14.4027 28.7329L14.5482 28.6602L14.6936 28.5147L14.8391 28.3692L15.0573 28.151L15.3483 27.7873L15.4938 27.4236L15.5665 27.2781L15.6393 27.0599L15.7847 26.6962L15.8575 26.3325V26.1142V25.896L15.7847 25.8233V25.6778V25.6051V25.4596L15.712 25.3141V25.2414V24.9504L15.6393 24.8049V24.7322L15.5665 24.4412L16.2212 24.8776L16.2939 25.3868L16.3667 25.8233V26.2597L16.2939 26.7689L16.2212 27.1326L16.0757 27.5691L15.8575 28.0782L15.5665 28.5147L15.2028 29.0239L14.9846 29.3148L14.7664 29.533L14.5482 29.7513L14.3299 29.9695L13.8208 30.2605L13.5298 30.4059L13.2388 30.5514L12.9479 30.6242L12.7296 30.6969L12.1477 30.7696L11.8568 30.8424H11.5658L10.9839 30.6969L10.4019 30.6242L9.89276 30.4059L9.38357 30.115L8.87439 29.7513L8.65617 29.533L8.43795 29.3148L8.0015 28.8056L7.71054 28.2965L7.56506 28.0055L7.49232 27.7145L7.34684 27.4236L7.2741 27.1326L7.20135 26.5507V25.896L7.2741 25.2414L7.41958 24.6594L7.6378 24.0775L7.92876 23.5683L8.21972 23.2046L8.51069 22.8409L8.87439 22.4772L9.31083 22.1862L9.52906 22.0408L9.67454 21.8953L9.82002 21.7498L9.89276 21.6771L9.9655 21.4588V21.3861V21.3134V21.1679L9.89276 21.0951L9.67454 20.8769L9.82002 20.6587Z" fill="#F3EA22"/>
<path fill-rule="evenodd" clip-rule="evenodd" d="M14.8391 15.2756L15.2028 14.9119L15.5665 14.6209L15.9302 14.33L16.3667 14.1118L16.8031 13.8935L17.2396 13.8208L17.676 13.748H18.1125H18.5489L18.9854 13.8208L19.4218 13.8935L19.64 13.9663L19.8582 14.039L20.2219 14.2572L20.4402 14.33L20.6584 14.4755L21.0221 14.7664L21.3858 15.1301L21.6768 15.4211L21.895 15.712L22.3314 16.3667L22.4769 16.7304L22.6224 17.0941L22.6951 17.4578L22.7679 17.8943V18.4034V18.6217V18.9126L22.5496 19.0581V19.2036L22.4769 19.4218L22.3314 19.931L22.1132 20.3674L21.8222 20.8039L21.6768 21.0221L21.5313 21.2403L21.1676 21.6768L20.7311 22.0405L20.5129 22.186L20.2947 22.3314L19.8582 22.5497L19.4218 22.7679L18.9126 22.9134L18.6944 22.9861H18.5489L18.4762 23.0588H17.967H17.4578L17.0214 22.9861L16.6577 22.9134L16.294 22.7679L16.003 22.6224L15.6393 22.4042L15.2756 22.186L14.9846 21.895L14.6937 21.604L14.33 21.2403L14.039 20.8766L13.8208 20.5129L13.6025 20.1492L13.4571 19.7128L13.3843 19.2763L13.3116 18.8399V18.6217V18.4034V17.967L13.3843 17.5306L13.4571 17.0941L13.6753 16.7304L13.8935 16.3667L14.1845 16.003L14.4754 15.6393L14.8391 15.2756ZM15.1301 15.5666L14.9119 15.7848L14.7664 16.003L14.5482 16.5122V16.7304V17.0214L14.6209 17.3123L14.6937 17.6033L14.9119 18.1125L15.2756 18.6944L15.712 19.2763L16.003 19.5673L16.3667 19.931L16.7304 20.2947L16.9486 20.4402L17.1668 20.6584L17.5305 20.9494L17.8942 21.2403L18.1852 21.4586L18.5489 21.604L18.8399 21.6768L18.9854 21.7495H19.0581L19.1308 21.8223H19.3491H19.64L20.0765 21.7495L20.2947 21.6768L20.5129 21.604L20.5856 21.5313L20.6584 21.4586H20.7311L20.9494 21.3131L21.1676 21.0949L21.2403 20.9494L21.3131 20.8766L21.3858 20.8039L21.4585 20.6584L21.5313 20.5129L21.604 20.2947V19.931V19.7128V19.64V19.5673L21.5313 19.1309L21.0948 18.7672L20.8766 18.3307L20.5856 17.8943L20.1492 17.3851L19.7128 16.8759L19.1308 16.294L18.8399 16.0757L18.6217 15.8575L18.1852 15.4938L17.676 15.2756L17.2396 15.0574L16.8759 14.9846L16.5122 14.9119H16.2212L15.9302 14.9846L15.6393 15.1301L15.3483 15.2756L15.1301 15.5666Z" fill="#F3EA22"/>
<path fill-rule="evenodd" clip-rule="evenodd" d="M25.3138 13.0933L26.6231 15.13L26.7686 15.3482V15.421L26.8413 15.4937L26.9141 15.5665L27.0596 15.7119L27.1323 15.7847L27.205 15.8574L27.4233 15.9302H27.6415L27.787 15.8574L28.0052 15.7847L28.2234 15.7119L28.5144 15.5665L28.6599 15.7847L24.9501 18.1124L24.8046 17.8942L25.0228 17.7487L25.241 17.6032L25.3865 17.4577L25.4593 17.385L25.532 17.1667V16.9485L25.4593 16.8758V16.803L25.3865 16.7303V16.6576L25.3138 16.5121L25.241 16.4393V16.3666L25.1683 16.2211L25.0956 16.0756L22.0405 11.2748L21.8222 10.9838L21.6768 10.7656L21.5313 10.6201L21.4585 10.5473L21.3858 10.4746H21.3131H21.1676H21.0948H20.9494L20.8039 10.5473L20.3674 10.8383L20.1492 10.9838L20.0037 10.7656L23.2043 8.72883L23.568 8.43787L23.9317 8.21965L24.2954 8.00143L24.6591 7.92868L24.9501 7.85594L25.241 7.7832H25.532L25.823 7.85594H26.0412L26.2594 7.92868L26.4776 8.00143L26.6959 8.14691L26.8413 8.29239L26.9868 8.43787L27.1323 8.58335L27.2778 8.80157L27.496 9.16528L27.6415 9.52898L27.7142 9.89268V10.3291L27.6415 10.7656L27.5687 10.9111L27.496 11.1293L27.3505 11.2748L27.205 11.493L26.9141 11.8567L26.6231 12.0749L26.3322 12.3659L25.823 12.7296L25.532 12.9478L25.3138 13.0933ZM22.9861 9.52898L25.0228 12.6568L25.1683 12.5841L25.3138 12.5113L25.4593 12.3659V12.2931H25.532L25.6048 12.2204L25.823 12.0022V11.9294L25.8957 11.8567L25.9685 11.7112L26.0412 11.4202V11.202V11.0565L25.9685 10.8383V10.6928L25.8957 10.4746L25.823 10.2564L25.7502 10.1836H25.6775V10.1109L25.6048 10.0382L25.3138 9.67446L25.1683 9.52898L25.0228 9.3835L24.7319 9.16528L24.5864 9.09253H24.4409L24.1499 9.01979H24.0045L23.859 9.09253L23.4953 9.16528L23.2043 9.3835L22.9861 9.52898Z" fill="#F3EA22"/>
<path fill-rule="evenodd" clip-rule="evenodd" d="M31.133 5.23745L32.4423 8.51078H32.5878L32.7333 8.36529L32.8788 8.29255H32.9515V8.21981H33.0243L33.1697 8.14707L33.2425 8.00159H33.3152L33.388 7.85611V7.78337L33.4607 7.71063L33.5334 7.56515V7.49241V7.41967V7.27419V7.05596V6.83774V6.61952V6.4013L33.4607 6.18308L33.388 5.96485L33.6789 5.89211L35.2792 10.1111L35.061 10.2566L34.8428 9.89285L34.6973 9.60189L34.3336 9.16544L34.1154 9.01996L33.8972 8.87448H33.7517L33.5334 8.80174H33.388H33.1697L32.8788 8.87448L32.5878 9.01996L33.4607 11.2749L33.5334 11.4204V11.4931L33.6062 11.5659L33.6789 11.7841L33.7517 12.0023L33.8972 12.0751L34.0426 12.1478L34.1881 12.2205H34.2609H34.4063H34.5518L34.6973 12.1478L35.2065 11.9296L35.352 11.8568L35.4247 11.7841L35.7157 11.7114L35.7884 11.5659H35.9339L36.1521 11.4204L36.2249 11.3477L36.3703 11.2022L36.5158 11.0567V10.984H36.5886L36.6613 10.9112L36.8068 10.693L36.8795 10.6203V10.5475V10.4748L37.025 10.3293L37.0977 10.0383V9.89285V9.82011V9.67463L37.1705 9.52915V9.38366V9.31092V9.01996V8.729L37.3887 8.65626L38.0434 11.3477L31.0603 14.1118L30.9875 13.8936L31.2058 13.7481L31.4967 13.6026L31.6422 13.5299L31.7149 13.3844L31.7877 13.3117L31.8604 13.2389V13.1662V13.0934V13.0207V12.948L31.7877 12.7297L31.7149 12.5115L31.6422 12.2933L29.5327 6.98322L29.46 6.69226L29.3872 6.47404L29.3145 6.32856V6.25582L29.0963 6.11034L29.0235 6.0376H28.9508L28.8053 5.96485L28.5871 6.0376H28.4416L28.2234 6.11034L28.0052 6.18308L27.8597 5.96485L34.6973 3.34619L35.5702 5.74663L35.352 5.81937L35.061 5.45567L34.8428 5.16471L34.6246 4.94649L34.4063 4.801L34.1154 4.65552L33.8972 4.58278L33.6062 4.51004L33.2425 4.58278H33.0243L32.7333 4.65552L32.3696 4.72826L32.0059 4.94649L31.133 5.23745Z" fill="#F3EA22"/>
<path fill-rule="evenodd" clip-rule="evenodd" d="M40.2983 1.96418L45.4629 6.61958L44.8083 2.90981L44.7355 2.54611L44.6628 2.25515L44.5173 2.03692V1.96418H44.4446L44.2263 1.8187L44.0809 1.74596H44.0081L43.6444 1.67322L43.3535 1.74596V1.52774L46.1903 1.01855V1.30952L45.9721 1.38226L45.7539 1.455L45.6084 1.52774L45.4629 1.60048L45.3174 1.74596L45.2447 1.96418V2.10966V2.32789V2.54611L45.3174 2.83707L46.4813 10.0384H46.2631L39.28 3.85544L40.1529 9.31099L40.2256 9.60195L40.3711 9.89291L40.4438 10.1111L40.662 10.2566L40.8075 10.3294L41.0258 10.4021H41.244H41.4622L41.6804 10.3294L41.7532 10.5476L38.6981 11.0568L38.6253 10.8385H38.6981L38.7708 10.7658H38.9163L39.0618 10.6931L39.2072 10.6203L39.4255 10.5476L39.4982 10.4021H39.5709L39.6437 10.2566V10.1839V10.0384L39.7164 9.96565V9.82017V9.67469V9.52921V9.38373L38.6981 3.34625L38.4798 3.12803L38.1889 2.83707L37.9706 2.76433L37.8252 2.69159H37.6797H37.4615L37.316 2.76433V2.47337L40.2983 1.96418Z" fill="#F3EA22"/>
<path fill-rule="evenodd" clip-rule="evenodd" d="M51.2822 5.67394L51.0639 8.2926V8.58357V8.87453V9.02001V9.16549L51.2094 9.31097L51.3549 9.45645L51.4277 9.52919H51.5731L51.7186 9.60194H51.9368L52.2278 9.67468V9.8929L47.6451 9.60194V9.31097L48.0088 9.38371L48.1543 9.31097H48.2998H48.4453H48.518H48.5908L48.6635 9.16549H48.7363L48.809 9.02001H48.8817V8.94727V8.87453V8.72905V8.58357L48.9545 8.43809V8.14712L49.3182 2.47335V2.18239L49.3909 1.96417L49.3182 1.74595V1.67321L49.2454 1.45499L49.1 1.38224L48.809 1.23676L48.6635 1.16402H48.518H48.2271V0.945801L52.737 1.23676V1.45499H52.446L52.3005 1.38224L52.0823 1.45499L51.8641 1.52773L51.7186 1.60047L51.5731 1.81869L51.5004 1.89143V2.10965L51.4277 2.32787V2.61884L51.2822 5.09202L54.3373 5.31024L54.4828 2.83706V2.54609V2.40061L54.5555 2.25513L54.4828 2.10965V1.96417L54.41 1.89143V1.81869L54.1918 1.67321L53.9736 1.52773H53.8281H53.6826H53.3917V1.23676L57.9016 1.60047V1.81869L57.6106 1.74595H57.3924H57.2469L56.9559 1.89143L56.8105 1.96417L56.7377 2.18239L56.665 2.25513V2.40061L56.5922 2.61884V2.98254L56.2285 8.65631V8.94727V9.16549V9.38371V9.52919L56.3013 9.67468L56.5195 9.82016H56.5922L56.7377 9.8929H56.8832L57.1014 9.96564H57.3196V10.2566L52.8097 9.8929V9.67468H53.1007H53.2462H53.4644H53.6099V9.60194H53.7554V9.52919L53.9008 9.45645V9.38371L53.9736 9.31097L54.0463 9.16549V9.02001V8.87453L54.1191 8.80179V8.51083L54.3373 5.81942L51.2822 5.67394Z" fill="#F3EA22"/>
<path fill-rule="evenodd" clip-rule="evenodd" d="M62.9934 9.38361L60.0838 8.51072L59.5019 9.23813L59.3564 9.38361L59.2837 9.52909L59.1382 9.82005L59.0654 9.96554V10.111L59.1382 10.2565L59.2109 10.402L59.2837 10.4747L59.4291 10.5475L59.6474 10.6202L59.9383 10.7657L59.8656 10.9839L57.1014 10.1838L57.1742 9.96554H57.3924H57.4651H57.5379H57.6834L57.9016 9.8928L58.1198 9.82005L58.338 9.67457L58.629 9.45635L58.7745 9.31087L58.92 9.16539L59.2837 8.80169L64.3028 3.05518L64.4482 3.12792L65.3939 10.8384L65.4666 11.3476L65.5394 11.7841L65.6121 11.9295L65.6848 12.075L65.7576 12.2932L65.8303 12.366L65.9758 12.4387L66.1213 12.5115L66.3395 12.5842L66.2668 12.8024L62.266 11.5658L62.3388 11.3476L62.4842 11.4203L62.7025 11.4931L62.9207 11.5658H63.0662H63.1389H63.2117V11.4931H63.2844L63.3571 11.4203L63.4299 11.3476V11.2749H63.5026V11.1294V11.0566V10.9839V10.9112V10.8384V10.7657V10.5475L62.9934 9.38361ZM62.9207 8.87443L62.557 5.67384L60.4475 8.14702L62.9207 8.87443Z" fill="#F3EA22"/>
<path fill-rule="evenodd" clip-rule="evenodd" d="M77.3233 9.02006L75.8685 11.7115L75.6503 11.566V10.9841V10.4021L75.5775 9.8202L75.4321 9.31102L75.2866 9.02006L75.1411 8.80183L74.8501 8.43813L74.4864 8.07443L74.1227 7.85621L73.6863 7.63798L73.2498 7.4925H72.8134L72.4497 7.56524L72.0132 7.63798L71.5768 7.85621L71.2131 8.07443L70.9221 8.43813L70.5584 8.80183L70.1947 9.16554L69.9038 9.60198L69.6855 10.0384L69.3946 10.5476L69.1764 11.1295L68.9581 11.566L68.8854 12.0752L68.8127 12.3661V12.5843V13.0208L68.8854 13.3845L68.9581 13.6027L69.0309 13.7482L69.2491 14.1119L69.5401 14.4029L69.831 14.6938L70.1947 14.912L70.4857 15.0575L70.7767 15.203L71.0676 15.2758L71.4313 15.3485L72.3042 13.7482L72.4497 13.53L72.5224 13.3845L72.5952 13.239V13.1663V12.948L72.5224 12.8753L72.4497 12.7298L72.3042 12.5843L72.086 12.3661L71.8678 12.2934L72.0132 12.0752L75.6503 14.1119L75.5775 14.3301L75.3593 14.2574L75.1411 14.1846L74.9956 14.1119H74.9229H74.7046L74.4864 14.2574L74.4137 14.3301L74.3409 14.4029L74.2682 14.5483L74.1955 14.7666L73.3226 16.3669L72.8134 16.2941L72.3769 16.2214L71.5041 16.0032L71.0676 15.8577L70.6312 15.6395L69.7583 15.2758L69.2491 14.912L68.8127 14.6211L68.449 14.2574L68.158 13.9664L67.867 13.6027L67.6488 13.239L67.2851 12.5116L67.0669 11.7115L66.9941 11.275L67.0669 10.9113V10.4021L67.2124 9.96568L67.3578 9.4565L67.5761 9.02006L67.867 8.58361L68.0853 8.21991L68.449 7.85621L68.7399 7.56524L69.1036 7.27428L69.5401 7.05606L69.9765 6.91058L70.413 6.7651L70.8494 6.61962L71.2858 6.54688H71.795L72.2315 6.61962L72.7407 6.69236L73.1771 6.83784L73.6135 6.98332L74.1227 7.27428L74.6319 7.56524L75.0683 7.92895L75.2138 8.00169L75.3593 8.14717L75.5048 8.36539L75.723 8.58361L75.7958 8.72909H75.8685V8.80183H75.9412L76.014 8.87457L76.0867 9.02006H76.1595V9.0928L76.2322 9.16554H76.3049L76.4504 9.23828H76.5959L76.8141 9.0928L76.9596 9.02006L77.1051 8.87457L77.3233 9.02006Z" fill="#F3EA22"/>
<path fill-rule="evenodd" clip-rule="evenodd" d="M81.6878 13.3843L79.3601 16.0757L79.5056 16.1484L79.7965 16.3667L80.0875 16.5849H80.4512H80.7421L81.0331 16.4394L81.3968 16.2939L81.6878 16.0757L82.1242 15.7847L82.2697 15.9302L79.2873 19.349L79.0691 19.1308L79.2873 18.8398L79.4328 18.5489L79.5783 18.2579L79.651 18.0397V17.7487L79.7238 17.5305L79.651 17.3123V17.1668L79.5783 17.0941L79.5056 17.0213V16.9486V16.8759L79.4328 16.8031L79.2146 16.5849H79.1419V16.5121L79.0691 16.4394L77.3961 18.2579L77.1779 18.4761L77.0324 18.6944L76.9596 18.8398L76.8869 18.9126V18.9853L76.8142 19.1308L76.8869 19.349L76.9596 19.4945L77.2506 19.7127L77.6143 20.0764L77.8325 20.2947L78.0507 20.4401L78.4872 20.7311L78.9964 20.8766L79.2146 20.9493H79.4328H79.8693L80.3784 20.8766L80.8876 20.6584L81.1058 20.5129L81.3968 20.3674L81.5423 20.5129L79.4328 22.3314L73.8318 17.385L73.9773 17.1668L74.1955 17.385L74.2682 17.4578L74.4137 17.5305L74.7047 17.676H74.9229L75.1411 17.6033L75.2139 17.5305L75.3593 17.4578L75.5048 17.2396L75.723 17.0213L79.5056 12.8024L79.651 12.5842L79.7965 12.4387L79.8693 12.2932L79.942 12.2205L80.0147 12.0022V11.784L79.942 11.6385L79.8693 11.493L79.7965 11.3476L79.651 11.2021L79.4328 11.0566L79.5783 10.8384L85.0338 15.6393L83.2881 17.6033L83.1426 17.4578L83.3608 17.0213L83.5063 16.6576L83.579 16.3667L83.6518 16.0757L83.579 15.7847V15.6393V15.5665L83.4335 15.2756L83.3608 14.9846L83.2153 14.9119V14.8391L83.0698 14.6936V14.6209H82.9971L82.9244 14.5482L82.8516 14.4754L82.7061 14.3299L82.5607 14.1844L82.4152 14.039L81.6878 13.3843Z" fill="#F3EA22"/>
<path fill-rule="evenodd" clip-rule="evenodd" d="M88.8163 20.1495L87.0705 26.7688L90.0529 24.5866L90.3439 24.2957L90.5621 24.0774L90.6348 23.932L90.7803 23.7137V23.5683V23.4955V23.2046L90.7076 23.1318V23.0591L90.6348 22.9863L90.5621 22.9136V22.8409L90.4166 22.6954L90.6348 22.5499L92.3079 24.8776L92.1624 25.0231L91.9442 24.8776L91.7987 24.7321L91.6532 24.5866L91.5805 24.5139L91.435 24.4411H91.3622L91.0713 24.5139H90.9258L90.7803 24.6594L90.5621 24.7321L90.3439 24.9503L84.5246 29.242L84.3791 29.0965L86.7068 20.004L82.2697 23.35L81.9787 23.4955L81.8332 23.7137L81.6877 23.932V24.2229V24.5866L81.7605 24.8049L81.906 24.9503L82.0514 25.1686L81.8332 25.314L80.0147 22.8409L80.1602 22.6954L80.3784 22.9136H80.4512V22.9863H80.5239L80.5966 23.1318L80.8149 23.2046H80.8876L80.9603 23.2773H81.0331H81.2513L81.4695 23.2046L81.6877 23.1318L81.9787 22.9136L86.9251 19.2766L86.9978 18.9856V18.7674L87.0705 18.6219V18.4764V18.3309V18.1855L86.9978 18.1127L86.9251 17.9672L86.8523 17.8218H86.7796L86.9978 17.6763L88.8163 20.1495Z" fill="#F3EA22"/>
<path fill-rule="evenodd" clip-rule="evenodd" d="M93.4718 46.4087H93.1081L92.8898 46.4814L92.5989 46.6269L92.4534 46.8451L92.2352 47.0634L92.0897 47.2816L92.017 47.5725L91.9442 47.9362L92.017 48.2272L92.0897 48.5182L92.2352 48.7364L92.4534 48.9546L92.5989 49.1728L92.8898 49.3183L93.1081 49.3911L93.4718 49.4638L93.7627 49.3911L94.0537 49.3183L94.2719 49.1728L94.5629 48.9546L94.6356 48.8819V48.8091L94.7084 48.7364L94.8538 48.5182L94.9266 48.2272L94.9993 48.0817V48.009V47.9362L94.9266 47.5725L94.8538 47.2816L94.7084 47.0634L94.5629 46.8451L94.2719 46.6269L94.0537 46.4814L93.7627 46.4087H93.4718Z" fill="#F3EA22"/>
<path fill-rule="evenodd" clip-rule="evenodd" d="M89.9074 40.444L89.5437 40.8077L89.2528 41.1714L88.9618 41.6079L88.7436 42.0443L88.5981 42.4808L88.5254 42.9172L88.4526 43.4264V43.9356V44.4448L88.5254 44.9539L88.5981 45.3904L88.6709 45.6086L88.7436 45.8268L88.9618 46.2633L89.2528 46.6997L89.5437 47.0634L89.9074 47.4271L90.2712 47.7181L90.6349 48.0091L91.0713 48.2273L91.5077 48.4455L91.9442 48.591L92.3806 48.7365L92.8898 48.8092L93.399 48.8819L93.9082 48.8092L94.4174 48.7365L94.8538 48.591L95.2903 48.4455L95.7267 48.2273L95.9449 48.0818L96.0177 48.0091H96.0904L96.2359 47.9363L96.4541 47.7908L96.6723 47.6454L96.8905 47.4999L97.1088 47.3544L97.2543 47.1362L97.3997 46.9179L97.5452 46.6997L97.6907 46.4815L97.8362 46.2633L97.9817 46.0451L98.1999 45.6086L98.2726 45.3904L98.3454 45.1722L98.4908 44.7357L98.5636 44.2265L98.6363 43.7174L98.5636 43.2082L98.4908 42.699L98.3454 42.2625L98.1999 41.8261L97.9817 41.3897L97.7634 40.9532L97.4725 40.5895L97.1815 40.2258L96.8178 39.8621L96.4541 39.5711L96.0177 39.2802L95.5812 39.062L95.1448 38.9165L94.7083 38.8437L94.1991 38.771H93.69H93.1808L92.6716 38.8437L92.2352 38.9165L91.7987 39.062L91.3623 39.2802L90.9258 39.5711L90.5621 39.8621L89.9074 40.444ZM90.3439 44.0083V43.3537L90.5621 42.7717L90.8531 42.2625L91.2895 41.8261L91.726 41.3897L92.2352 41.0987L92.5261 40.9532L92.8171 40.8805L93.4717 40.8077H93.7627L94.0537 40.8805L94.3446 40.9532L94.6356 41.0987L94.8538 41.1714L95.1448 41.3169L95.363 41.5351L95.5812 41.7534L95.7994 41.9716L96.0177 42.1898L96.3086 42.699L96.4541 43.2809L96.5268 43.9356L96.4541 44.2265L96.3814 44.5175L96.3086 44.8085L96.2359 45.0994L96.0904 45.3177L96.0177 45.4631L95.9449 45.5359V45.6086L95.7267 45.8268L95.5085 46.0451L95.2903 46.2633L95.072 46.4815H94.9993L94.9266 46.5542L94.7811 46.627L94.5629 46.7725L94.2719 46.8452L93.9809 46.9179L93.69 46.9907H93.399H93.108L92.8171 46.9179L92.5261 46.8452L92.2352 46.7725L91.726 46.4815L91.5077 46.2633L91.2895 46.0451L91.0713 45.8268L90.8531 45.6086L90.7076 45.3177L90.6349 45.0994L90.4894 44.8085L90.4166 44.5175L90.3439 44.2265V44.0083Z" fill="#F3EA22"/>
<path fill-rule="evenodd" clip-rule="evenodd" d="M6.11026 46.4087H5.74655L5.45559 46.4814L5.23737 46.6269L5.01915 46.8451L4.80092 47.0634L4.72818 47.2816L4.5827 47.5725V47.9362V48.2272L4.72818 48.5182L4.80092 48.7364L5.01915 48.9546L5.23737 49.1728L5.45559 49.3183L5.74655 49.3911L6.11026 49.4638L6.40122 49.3911L6.69218 49.3183L6.9104 49.1728L7.12862 48.9546L7.27411 48.8819V48.8091L7.34685 48.7364L7.49233 48.5182L7.56507 48.2272V48.0817V48.009V47.9362H7.63781L7.56507 47.5725L7.49233 47.2816L7.34685 47.0634L7.12862 46.8451L6.9104 46.6269L6.69218 46.4814L6.40122 46.4087H6.11026Z" fill="#F3EA22"/>
<path fill-rule="evenodd" clip-rule="evenodd" d="M2.54595 40.4441L2.18225 40.8078L1.89129 41.1715L1.60032 41.6079L1.45484 42.0444L1.30936 42.4808L1.23662 42.9173L1.16388 43.4264V43.9356V44.4448L1.23662 44.954L1.30936 45.3904L1.3821 45.6087L1.45484 45.8269L1.67306 46.2633L1.96403 46.6998L2.18225 47.0635L2.54595 47.4272L2.90965 47.7909L3.27336 48.0818L3.7098 48.3001L4.14625 48.5183L4.58269 48.6638L5.01913 48.8093L5.52832 48.882L6.0375 48.9547L6.54669 48.882L7.05587 48.8093L7.49231 48.6638L7.92876 48.5183L8.3652 48.3001L8.58342 48.1546L8.65616 48.0818H8.7289L8.87439 48.0091L9.09261 47.8636L9.31083 47.7181L9.52905 47.5727L9.74727 47.4272L9.89276 47.209L10.0382 46.9907L10.1837 46.7725L10.3292 46.5543L10.4747 46.3361L10.6202 46.1179L10.8384 45.6814L10.9111 45.4632L10.9839 45.245L11.1293 44.8085L11.2021 44.2993L11.2748 43.7902L10.9111 43.4264L10.8384 42.9173L10.6929 42.4808L10.5474 42.0444L10.3292 41.6079L10.111 41.1715L9.82001 40.8078L9.52905 40.4441L9.16535 40.0804L8.7289 39.7894L8.29246 39.4985L7.85602 39.2802L7.41957 39.1348L6.98313 39.062H6.54669H6.0375H5.52832L5.01913 39.1348L4.58269 39.2075L4.14625 39.353L3.7098 39.5712L3.27336 39.8622L2.90965 40.1531L2.54595 40.4441ZM2.9824 44.0084V43.3537L3.20062 42.7718L3.49158 42.2626L3.92802 41.8262L4.36447 41.3897L4.87365 41.0987L5.09187 41.026L5.38284 40.9533L6.0375 40.8805H6.32846L6.61943 40.9533L6.91039 41.026L7.20135 41.1715L7.41957 41.2442L7.71054 41.3897L7.92876 41.6079L8.14698 41.8262L8.3652 42.0444L8.58342 42.2626L8.87439 42.7718L9.01987 43.3537L9.09261 44.0084L9.01987 44.2993L8.94713 44.5903L8.87439 44.8813L8.80165 45.1722L8.7289 45.3904L8.65616 45.5359L8.58342 45.6087V45.6814L8.3652 45.8996L8.14698 46.1179L8.0015 46.3361L7.71054 46.5543H7.6378L7.56505 46.627L7.41957 46.6998L7.20135 46.8453L6.91039 46.918L6.61943 46.9907L6.32846 47.0635H6.0375H5.74654L5.45558 46.9907L5.09187 46.918L4.80091 46.8453L4.29173 46.5543L4.0735 46.3361L3.85528 46.1179L3.63706 45.8996L3.41884 45.6814L3.27336 45.3904L3.20062 45.1722L3.05514 44.8813L2.9824 44.5903L2.90965 44.2266L2.9824 44.0084Z" fill="#F3EA22"/>
</svg>
