<svg width="975" height="286" viewBox="0 0 975 286" fill="none" xmlns="http://www.w3.org/2000/svg">
<path d="M42.34 24.5498C29.74 24.5498 22.54 33.9098 22.54 53.9498C22.54 73.9898 30.34 81.5498 42.94 81.5498C55.54 81.5498 65.74 73.1498 65.74 73.1498L72.34 83.9498C72.34 83.9498 59.74 97.0298 40.9 97.0298C16.54 97.0298 2.5 82.3898 2.5 54.5498C2.5 26.7098 18.34 9.5498 42.94 9.5498C57.46 9.5498 70.9 15.1898 70.9 15.1898L70.3 37.9898H58.54L55.78 26.4698C55.78 26.4698 50.14 24.5498 42.34 24.5498V24.5498Z" stroke="#F5F5F5" stroke-width="5" stroke-miterlimit="10"/>
<path d="M142.78 61.9898C142.78 83.5898 130.18 96.7898 110.74 96.7898C91.3 96.7898 80.14 86.5898 80.14 63.7898C80.14 42.1898 92.98 29.5898 112.54 29.5898C132.1 29.5898 142.78 41.3498 142.78 61.9898V61.9898ZM98.74 63.1898C98.74 76.3898 102.58 82.3898 111.34 82.3898C120.1 82.3898 124.18 76.9898 124.18 62.5898C124.18 50.3498 120.58 43.9898 111.94 43.9898C103.3 43.9898 98.74 48.7898 98.74 63.1898V63.1898Z" stroke="#F5F5F5" stroke-width="5" stroke-miterlimit="10"/>
<path d="M149.38 31.3898L174.94 30.7898L176.02 37.5098C176.02 37.5098 184.18 29.5898 193.78 29.5898C210.46 29.5898 218.74 41.9498 218.74 61.3898C218.74 83.5898 208.18 96.7898 187.18 96.7898C183.7 96.7898 180.1 96.3098 176.98 95.5898V110.83L188.38 113.59V123.19H149.62V113.59L158.98 110.83V43.9898L149.38 40.9898V31.3898V31.3898ZM186.34 82.9898C196.66 82.9898 200.14 75.7898 200.14 63.5498C200.14 51.3098 196.9 43.9898 188.14 43.9898C180.34 43.9898 176.98 50.5898 176.98 50.5898V81.1898C178.9 82.0298 181.78 82.9898 186.34 82.9898V82.9898Z" stroke="#F5F5F5" stroke-width="5" stroke-miterlimit="10"/>
<path d="M260.98 82.3898C270.94 82.3898 281.14 76.7498 281.14 76.7498L286.3 86.7098C286.3 86.7098 274.3 96.7898 258.94 96.7898C238.3 96.7898 227.74 84.7898 227.74 64.3898C227.74 43.9898 239.62 29.5898 259.78 29.5898C277.66 29.5898 287.02 40.6298 287.02 57.7898C287.02 62.3498 286.3 66.7898 286.3 66.7898L246.46 67.1498C247.18 76.7498 252.7 82.3898 260.98 82.3898V82.3898ZM246.7 55.9898H268.42C268.42 49.1498 265.54 43.9898 258.58 43.9898C251.62 43.9898 247.66 48.9098 246.7 55.9898V55.9898Z" stroke="#F5F5F5" stroke-width="5" stroke-miterlimit="10"/>
<path d="M321.7 39.0701C321.7 39.0701 333.1 29.8301 343.78 29.8301C355.42 29.8301 362.02 38.1101 362.02 51.1901V82.9901L370.42 85.9901V95.5901H337.42V85.9901L344.02 82.9901V54.4301C344.02 48.9101 340.9 44.8301 335.86 44.8301C328.42 44.8301 323.02 51.6701 323.02 51.6701V82.9901L329.62 85.9901V95.5901H295.42V85.9901L305.02 82.9901V43.9901L295.42 40.9901V31.3901L320.86 30.7901L321.7 39.0701Z" stroke="#F5F5F5" stroke-width="5" stroke-miterlimit="10"/>
<path d="M404.02 37.7498C407.5 34.8698 415.3 29.5898 424.18 29.5898C436.42 29.5898 443.02 37.7498 443.02 51.1898V82.9898L451.42 85.9898V95.5898H418.78V85.9898L425.02 83.1098V54.0698C425.02 46.9898 421.54 44.4698 417.22 44.4698C412.9 44.4698 407.38 47.3498 404.02 50.8298V82.9898L410.38 85.9898V95.5898H376.42V85.9898L386.02 82.9898V15.5498L376.42 13.1498V3.54984L404.02 2.58984V37.7498V37.7498Z" stroke="#F5F5F5" stroke-width="5" stroke-miterlimit="10"/>
<path d="M497.37 87.7801C497.37 87.7801 488.13 96.7801 477.93 96.7801C466.29 96.7801 459.21 89.9401 459.21 77.9401C459.21 63.7801 469.89 58.1401 488.13 58.1401H496.53V51.5401C496.53 45.4201 493.29 42.7801 487.29 42.7801C481.29 42.7801 476.73 44.5801 476.73 44.5801L474.93 52.1401H464.13L463.29 34.3801C463.29 34.3801 477.81 29.5801 489.33 29.5801C507.57 29.5801 514.53 35.9401 514.53 53.3401V82.9801L523.53 85.1401V94.7401L499.53 95.5801L497.37 87.7801V87.7801ZM483.69 83.3401C490.05 83.3401 496.53 76.3801 496.53 76.3801V68.3401H489.69C480.33 68.3401 476.61 70.7401 476.61 76.1401C476.61 80.7001 479.13 83.3401 483.69 83.3401Z" stroke="#F5F5F5" stroke-width="5" stroke-miterlimit="10"/>
<path d="M543.93 94.3801C543.93 94.3801 536.73 93.3001 536.73 86.4601C536.73 82.9801 541.53 75.1801 542.97 72.9001C540.09 70.9801 533.73 65.8201 533.73 54.1801C533.73 37.7401 546.09 29.5801 562.53 29.5801C569.49 29.5801 574.41 31.3801 576.69 32.4601L597.33 31.9801V41.5801L587.49 43.2601C587.73 44.3401 589.53 47.5801 589.53 52.7401C589.53 70.1401 577.29 77.3401 560.73 77.3401C557.49 77.3401 555.09 76.7401 554.61 76.7401L554.13 84.7801H571.89C587.13 84.7801 595.89 91.3801 595.89 103.38C595.89 116.58 585.33 126.18 562.29 126.18C543.45 126.18 531.33 121.98 531.33 108.78C531.33 98.4601 543.93 94.3801 543.93 94.3801V94.3801ZM548.73 105.78C548.73 111.78 553.89 112.98 563.73 112.98C574.53 112.98 579.09 110.58 579.09 104.82C579.09 99.4201 575.13 97.9801 567.09 97.9801H554.49C554.49 97.9801 548.73 100.62 548.73 105.78ZM551.73 53.3401C551.73 60.5401 554.49 65.3401 561.33 65.3401C568.89 65.3401 571.53 61.3801 571.53 53.3401C571.53 45.7801 568.53 41.9401 561.93 41.9401C554.73 41.9401 551.73 45.7801 551.73 53.3401Z" stroke="#F5F5F5" stroke-width="5" stroke-miterlimit="10"/>
<path d="M637.17 82.3898C647.13 82.3898 657.33 76.7498 657.33 76.7498L662.49 86.7098C662.49 86.7098 650.49 96.7898 635.13 96.7898C614.49 96.7898 603.93 84.7898 603.93 64.3898C603.93 43.9898 615.81 29.5898 635.97 29.5898C653.85 29.5898 663.21 40.6298 663.21 57.7898C663.21 62.3498 662.49 66.7898 662.49 66.7898L622.65 67.1498C623.37 76.7498 628.89 82.3898 637.17 82.3898V82.3898ZM622.89 55.9898H644.61C644.61 49.1498 641.73 43.9898 634.77 43.9898C627.81 43.9898 623.85 48.9098 622.89 55.9898Z" stroke="#F5F5F5" stroke-width="5" stroke-miterlimit="10"/>
<path d="M697.89 39.0701C697.89 39.0701 709.29 29.8301 719.97 29.8301C731.61 29.8301 738.21 38.1101 738.21 51.1901V82.9901L746.61 85.9901V95.5901H713.61V85.9901L720.21 82.9901V54.4301C720.21 48.9101 717.09 44.8301 712.05 44.8301C704.61 44.8301 699.21 51.6701 699.21 51.6701V82.9901L705.81 85.9901V95.5901H671.61V85.9901L681.21 82.9901V43.9901L671.61 40.9901V31.3901L697.05 30.7901L697.89 39.0701V39.0701Z" stroke="#F5F5F5" stroke-width="5" stroke-miterlimit="10"/>
<path d="M151.25 190.28C151.25 200.72 146.33 207.08 136.85 210.08C148.13 213.32 154.01 220.04 154.01 229.28C154.01 246.92 142.25 254.12 122.81 254.12H84.65V243.92L93.65 240.32V183.92L84.65 180.32V170.12L112.25 169.52H124.85C140.45 169.52 151.25 176.12 151.25 190.28V190.28ZM119.21 204.08C127.97 204.08 132.65 200.36 132.65 192.92C132.65 186.68 128.21 183.92 122.45 183.92H112.25V204.08H119.21V204.08ZM112.25 239.72H122.21C130.61 239.72 135.05 235.88 135.05 229.28C135.05 220.52 130.01 216.68 119.21 216.68H112.25V239.72Z" stroke="#F5F5F5" stroke-width="5" stroke-miterlimit="10"/>
<path d="M226.25 220.52C226.25 242.12 213.65 255.32 194.21 255.32C174.77 255.32 163.61 245.12 163.61 222.32C163.61 200.72 176.45 188.12 196.01 188.12C215.57 188.12 226.25 199.88 226.25 220.52V220.52ZM182.21 221.72C182.21 234.92 186.05 240.92 194.81 240.92C203.57 240.92 207.65 235.52 207.65 221.12C207.65 208.88 204.05 202.52 195.41 202.52C186.77 202.52 182.21 207.32 182.21 221.72V221.72Z" stroke="#F5F5F5" stroke-width="5" stroke-miterlimit="10"/>
<path d="M277.97 247.76C276.29 249.44 270.17 255.32 259.85 255.32C243.05 255.32 235.25 243.08 235.25 223.28C235.25 200.72 246.05 188.12 268.01 188.12C270.89 188.12 274.37 188.72 277.01 189.32V174.08L267.41 171.68V162.08L295.01 161.12V241.28L304.61 243.68V253.28L279.05 254.12L277.97 247.76V247.76ZM267.65 202.52C257.45 202.52 253.85 210.32 253.85 222.32C253.85 234.32 257.21 240.92 265.37 240.92C273.05 240.92 277.01 234.08 277.01 234.08V204.32C274.73 203.24 271.13 202.52 267.65 202.52V202.52Z" stroke="#F5F5F5" stroke-width="5" stroke-miterlimit="10"/>
<path d="M307.01 199.52V189.92L339.05 189.32V199.52L332.33 200.72L343.61 234.32L353.81 201.08L346.85 199.52V189.92L379.13 189.32V199.52L371.69 201.08L354.05 250.28C344.09 278 333.05 283.4 320.81 283.4C317.21 283.4 313.49 282.92 309.77 282.44L311.45 268.4C313.25 268.52 314.81 268.52 316.37 268.52C325.97 268.52 330.29 265.76 335.33 254.24L313.37 201.44L307.01 199.52Z" stroke="#F5F5F5" stroke-width="5" stroke-miterlimit="10"/>
<path d="M464.56 203.72V216.92H440.32V239.72H461.8L464.56 229.88H475.36V254.12H412.72V243.92L421.72 240.32V183.92L412.72 180.32V170.12L440.32 169.52H473.92V192.68H463.12L460.12 183.92H440.32V203.72H464.56V203.72Z" stroke="#F5F5F5" stroke-width="5" stroke-miterlimit="10"/>
<path d="M550 199.52L542.56 201.08L528.76 221.72L542.32 242.12L551.2 244.52V254.12H518.56V244.52L522.28 243.2L515.92 232.64L502.96 254.12H482.56V244.52L491.56 242.12L504.76 222.32L490.24 201.08L483.76 199.52V189.92L514.84 189.32V199.52L511.24 200.24L517.48 210.8L529.96 189.92L550 189.32V199.52Z" stroke="#F5F5F5" stroke-width="5" stroke-miterlimit="10"/>
<path d="M564.76 231.92V204.32H553.6V192.68L564.76 191.12V174.56L582.76 171.32V191.12H599.56V204.32H582.76V230.72C582.76 238.4 584.08 241.52 589.12 241.52C592.36 241.52 597.04 239.6 598.6 238.76L602.92 247.88C597.04 252.2 590.32 255.32 582.52 255.32C568.72 255.32 564.76 245.72 564.76 231.92V231.92Z" stroke="#F5F5F5" stroke-width="5" stroke-miterlimit="10"/>
<path d="M634.6 197.6C634.6 197.6 643.24 188.12 651.28 188.12C657.88 188.12 662.44 190.28 662.44 190.28L661.48 213.32H650.68L648.88 203.12C641.92 203.12 635.92 209.84 635.92 209.84V241.52L647.92 244.52V254.12H608.32V244.52L617.92 241.52V202.52L608.32 199.52V189.92L633.52 189.32L634.6 197.6V197.6Z" stroke="#F5F5F5" stroke-width="5" stroke-miterlimit="10"/>
<path d="M700.48 240.92C710.44 240.92 720.64 235.28 720.64 235.28L725.8 245.24C725.8 245.24 713.8 255.32 698.44 255.32C677.8 255.32 667.24 243.32 667.24 222.92C667.24 202.52 679.12 188.12 699.28 188.12C717.16 188.12 726.52 199.16 726.52 216.32C726.52 220.88 725.8 225.32 725.8 225.32L685.96 225.68C686.68 235.28 692.2 240.92 700.48 240.92V240.92ZM686.2 214.52H707.92C707.92 207.68 705.04 202.52 698.08 202.52C691.12 202.52 687.16 207.44 686.2 214.52Z" stroke="#F5F5F5" stroke-width="5" stroke-miterlimit="10"/>
<path d="M846.88 244.52V254.12H814.36V244.52L820.72 241.52V212.96C820.72 205.76 818.56 203.12 813.28 203.12C809.08 203.12 803.92 205.76 800.44 209.36V241.52L806.68 244.52V254.12H776.2V244.52L782.44 241.52V212.96C782.44 205.64 780.28 203.12 775 203.12C770.68 203.12 765.28 206.12 762.16 209.36V241.52L768.52 244.52V254.12H734.92V244.52L744.16 241.52V202.52L735.04 199.52V189.92L760.12 189.32L760.96 197.84C760.96 197.84 771.4 188.12 781.96 188.12C790.48 188.12 795.76 192.08 798.52 198.44C800.56 196.4 809.56 188.12 820.24 188.12C832.84 188.12 838.72 196.28 838.72 209.72V241.52L846.88 244.52V244.52Z" stroke="#F5F5F5" stroke-width="5" stroke-miterlimit="10"/>
<path d="M887.32 240.92C897.28 240.92 907.48 235.28 907.48 235.28L912.64 245.24C912.64 245.24 900.64 255.32 885.28 255.32C864.64 255.32 854.08 243.32 854.08 222.92C854.08 202.52 865.96 188.12 886.12 188.12C904 188.12 913.36 199.16 913.36 216.32C913.36 220.88 912.64 225.32 912.64 225.32L872.8 225.68C873.52 235.28 879.04 240.92 887.32 240.92V240.92ZM873.04 214.52H894.76C894.76 207.68 891.88 202.52 884.92 202.52C877.96 202.52 874 207.44 873.04 214.52Z" stroke="#F5F5F5" stroke-width="5" stroke-miterlimit="10"/>
<path d="M943.96 242.12C950.56 242.12 953.8 240.08 953.8 236.24C953.8 226.4 921.76 230 921.76 208.64C921.76 193.64 933.76 188.12 946.48 188.12C957.28 188.12 968.8 191.72 968.8 191.72L968.32 209.72H958.12L956.32 202.52C956.32 202.52 952.84 201.32 948.04 201.32C942.88 201.32 939.76 203.48 939.76 207.44C939.76 217.16 971.8 212.96 971.8 233.72C971.8 247.52 960.64 255.32 944.2 255.32C932.8 255.32 922.12 252.68 922.12 252.68V233.12H932.92L933.88 240.92C933.88 240.92 938.08 242.12 943.96 242.12V242.12Z" stroke="#F5F5F5" stroke-width="5" stroke-miterlimit="10"/>
</svg>
