<svg width="1241" height="229" viewBox="0 0 1241 229" fill="none" xmlns="http://www.w3.org/2000/svg">
<path d="M42.34 17.5C29.74 17.5 22.54 26.86 22.54 46.9C22.54 66.94 30.34 74.5 42.94 74.5C55.54 74.5 65.74 66.1 65.74 66.1L72.34 76.9C72.34 76.9 59.74 89.98 40.9 89.98C16.54 89.98 2.5 75.34 2.5 47.5C2.5 19.66 18.34 2.5 42.94 2.5C57.46 2.5 70.9 8.14 70.9 8.14L70.3 30.94H58.54L55.78 19.42C55.78 19.42 50.14 17.5 42.34 17.5V17.5Z" stroke="#F5F5F5" stroke-width="5" stroke-miterlimit="10"/>
<path d="M159.94 45.1C159.94 72.1 143.74 90.1 119.74 90.1C95.74 90.1 82.54 75.1 82.54 46.9C82.54 18.7 97.78 2.5 122.14 2.5C146.5 2.5 159.94 18.34 159.94 45.1ZM102.94 46.3C102.94 66.1 108.34 75.1 120.34 75.1C132.34 75.1 139.54 67.3 139.54 45.7C139.54 25.9 133.54 17.5 121.54 17.5C109.54 17.5 102.94 24.94 102.94 46.3V46.3Z" stroke="#F5F5F5" stroke-width="5" stroke-miterlimit="10"/>
<path d="M170.74 88.5404V78.3404L179.74 74.7404V18.3404L170.74 14.7404V4.54043L198.34 3.94043H209.74C228.1 3.94043 238.9 13.5404 238.9 29.1404C238.9 49.3004 226.54 59.1404 204.7 59.1404H198.34V74.7404L207.34 78.3404V88.5404H170.74V88.5404ZM204.7 45.1004C214.66 45.1004 220.3 40.4204 220.3 31.5404C220.3 23.7404 216.1 18.3404 207.94 18.3404H198.34V45.1004H204.7Z" stroke="#F5F5F5" stroke-width="5" stroke-miterlimit="10"/>
<path d="M298.53 38.1404V51.3404H274.29V74.1404H295.77L298.53 64.3004H309.33V88.5404H246.69V78.3404L255.69 74.7404V18.3404L246.69 14.7404V4.54043L274.29 3.94043H307.89V27.1004H297.09L294.09 18.3404H274.29V38.1404H298.53V38.1404Z" stroke="#F5F5F5" stroke-width="5" stroke-miterlimit="10"/>
<path d="M320.14 88.5404V78.3404L329.14 74.7404V18.3404L320.14 14.7404V4.54043L348.94 3.94043L381.34 59.3804V18.3404L372.58 14.7404V4.54043L406.78 3.94043V14.7404L397.78 18.3404V88.5404H377.74L345.58 34.1804V74.7404L354.94 78.3404V88.5404H320.14V88.5404Z" stroke="#F5F5F5" stroke-width="5" stroke-miterlimit="10"/>
<path d="M414.58 88.5404V78.3404L423.58 74.7404V18.3404L414.58 14.7404V4.54043L451.78 3.94043V14.7404L442.18 18.3404V37.5404H474.34V18.3404L464.74 14.7404V4.54043L501.94 3.94043V14.7404L492.94 18.3404V74.7404L501.94 78.3404V88.5404H464.74V78.3404L474.34 74.7404V51.9404H442.18V74.7404L451.78 78.3404V88.5404H414.58V88.5404Z" stroke="#F5F5F5" stroke-width="5" stroke-miterlimit="10"/>
<path d="M594.09 78.3404V88.5404H555.93V78.3404L564.93 75.1004L562.05 66.3404H535.41L532.41 74.9804L541.77 78.3404V88.5404H505.53V78.3404L514.29 74.9804L540.69 4.30043L559.89 3.94043L585.69 74.9804L594.09 78.3404ZM558.09 53.5004L549.09 25.0604L539.61 53.5004H558.09Z" stroke="#F5F5F5" stroke-width="5" stroke-miterlimit="10"/>
<path d="M639.57 17.5C626.73 17.5 619.53 26.86 619.53 46.9C619.53 66.94 627.09 74.74 639.93 74.74C646.17 74.74 653.13 72.58 653.13 72.58V57.46L644.13 54.7V44.86L678.69 44.26V54.7L670.53 57.46V81.94C670.53 81.94 658.17 89.98 637.89 89.98C613.53 89.98 599.49 75.34 599.49 47.5C599.49 19.66 615.33 2.5 639.93 2.5C654.45 2.5 667.89 8.14 667.89 8.14L667.29 29.74H656.13L653.13 19.42C653.13 19.42 647.49 17.5 639.57 17.5V17.5Z" stroke="#F5F5F5" stroke-width="5" stroke-miterlimit="10"/>
<path d="M740.13 38.1404V51.3404H715.89V74.1404H737.37L740.13 64.3004H750.93V88.5404H688.29V78.3404L697.29 74.7404V18.3404L688.29 14.7404V4.54043L715.89 3.94043H749.49V27.1004H738.69L735.69 18.3404H715.89V38.1404H740.13V38.1404Z" stroke="#F5F5F5" stroke-width="5" stroke-miterlimit="10"/>
<path d="M761.73 88.5404V78.3404L770.73 74.7404V18.3404L761.73 14.7404V4.54043L790.53 3.94043L822.93 59.3804V18.3404L814.17 14.7404V4.54043L848.37 3.94043V14.7404L839.37 18.3404V88.5404H819.33L787.17 34.1804V74.7404L796.53 78.3404V88.5404H761.73V88.5404Z" stroke="#F5F5F5" stroke-width="5" stroke-miterlimit="10"/>
<path d="M305.85 160.431C305.85 170.871 300.93 177.231 291.45 180.231C302.73 183.471 308.61 190.191 308.61 199.431C308.61 217.071 296.85 224.271 277.41 224.271H239.25V214.071L248.25 210.471V154.071L239.25 150.471V140.271L266.85 139.671H279.45C295.05 139.671 305.85 146.271 305.85 160.431V160.431ZM273.81 174.231C282.57 174.231 287.25 170.511 287.25 163.071C287.25 156.831 282.81 154.071 277.05 154.071H266.85V174.231H273.81ZM266.85 209.871H276.81C285.21 209.871 289.65 206.031 289.65 199.431C289.65 190.671 284.61 186.831 273.81 186.831H266.85V209.871Z" stroke="#F5F5F5" stroke-width="5" stroke-miterlimit="10"/>
<path d="M398.01 180.83C398.01 207.83 381.81 225.83 357.81 225.83C333.81 225.83 320.61 210.83 320.61 182.63C320.61 154.43 335.85 138.23 360.21 138.23C384.57 138.23 398.01 154.07 398.01 180.83V180.83ZM341.01 182.03C341.01 201.83 346.41 210.83 358.41 210.83C370.41 210.83 377.61 203.03 377.61 181.43C377.61 161.63 371.61 153.23 359.61 153.23C347.61 153.23 341.01 160.67 341.01 182.03V182.03Z" stroke="#F5F5F5" stroke-width="5" stroke-miterlimit="10"/>
<path d="M418.41 210.471V154.071L409.41 150.471V140.271L437.01 139.671H448.41C472.41 139.671 486.57 153.831 486.57 180.831C486.57 207.831 470.97 224.271 446.61 224.271H409.41V214.071L418.41 210.471V210.471ZM446.97 209.871C458.61 209.871 466.41 203.031 466.41 181.431C466.41 161.271 459.57 154.071 447.81 154.071H437.01V209.871H446.97V209.871Z" stroke="#F5F5F5" stroke-width="5" stroke-miterlimit="10"/>
<path d="M514.16 224.271V214.071L523.16 210.471V194.991L501.2 153.711L493.4 150.471V140.271L527.36 139.671V150.471L521.24 152.991L533.24 178.791L545.96 153.111L539.36 150.471V140.271L571.76 139.671V150.471L563.48 153.711L541.76 194.871V210.471L550.76 214.071V224.271H514.16V224.271Z" stroke="#F5F5F5" stroke-width="5" stroke-miterlimit="10"/>
<path d="M658.04 173.871V187.071H633.8V209.871H655.28L658.04 200.031H668.84V224.271H606.2V214.071L615.2 210.471V154.071L606.2 150.471V140.271L633.8 139.671H667.4V162.831H656.6L653.6 154.071H633.8V173.871H658.04V173.871Z" stroke="#F5F5F5" stroke-width="5" stroke-miterlimit="10"/>
<path d="M676.64 224.271V214.071L684.08 211.071L708.32 181.791L686 152.751L679.04 150.471V140.271L715.04 139.671V150.471L709.04 152.511L721.4 168.951L733.16 152.991L726.68 150.471V140.271L761.24 139.671V150.471L753.32 152.871L731.24 180.831L754.64 211.191L763.04 214.071V224.271H725.84V214.071L731.36 211.671L718.16 193.911L704.72 211.191L712.28 214.071V224.271H676.64V224.271Z" stroke="#F5F5F5" stroke-width="5" stroke-miterlimit="10"/>
<path d="M790.88 210.471V154.071H779.48L776.48 165.471H765.44V139.671H835.04V165.471H823.88L820.88 154.071H809.48V210.471L820.88 214.071V224.271H779.48V214.071L790.88 210.471V210.471Z" stroke="#F5F5F5" stroke-width="5" stroke-miterlimit="10"/>
<path d="M840.44 224.271V214.071L849.44 210.471V154.071L840.44 150.471V140.271L868.04 139.671H877.16C896.84 139.671 908.36 147.831 908.36 164.151C908.36 175.431 902.96 182.751 894.8 186.831C896.12 188.391 897.92 190.671 899.84 194.631L907.88 211.071L916.04 214.071V224.271H893.84L883.76 202.071C879.68 192.951 878.6 191.031 872.24 191.031H868.04V210.471L876.68 214.071V224.271H840.44V224.271ZM874.88 178.431C884.36 178.431 889.88 173.871 889.88 165.831C889.88 158.991 885.32 154.071 877.88 154.071H868.04V178.431H874.88Z" stroke="#F5F5F5" stroke-width="5" stroke-miterlimit="10"/>
<path d="M974.48 173.871V187.071H950.24V209.871H971.72L974.48 200.031H985.28V224.271H922.64V214.071L931.64 210.471V154.071L922.64 150.471V140.271L950.24 139.671H983.84V162.831H973.04L970.04 154.071H950.24V173.871H974.48V173.871Z" stroke="#F5F5F5" stroke-width="5" stroke-miterlimit="10"/>
<path d="M996.08 224.271V214.071L1005.08 210.471V154.071L996.08 150.471V140.271L1027.04 139.671L1045.04 179.631L1063.88 140.271L1092.68 139.671V150.471L1084.04 154.071V210.471L1093.04 214.071V224.271H1057.28V214.071L1066.64 210.471V165.351L1063.4 173.271L1049.84 201.471L1036.88 202.071L1023.08 173.631L1021.04 167.391V210.471L1030.28 214.071V224.271H996.08V224.271Z" stroke="#F5F5F5" stroke-width="5" stroke-miterlimit="10"/>
<path d="M1154.47 173.871V187.071H1130.23V209.871H1151.71L1154.47 200.031H1165.27V224.271H1102.63V214.071L1111.63 210.471V154.071L1102.63 150.471V140.271L1130.23 139.671H1163.83V162.831H1153.03L1150.03 154.071H1130.23V173.871H1154.47V173.871Z" stroke="#F5F5F5" stroke-width="5" stroke-miterlimit="10"/>
<path d="M1205.11 210.83C1212.79 210.83 1219.63 207.47 1219.63 201.11C1219.63 187.07 1179.07 193.31 1179.07 163.67C1179.07 147.11 1192.15 138.23 1209.55 138.23C1223.11 138.23 1235.95 143.03 1235.95 143.03L1235.35 164.87H1224.31L1221.31 154.67C1221.31 154.67 1215.91 152.87 1210.75 152.87C1202.23 152.87 1198.03 156.59 1198.03 161.39C1198.03 175.31 1238.47 169.79 1238.47 197.99C1238.47 215.99 1224.55 225.83 1206.07 225.83C1192.51 225.83 1179.31 221.27 1179.31 221.27V198.23H1191.55L1193.35 208.31C1193.35 208.31 1198.15 210.83 1205.11 210.83V210.83Z" stroke="#F5F5F5" stroke-width="5" stroke-miterlimit="10"/>
</svg>
