<svg width="585" height="93" viewBox="0 0 585 93" fill="none" xmlns="http://www.w3.org/2000/svg">
<path d="M3 89.0404V78.8404L12 75.2404V18.8404L3 15.2404V5.04043L30.6 4.44043H42C60.36 4.44043 71.16 14.0404 71.16 29.6404C71.16 49.8004 58.8 59.6404 36.96 59.6404H30.6V75.2404L39.6 78.8404V89.0404H3V89.0404ZM36.96 45.6004C46.92 45.6004 52.56 40.9204 52.56 32.0404C52.56 24.2404 48.36 18.8404 40.2 18.8404H30.6V45.6004H36.96Z" stroke="#F5F5F5" stroke-width="5" stroke-miterlimit="10"/>
<path d="M78.36 89.0404V78.8404L87.36 75.2404V18.8404L78.36 15.2404V5.04043L114.96 4.44043V15.2404L105.96 18.8404V75.2404L114.96 78.8404V89.0404H78.36V89.0404Z" stroke="#F5F5F5" stroke-width="5" stroke-miterlimit="10"/>
<path d="M176.99 38.6404V51.8404H152.75V74.6404H174.23L176.99 64.8004H187.79V89.0404H125.15V78.8404L134.15 75.2404V18.8404L125.15 15.2404V5.04043L152.75 4.44043H186.35V27.6004H175.55L172.55 18.8404H152.75V38.6404H176.99V38.6404Z" stroke="#F5F5F5" stroke-width="5" stroke-miterlimit="10"/>
<path d="M198.6 89.0404V78.8404L207.6 75.2404V18.8404L198.6 15.2404V5.04043L226.2 4.44043H235.32C255 4.44043 266.52 12.6004 266.52 28.9204C266.52 40.2004 261.12 47.5204 252.96 51.6004C254.28 53.1604 256.08 55.4404 258 59.4004L266.04 75.8404L274.2 78.8404V89.0404H252L241.92 66.8404C237.84 57.7204 236.76 55.8004 230.4 55.8004H226.2V75.2404L234.84 78.8404V89.0404H198.6V89.0404ZM233.04 43.2004C242.52 43.2004 248.04 38.6404 248.04 30.6004C248.04 23.7604 243.48 18.8404 236.04 18.8404H226.2V43.2004H233.04Z" stroke="#F5F5F5" stroke-width="5" stroke-miterlimit="10"/>
<path d="M321.83 18C309.23 18 302.03 27.36 302.03 47.4C302.03 67.44 309.83 75 322.43 75C335.03 75 345.23 66.6 345.23 66.6L351.83 77.4C351.83 77.4 339.23 90.48 320.39 90.48C296.03 90.48 281.99 75.84 281.99 48C281.99 20.16 297.83 3 322.43 3C336.95 3 350.39 8.64 350.39 8.64L349.79 31.44H338.03L335.27 19.92C335.27 19.92 329.63 18 321.83 18V18Z" stroke="#F5F5F5" stroke-width="5" stroke-miterlimit="10"/>
<path d="M360.23 89.0404V78.8404L369.23 75.2404V18.8404L360.23 15.2404V5.04043L396.83 4.44043V15.2404L387.83 18.8404V75.2404L396.83 78.8404V89.0404H360.23V89.0404Z" stroke="#F5F5F5" stroke-width="5" stroke-miterlimit="10"/>
<path d="M405.83 89.0404V78.8404L414.83 75.2404V18.8404L405.83 15.2404V5.04043L434.63 4.44043L467.03 59.8804V18.8404L458.27 15.2404V5.04043L492.47 4.44043V15.2404L483.47 18.8404V89.0404H463.43L431.27 34.6804V75.2404L440.63 78.8404V89.0404H405.83V89.0404Z" stroke="#F5F5F5" stroke-width="5" stroke-miterlimit="10"/>
<path d="M542.75 18C529.91 18 522.71 27.36 522.71 47.4C522.71 67.44 530.27 75.24 543.11 75.24C549.35 75.24 556.31 73.08 556.31 73.08V57.96L547.31 55.2V45.36L581.87 44.76V55.2L573.71 57.96V82.44C573.71 82.44 561.35 90.48 541.07 90.48C516.71 90.48 502.67 75.84 502.67 48C502.67 20.16 518.51 3 543.11 3C557.63 3 571.07 8.64 571.07 8.64L570.47 30.24H559.31L556.31 19.92C556.31 19.92 550.67 18 542.75 18V18Z" stroke="#F5F5F5" stroke-width="5" stroke-miterlimit="10"/>
</svg>
